Amiamie-LightItalic.ufo
<glyph name="quotedbl" format="2">
	<advance width="268"/>
	<unicode hex="0022"/>
	<note>
		quotedbl
	</note>
	<outline>
		<contour>
			<point x="116" y="487" type="line"/>
			<point x="166" y="487" type="line"/>
			<point x="226" y="735" type="line"/>
			<point x="162" y="735" type="line"/>
		</contour>
		<contour>
			<point x="231" y="487" type="line"/>
			<point x="280" y="487" type="line"/>
			<point x="341" y="735" type="line"/>
			<point x="276" y="735" type="line"/>
		</contour>
	</outline>
</glyph>
<glyph name="numbersign" format="2">
	<advance width="561"/>
	<unicode hex="0023"/>
	<note>
		numbersign
	</note>
	<outline>
		<contour>
			<point x="360" y="272" type="line"/>
			<point x="423" y="418" type="line"/>
			<point x="530" y="418" type="line"/>
			<point x="539" y="461" type="line"/>
			<point x="441" y="461" type="line"/>
			<point x="538" y="690" type="line"/>
			<point x="493" y="690" type="line"/>
			<point x="396" y="461" type="line"/>
			<point x="298" y="461" type="line"/>
			<point x="395" y="690" type="line"/>
			<point x="351" y="690" type="line"/>
			<point x="254" y="461" type="line"/>
			<point x="136" y="461" type="line"/>
			<point x="127" y="418" type="line"/>
			<point x="236" y="418" type="line"/>
			<point x="173" y="272" type="line"/>
			<point x="65" y="272" type="line"/>
			<point x="56" y="229" type="line"/>
			<point x="155" y="229" type="line"/>
			<point x="58" y="0" type="line"/>
			<point x="102" y="0" type="line"/>
			<point x="199" y="229" type="line"/>
			<point x="297" y="229" type="line"/>
			<point x="200" y="0" type="line"/>
			<point x="245" y="0" type="line"/>
			<point x="342" y="229" type="line"/>
			<point x="459" y="229" type="line"/>
			<point x="468" y="272" type="line"/>
		</contour>
		<contour>
			<point x="280" y="418" type="line"/>
			<point x="378" y="418" type="line"/>
			<point x="315" y="272" type="line"/>
			<point x="217" y="272" type="line"/>
		</contour>
	</outline>
</glyph>
<glyph name="dollar" format="2">
	<advance width="561"/>
	<unicode hex="0024"/>
	<note>
		dollar
	</note>
	<outline>
		<contour>
			<point x="488" y="171" type="curve" smooth="yes"/>
			<point x="510" y="274"/>
			<point x="464" y="338"/>
			<point x="335" y="381" type="curve"/>
			<point x="392" y="653" type="line"/>
			<point x="468" y="646"/>
			<point x="499" y="593"/>
			<point x="490" y="511" type="curve"/>
			<point x="556" y="511" type="line"/>
			<point x="566" y="612"/>
			<point x="522" y="696"/>
			<point x="403" y="703" type="curve"/>
			<point x="419" y="780" type="line"/>
			<point x="375" y="780" type="line"/>
			<point x="359" y="703" type="line"/>
			<point x="251" y="693"/>
			<point x="157" y="626"/>
			<point x="133" y="516" type="curve" smooth="yes"/>
			<point x="109" y="400"/>
			<point x="176" y="350"/>
			<point x="278" y="320" type="curve"/>
			<point x="218" y="37" type="line"/>
			<point x="136" y="46"/>
			<point x="94" y="99"/>
			<point x="101" y="184" type="curve"/>
			<point x="36" y="184" type="line"/>
			<point x="18" y="63"/>
			<point x="89" y="-7"/>
			<point x="207" y="-13" type="curve"/>
			<point x="191" y="-90" type="line"/>
			<point x="235" y="-90" type="line"/>
			<point x="251" y="-13" type="line"/>
			<point x="371" y="-4"/>
			<point x="466" y="68"/>
		</contour>
		<contour>
			<point x="201" y="524" type="curve" smooth="yes"/>
			<point x="217" y="601"/>
			<point x="278" y="644"/>
			<point x="348" y="653" type="curve"/>
			<point x="292" y="388" type="line"/>
			<point x="222" y="411"/>
			<point x="184" y="445"/>
		</contour>
		<contour>
			<point x="262" y="37" type="curve"/>
			<point x="320" y="312" type="line"/>
			<point x="407" y="282"/>
			<point x="435" y="235"/>
			<point x="420" y="164" type="curve" smooth="yes"/>
			<point x="403" y="88"/>
			<point x="343" y="43"/>
		</contour>
	</outline>
</glyph>
<glyph name="percent" format="2">
	<advance width="725"/>
	<unicode hex="0025"/>
	<note>
		percent
	</note>
	<outline>
		<contour>
			<point x="286" y="702" type="curve" smooth="yes"/>
			<point x="200" y="702"/>
			<point x="131" y="638"/>
			<point x="111" y="543" type="curve" smooth="yes"/>
			<point x="91" y="449"/>
			<point x="132" y="384"/>
			<point x="218" y="384" type="curve" smooth="yes"/>
			<point x="304" y="384"/>
			<point x="372" y="449"/>
			<point x="392" y="543" type="curve" smooth="yes"/>
			<point x="412" y="638"/>
			<point x="372" y="702"/>
		</contour>
		<contour>
			<point x="51" y="0" type="line"/>
			<point x="115" y="0" type="line"/>
			<point x="709" y="690" type="line"/>
			<point x="644" y="690" type="line"/>
		</contour>
		<contour>
			<point x="276" y="656" type="curve" smooth="yes"/>
			<point x="325" y="656"/>
			<point x="346" y="614"/>
			<point x="331" y="543" type="curve" smooth="yes"/>
			<point x="316" y="473"/>
			<point x="277" y="429"/>
			<point x="228" y="429" type="curve" smooth="yes"/>
			<point x="179" y="429"/>
			<point x="158" y="473"/>
			<point x="173" y="543" type="curve" smooth="yes"/>
			<point x="188" y="614"/>
			<point x="227" y="656"/>
		</contour>
		<contour>
			<point x="540" y="304" type="curve" smooth="yes"/>
			<point x="454" y="304"/>
			<point x="386" y="240"/>
			<point x="365" y="145" type="curve" smooth="yes"/>
			<point x="346" y="51"/>
			<point x="387" y="-14"/>
			<point x="473" y="-14" type="curve" smooth="yes"/>
			<point x="559" y="-14"/>
			<point x="627" y="51"/>
			<point x="646" y="145" type="curve" smooth="yes"/>
			<point x="667" y="240"/>
			<point x="626" y="304"/>
		</contour>
		<contour>
			<point x="531" y="259" type="curve" smooth="yes"/>
			<point x="580" y="259"/>
			<point x="601" y="216"/>
			<point x="585" y="145" type="curve" smooth="yes"/>
			<point x="571" y="75"/>
			<point x="531" y="31"/>
			<point x="482" y="31" type="curve" smooth="yes"/>
			<point x="433" y="31"/>
			<point x="413" y="75"/>
			<point x="427" y="145" type="curve" smooth="yes"/>
			<point x="443" y="216"/>
			<point x="482" y="259"/>
		</contour>
	</outline>
</glyph>
<glyph name="parenleft" format="2">
	<advance width="307"/>
	<unicode hex="0028"/>
	<note>
		parenleft
	</note>
	<outline>
		<contour>
			<point x="381" y="780" type="curve"/>
			<point x="336" y="780" type="line"/>
			<point x="240" y="670"/>
			<point x="160" y="508"/>
			<point x="126" y="350" type="curve" smooth="yes"/>
			<point x="92" y="192"/>
			<point x="104" y="30"/>
			<point x="154" y="-80" type="curve"/>
			<point x="199" y="-80" type="line"/>
			<point x="151" y="42"/>
			<point x="141" y="196"/>
			<point x="174" y="350" type="curve" smooth="yes"/>
			<point x="207" y="504"/>
			<point x="282" y="658"/>
		</contour>
	</outline>
</glyph>
<glyph name="parenright" format="2">
	<advance width="307"/>
	<unicode hex="0029"/>
	<note>
		parenright
	</note>
	<outline>
		<contour>
			<point x="185" y="780" type="curve"/>
			<point x="141" y="780" type="line"/>
			<point x="189" y="658"/>
			<point x="198" y="504"/>
			<point x="165" y="350" type="curve" smooth="yes"/>
			<point x="132" y="196"/>
			<point x="58" y="42"/>
			<point x="-41" y="-80" type="curve"/>
			<point x="3" y="-80" type="line"/>
			<point x="99" y="30"/>
			<point x="179" y="192"/>
			<point x="213" y="350" type="curve" smooth="yes"/>
			<point x="247" y="508"/>
			<point x="235" y="670"/>
		</contour>
	</outline>
</glyph>
<glyph name="plus" format="2">
	<advance width="561"/>
	<unicode hex="002B"/>
	<note>
		plus
	</note>
	<outline>
		<contour>
			<point x="309" y="295" type="line"/>
			<point x="493" y="295" type="line"/>
			<point x="502" y="337" type="line"/>
			<point x="318" y="337" type="line"/>
			<point x="363" y="549" type="line"/>
			<point x="318" y="549" type="line"/>
			<point x="273" y="337" type="line"/>
			<point x="89" y="337" type="line"/>
			<point x="80" y="295" type="line"/>
			<point x="264" y="295" type="line"/>
			<point x="220" y="86" type="line"/>
			<point x="265" y="86" type="line"/>
		</contour>
	</outline>
</glyph>
<glyph name="zero" format="2">
	<advance width="561"/>
	<unicode hex="0030"/>
	<note>
		zero
	</note>
	<outline>
		<contour>
			<point x="374" y="704" type="curve" smooth="yes"/>
			<point x="193" y="704"/>
			<point x="100" y="550"/>
			<point x="56" y="345" type="curve" smooth="yes"/>
			<point x="13" y="141"/>
			<point x="41" y="-14"/>
			<point x="222" y="-14" type="curve" smooth="yes"/>
			<point x="402" y="-14"/>
			<point x="496" y="141"/>
			<point x="539" y="345" type="curve" smooth="yes"/>
			<point x="582" y="549"/>
			<point x="554" y="704"/>
		</contour>
		<contour>
			<point x="232" y="36" type="curve" smooth="yes"/>
			<point x="106" y="36"/>
			<point x="86" y="161"/>
			<point x="125" y="345" type="curve" smooth="yes"/>
			<point x="164" y="530"/>
			<point x="238" y="654"/>
			<point x="364" y="654" type="curve" smooth="yes"/>
			<point x="490" y="654"/>
			<point x="509" y="529"/>
			<point x="470" y="345" type="curve" smooth="yes"/>
			<point x="431" y="161"/>
			<point x="358" y="36"/>
		</contour>
	</outline>
</glyph>
<glyph name="two" format="2">
	<advance width="561"/>
	<unicode hex="0032"/>
	<note>
		two
	</note>
	<outline>
		<contour>
			<point x="462" y="52" type="line"/>
			<point x="99" y="52" type="line"/>
			<point x="331" y="240" type="line" smooth="yes"/>
			<point x="472" y="354"/>
			<point x="541" y="423"/>
			<point x="560" y="515" type="curve" smooth="yes"/>
			<point x="582" y="618"/>
			<point x="533" y="704"/>
			<point x="397" y="704" type="curve" smooth="yes"/>
			<point x="268" y="704"/>
			<point x="166" y="626"/>
			<point x="123" y="489" type="curve" smooth="yes"/>
			<point x="119" y="479" type="line"/>
			<point x="181" y="479" type="line"/>
			<point x="185" y="489" type="line" smooth="yes"/>
			<point x="218" y="592"/>
			<point x="286" y="654"/>
			<point x="380" y="654" type="curve" smooth="yes"/>
			<point x="473" y="654"/>
			<point x="507" y="588"/>
			<point x="490" y="509" type="curve" smooth="yes"/>
			<point x="475" y="437"/>
			<point x="424" y="384"/>
			<point x="302" y="283" type="curve" smooth="yes"/>
			<point x="5" y="37" type="line"/>
			<point x="-3" y="0" type="line"/>
			<point x="451" y="0" type="line"/>
		</contour>
	</outline>
</glyph>
<glyph name="six" format="2">
	<advance width="561"/>
	<unicode hex="0036"/>
	<note>
		six
	</note>
	<outline>
		<contour>
			<point x="334" y="463" type="curve" smooth="yes"/>
			<point x="273" y="463"/>
			<point x="218" y="441"/>
			<point x="169" y="397" type="curve"/>
			<point x="125" y="340" type="line"/>
			<point x="183" y="582"/>
			<point x="280" y="654"/>
			<point x="379" y="654" type="curve" smooth="yes"/>
			<point x="459" y="654"/>
			<point x="496" y="610"/>
			<point x="496" y="522" type="curve" smooth="yes"/>
			<point x="496" y="512" type="line"/>
			<point x="562" y="512" type="line"/>
			<point x="563" y="522" type="line" smooth="yes"/>
			<point x="571" y="633"/>
			<point x="513" y="704"/>
			<point x="394" y="704" type="curve" smooth="yes"/>
			<point x="248" y="704"/>
			<point x="112" y="588"/>
			<point x="52" y="307" type="curve" smooth="yes"/>
			<point x="4" y="80"/>
			<point x="73" y="-14"/>
			<point x="220" y="-14" type="curve" smooth="yes"/>
			<point x="359" y="-14"/>
			<point x="480" y="87"/>
			<point x="510" y="227" type="curve" smooth="yes"/>
			<point x="538" y="361"/>
			<point x="478" y="463"/>
		</contour>
		<contour>
			<point x="231" y="36" type="curve" smooth="yes"/>
			<point x="129" y="36"/>
			<point x="85" y="121"/>
			<point x="108" y="229" type="curve" smooth="yes"/>
			<point x="133" y="344"/>
			<point x="222" y="413"/>
			<point x="313" y="413" type="curve" smooth="yes"/>
			<point x="423" y="413"/>
			<point x="462" y="328"/>
			<point x="440" y="221" type="curve" smooth="yes"/>
			<point x="417" y="115"/>
			<point x="331" y="36"/>
		</contour>
	</outline>
</glyph>
<glyph name="less" format="2">
	<advance width="561"/>
	<unicode hex="003C"/>
	<note>
		less
	</note>
	<outline>
		<contour>
			<point x="139" y="266" type="line"/>
			<point x="529" y="437" type="line"/>
			<point x="540" y="489" type="line"/>
			<point x="96" y="290" type="line"/>
			<point x="86" y="240" type="line"/>
			<point x="444" y="41" type="line"/>
			<point x="456" y="94" type="line"/>
		</contour>
	</outline>
</glyph>
<glyph name="equal" format="2">
	<advance width="561"/>
	<unicode hex="003D"/>
	<note>
		equal
	</note>
	<outline>
		<contour>
			<point x="98" y="391" type="line"/>
			<point x="518" y="391" type="line"/>
			<point x="527" y="434" type="line"/>
			<point x="107" y="434" type="line"/>
		</contour>
		<contour>
			<point x="57" y="198" type="line"/>
			<point x="477" y="198" type="line"/>
			<point x="486" y="241" type="line"/>
			<point x="66" y="241" type="line"/>
		</contour>
	</outline>
</glyph>
<glyph name="greater" format="2">
	<advance width="561"/>
	<unicode hex="003E"/>
	<note>
		greater
	</note>
	<outline>
		<contour>
			<point x="460" y="240" type="line"/>
			<point x="470" y="290" type="line"/>
			<point x="112" y="489" type="line"/>
			<point x="100" y="436" type="line"/>
			<point x="417" y="265" type="line"/>
			<point x="27" y="93" type="line"/>
			<point x="16" y="41" type="line"/>
		</contour>
	</outline>
</glyph>
<glyph name="question" format="2">
	<advance width="508"/>
	<unicode hex="003F"/>
	<note>
		question
	</note>
	<outline>
		<contour>
			<point x="353" y="704" type="curve" smooth="yes"/>
			<point x="226" y="704"/>
			<point x="121" y="621"/>
			<point x="90" y="494" type="curve"/>
			<point x="154" y="494" type="line"/>
			<point x="182" y="595"/>
			<point x="251" y="654"/>
			<point x="341" y="654" type="curve" smooth="yes"/>
			<point x="423" y="654"/>
			<point x="464" y="603"/>
			<point x="447" y="523" type="curve" smooth="yes"/>
			<point x="434" y="461"/>
			<point x="400" y="417"/>
			<point x="319" y="345" type="curve" smooth="yes"/>
			<point x="232" y="269"/>
			<point x="208" y="232"/>
			<point x="186" y="154" type="curve"/>
			<point x="248" y="154" type="line"/>
			<point x="265" y="222"/>
			<point x="287" y="255"/>
			<point x="374" y="325" type="curve" smooth="yes"/>
			<point x="453" y="390"/>
			<point x="501" y="453"/>
			<point x="516" y="523" type="curve" smooth="yes"/>
			<point x="537" y="624"/>
			<point x="483" y="704"/>
		</contour>
		<contour>
			<point x="171" y="83" type="line"/>
			<point x="151" y="-13" type="line"/>
			<point x="215" y="-13" type="line"/>
			<point x="235" y="83" type="line"/>
		</contour>
	</outline>
</glyph>
<glyph name="F" format="2">
	<advance width="554"/>
	<unicode hex="0046"/>
	<note>
		F
	</note>
	<outline>
		<contour>
			<point x="184" y="371" type="line"/>
			<point x="240" y="639" type="line"/>
			<point x="615" y="639" type="line"/>
			<point x="626" y="690" type="line"/>
			<point x="189" y="690" type="line"/>
			<point x="43" y="0" type="line"/>
			<point x="105" y="0" type="line"/>
			<point x="172" y="319" type="line"/>
			<point x="511" y="319" type="line"/>
			<point x="523" y="371" type="line"/>
		</contour>
	</outline>
</glyph>
<glyph name="H" format="2">
	<advance width="702"/>
	<unicode hex="0048"/>
	<note>
		H
	</note>
	<outline>
		<contour>
			<point x="571" y="0" type="line"/>
			<point x="717" y="690" type="line"/>
			<point x="655" y="690" type="line"/>
			<point x="586" y="365" type="line"/>
			<point x="182" y="365" type="line"/>
			<point x="251" y="690" type="line"/>
			<point x="189" y="690" type="line"/>
			<point x="43" y="0" type="line"/>
			<point x="105" y="0" type="line"/>
			<point x="171" y="312" type="line"/>
			<point x="575" y="312" type="line"/>
			<point x="509" y="0" type="line"/>
		</contour>
	</outline>
</glyph>
<glyph name="J" format="2">
	<advance width="526"/>
	<unicode hex="004A"/>
	<note>
		J
	</note>
	<outline>
		<contour>
			<point x="466" y="263" type="curve" smooth="yes"/>
			<point x="556" y="690" type="line"/>
			<point x="494" y="690" type="line"/>
			<point x="403" y="261" type="line" smooth="yes"/>
			<point x="396" y="227"/>
			<point x="391" y="202"/>
			<point x="385" y="181" type="curve" smooth="yes"/>
			<point x="358" y="91"/>
			<point x="300" y="36"/>
			<point x="213" y="36" type="curve" smooth="yes"/>
			<point x="127" y="36"/>
			<point x="82" y="83"/>
			<point x="101" y="194" type="curve" smooth="yes"/>
			<point x="107" y="231" type="line"/>
			<point x="45" y="231" type="line"/>
			<point x="38" y="194" type="line" smooth="yes"/>
			<point x="14" y="61"/>
			<point x="72" y="-14"/>
			<point x="195" y="-14" type="curve" smooth="yes"/>
			<point x="334" y="-14"/>
			<point x="416" y="70"/>
			<point x="445" y="177" type="curve" smooth="yes"/>
			<point x="454" y="210"/>
			<point x="460" y="235"/>
		</contour>
	</outline>
</glyph>
<glyph name="P" format="2">
	<advance width="569"/>
	<unicode hex="0050"/>
	<note>
		P
	</note>
	<outline>
		<contour>
			<point x="472" y="686" type="curve" smooth="yes"/>
			<point x="442" y="690"/>
			<point x="415" y="690"/>
			<point x="380" y="690" type="curve" smooth="yes"/>
			<point x="189" y="690" type="line"/>
			<point x="43" y="0" type="line"/>
			<point x="105" y="0" type="line"/>
			<point x="167" y="292" type="line"/>
			<point x="296" y="292" type="line" smooth="yes"/>
			<point x="331" y="292"/>
			<point x="358" y="292"/>
			<point x="390" y="296" type="curve" smooth="yes"/>
			<point x="489" y="309"/>
			<point x="581" y="375"/>
			<point x="606" y="493" type="curve" smooth="yes"/>
			<point x="631" y="610"/>
			<point x="574" y="672"/>
		</contour>
		<contour>
			<point x="396" y="350" type="curve" smooth="yes"/>
			<point x="372" y="346"/>
			<point x="345" y="345"/>
			<point x="312" y="345" type="curve" smooth="yes"/>
			<point x="178" y="345" type="line"/>
			<point x="240" y="637" type="line"/>
			<point x="374" y="637" type="line" smooth="yes"/>
			<point x="407" y="637"/>
			<point x="434" y="636"/>
			<point x="456" y="632" type="curve" smooth="yes"/>
			<point x="517" y="622"/>
			<point x="558" y="581"/>
			<point x="539" y="493" type="curve" smooth="yes"/>
			<point x="520" y="402"/>
			<point x="461" y="360"/>
		</contour>
	</outline>
</glyph>
<glyph name="W" format="2">
	<advance width="904"/>
	<unicode hex="0057"/>
	<note>
		W
	</note>
	<outline>
		<contour>
			<point x="655" y="0" type="line"/>
			<point x="990" y="690" type="line"/>
			<point x="925" y="690" type="line"/>
			<point x="629" y="56" type="line"/>
			<point x="594" y="680" type="line"/>
			<point x="511" y="680" type="line"/>
			<point x="205" y="56" type="line"/>
			<point x="186" y="690" type="line"/>
			<point x="116" y="690" type="line"/>
			<point x="149" y="0" type="line"/>
			<point x="231" y="0" type="line"/>
			<point x="538" y="618" type="line"/>
			<point x="574" y="0" type="line"/>
		</contour>
	</outline>
</glyph>
<glyph name="Y" format="2">
	<advance width="568"/>
	<unicode hex="0059"/>
	<note>
		Y
	</note>
	<outline>
		<contour>
			<point x="271" y="0" type="line"/>
			<point x="329" y="276" type="line"/>
			<point x="662" y="690" type="line"/>
			<point x="591" y="690" type="line"/>
			<point x="314" y="336" type="line"/>
			<point x="182" y="690" type="line"/>
			<point x="111" y="690" type="line"/>
			<point x="267" y="275" type="line"/>
			<point x="209" y="0" type="line"/>
		</contour>
	</outline>
</glyph>
<glyph name="bracketleft" format="2">
	<advance width="309"/>
	<unicode hex="005B"/>
	<note>
		bracketleft
	</note>
	<outline>
		<contour>
			<point x="370" y="737" type="line"/>
			<point x="379" y="780" type="line"/>
			<point x="220" y="780" type="line"/>
			<point x="38" y="-80" type="line"/>
			<point x="197" y="-80" type="line"/>
			<point x="206" y="-37" type="line"/>
			<point x="91" y="-37" type="line"/>
			<point x="255" y="737" type="line"/>
		</contour>
	</outline>
</glyph>
<glyph name="backslash" format="2">
	<advance width="288"/>
	<unicode hex="005C"/>
	<note>
		backslash
	</note>
	<outline>
		<contour>
			<point x="183" y="-30" type="line"/>
			<point x="230" y="-30" type="line"/>
			<point x="139" y="720" type="line"/>
			<point x="92" y="720" type="line"/>
		</contour>
	</outline>
</glyph>
<glyph name="asciicircum" format="2">
	<advance width="561"/>
	<unicode hex="005E"/>
	<note>
		asciicircum
	</note>
	<outline>
		<contour>
			<point x="347" y="573" type="line"/>
			<point x="419" y="215" type="line"/>
			<point x="471" y="215" type="line"/>
			<point x="383" y="616" type="line"/>
			<point x="330" y="616" type="line"/>
			<point x="70" y="215" type="line"/>
			<point x="123" y="215" type="line"/>
		</contour>
	</outline>
</glyph>
<glyph name="b" format="2">
	<advance width="586"/>
	<unicode hex="0062"/>
	<note>
		b
	</note>
	<outline>
		<contour>
			<point x="379" y="543" type="curve" smooth="yes"/>
			<point x="318" y="543"/>
			<point x="262" y="525"/>
			<point x="218" y="489" type="curve"/>
			<point x="170" y="431" type="line"/>
			<point x="235" y="735" type="line"/>
			<point x="173" y="735" type="line"/>
			<point x="17" y="0" type="line"/>
			<point x="79" y="0" type="line"/>
			<point x="98" y="90" type="line"/>
			<point x="119" y="33" type="line"/>
			<point x="145" y="2"/>
			<point x="193" y="-14"/>
			<point x="245" y="-14" type="curve" smooth="yes"/>
			<point x="379" y="-14"/>
			<point x="516" y="79"/>
			<point x="557" y="271" type="curve" smooth="yes"/>
			<point x="591" y="428"/>
			<point x="527" y="543"/>
		</contour>
		<contour>
			<point x="255" y="35" type="curve" smooth="yes"/>
			<point x="177" y="35"/>
			<point x="97" y="86"/>
			<point x="129" y="237" type="curve" smooth="yes"/>
			<point x="138" y="277" type="line" smooth="yes"/>
			<point x="172" y="437"/>
			<point x="265" y="493"/>
			<point x="359" y="493" type="curve" smooth="yes"/>
			<point x="475" y="493"/>
			<point x="515" y="390"/>
			<point x="488" y="263" type="curve" smooth="yes"/>
			<point x="457" y="120"/>
			<point x="361" y="35"/>
		</contour>
	</outline>
</glyph>
<glyph name="f" format="2">
	<advance width="268"/>
	<unicode hex="0066"/>
	<note>
		f
	</note>
	<outline>
		<contour>
			<point x="224" y="641" type="curve" smooth="yes"/>
			<point x="240" y="688"/>
			<point x="285" y="711"/>
			<point x="352" y="697" type="curve"/>
			<point x="363" y="749" type="line"/>
			<point x="346" y="752"/>
			<point x="329" y="754"/>
			<point x="308" y="754" type="curve" smooth="yes"/>
			<point x="243" y="754"/>
			<point x="186" y="716"/>
			<point x="162" y="643" type="curve" smooth="yes"/>
			<point x="156" y="624"/>
			<point x="152" y="602"/>
			<point x="148" y="584" type="curve" smooth="yes"/>
			<point x="135" y="525" type="line"/>
			<point x="78" y="525" type="line"/>
			<point x="68" y="475" type="line"/>
			<point x="125" y="475" type="line"/>
			<point x="24" y="0" type="line"/>
			<point x="86" y="0" type="line"/>
			<point x="187" y="475" type="line"/>
			<point x="295" y="475" type="line"/>
			<point x="305" y="525" type="line"/>
			<point x="197" y="525" type="line"/>
			<point x="211" y="589" type="line" smooth="yes"/>
			<point x="214" y="604"/>
			<point x="218" y="624"/>
		</contour>
	</outline>
</glyph>
<glyph name="i" format="2">
	<advance width="210"/>
	<unicode hex="0069"/>
	<note>
		i
	</note>
	<outline>
		<contour>
			<point x="17" y="0" type="line"/>
			<point x="79" y="0" type="line"/>
			<point x="191" y="529" type="line"/>
			<point x="129" y="529" type="line"/>
		</contour>
		<contour>
			<point x="156" y="677" type="line"/>
			<point x="141" y="605" type="line"/>
			<point x="213" y="605" type="line"/>
			<point x="228" y="677" type="line"/>
		</contour>
	</outline>
</glyph>
<glyph name="m" format="2">
	<advance width="838"/>
	<unicode hex="006D"/>
	<note>
		m
	</note>
	<outline>
		<contour>
			<point x="793" y="401" type="curve" smooth="yes"/>
			<point x="799" y="485"/>
			<point x="758" y="543"/>
			<point x="663" y="543" type="curve" smooth="yes"/>
			<point x="613" y="543"/>
			<point x="568" y="529"/>
			<point x="531" y="497" type="curve"/>
			<point x="476" y="430" type="line"/>
			<point x="473" y="498"/>
			<point x="430" y="543"/>
			<point x="346" y="543" type="curve" smooth="yes"/>
			<point x="296" y="543"/>
			<point x="252" y="529"/>
			<point x="214" y="497" type="curve"/>
			<point x="172" y="438" type="line"/>
			<point x="191" y="529" type="line"/>
			<point x="129" y="529" type="line"/>
			<point x="17" y="0" type="line"/>
			<point x="79" y="0" type="line"/>
			<point x="138" y="277" type="line" smooth="yes"/>
			<point x="171" y="434"/>
			<point x="241" y="493"/>
			<point x="316" y="493" type="curve" smooth="yes"/>
			<point x="386" y="493"/>
			<point x="417" y="452"/>
			<point x="411" y="381" type="curve" smooth="yes"/>
			<point x="408" y="354"/>
			<point x="403" y="327"/>
			<point x="394" y="284" type="curve" smooth="yes"/>
			<point x="334" y="0" type="line"/>
			<point x="396" y="0" type="line"/>
			<point x="455" y="277" type="line" smooth="yes"/>
			<point x="488" y="434"/>
			<point x="558" y="493"/>
			<point x="633" y="493" type="curve" smooth="yes"/>
			<point x="703" y="493"/>
			<point x="734" y="452"/>
			<point x="728" y="381" type="curve" smooth="yes"/>
			<point x="725" y="354"/>
			<point x="720" y="327"/>
			<point x="711" y="284" type="curve" smooth="yes"/>
			<point x="651" y="0" type="line"/>
			<point x="713" y="0" type="line"/>
			<point x="779" y="312" type="line" smooth="yes"/>
			<point x="788" y="355"/>
			<point x="791" y="374"/>
		</contour>
	</outline>
</glyph>
<glyph name="q" format="2">
	<advance width="589"/>
	<unicode hex="0071"/>
	<note>
		q
	</note>
	<outline>
		<contour>
			<point x="415" y="-196" type="line"/>
			<point x="570" y="532" type="line"/>
			<point x="508" y="532" type="line"/>
			<point x="488" y="438" type="line"/>
			<point x="467" y="495" type="line"/>
			<point x="441" y="527"/>
			<point x="393" y="543"/>
			<point x="341" y="543" type="curve" smooth="yes"/>
			<point x="207" y="543"/>
			<point x="69" y="450"/>
			<point x="29" y="258" type="curve" smooth="yes"/>
			<point x="-5" y="101"/>
			<point x="59" y="-14"/>
			<point x="207" y="-14" type="curve" smooth="yes"/>
			<point x="268" y="-14"/>
			<point x="323" y="3"/>
			<point x="368" y="40" type="curve"/>
			<point x="416" y="98" type="line"/>
			<point x="353" y="-196" type="line"/>
		</contour>
		<contour>
			<point x="226" y="35" type="curve" smooth="yes"/>
			<point x="110" y="35"/>
			<point x="71" y="139"/>
			<point x="98" y="266" type="curve" smooth="yes"/>
			<point x="129" y="409"/>
			<point x="224" y="493"/>
			<point x="330" y="493" type="curve" smooth="yes"/>
			<point x="408" y="493"/>
			<point x="489" y="442"/>
			<point x="457" y="292" type="curve" smooth="yes"/>
			<point x="448" y="252" type="line" smooth="yes"/>
			<point x="414" y="92"/>
			<point x="320" y="35"/>
		</contour>
	</outline>
</glyph>
<glyph name="r" format="2">
	<advance width="303"/>
	<unicode hex="0072"/>
	<note>
		r
	</note>
	<outline>
		<contour>
			<point x="323" y="541" type="curve" smooth="yes"/>
			<point x="289" y="541"/>
			<point x="252" y="526"/>
			<point x="223" y="501" type="curve"/>
			<point x="171" y="433" type="line"/>
			<point x="191" y="529" type="line"/>
			<point x="129" y="529" type="line"/>
			<point x="17" y="0" type="line"/>
			<point x="79" y="0" type="line"/>
			<point x="142" y="297" type="line" smooth="yes"/>
			<point x="172" y="438"/>
			<point x="252" y="495"/>
			<point x="342" y="488" type="curve"/>
			<point x="353" y="537" type="line"/>
			<point x="344" y="540"/>
			<point x="334" y="541"/>
		</contour>
	</outline>
</glyph>
<glyph name="z" format="2">
	<advance width="455"/>
	<unicode hex="007A"/>
	<note>
		z
	</note>
	<outline>
		<contour>
			<point x="373" y="0" type="line"/>
			<point x="383" y="50" type="line"/>
			<point x="46" y="50" type="line"/>
			<point x="469" y="472" type="line"/>
			<point x="480" y="523" type="line"/>
			<point x="96" y="523" type="line"/>
			<point x="85" y="473" type="line"/>
			<point x="395" y="473" type="line"/>
			<point x="-29" y="48" type="line"/>
			<point x="-39" y="0" type="line"/>
		</contour>
	</outline>
</glyph>
<glyph name="bar" format="2">
	<advance width="250"/>
	<unicode hex="007C"/>
	<note>
		bar
	</note>
	<outline>
		<contour>
			<point x="4" y="-200" type="line"/>
			<point x="48" y="-200" type="line"/>
			<point x="261" y="800" type="line"/>
			<point x="217" y="800" type="line"/>
		</contour>
	</outline>
</glyph>
<glyph name="asciitilde" format="2">
	<advance width="561"/>
	<unicode hex="007E"/>
	<note>
		asciitilde
	</note>
	<outline>
		<contour>
			<point x="511" y="354" type="curve"/>
			<point x="468" y="354" type="line"/>
			<point x="457" y="301"/>
			<point x="436" y="270"/>
			<point x="395" y="270" type="curve" smooth="yes"/>
			<point x="366" y="270"/>
			<point x="343" y="283"/>
			<point x="300" y="309" type="curve" smooth="yes"/>
			<point x="248" y="341"/>
			<point x="227" y="352"/>
			<point x="188" y="352" type="curve" smooth="yes"/>
			<point x="122" y="352"/>
			<point x="79" y="310"/>
			<point x="60" y="225" type="curve"/>
			<point x="103" y="225" type="line"/>
			<point x="115" y="278"/>
			<point x="135" y="309"/>
			<point x="176" y="309" type="curve" smooth="yes"/>
			<point x="205" y="309"/>
			<point x="230" y="296"/>
			<point x="271" y="270" type="curve" smooth="yes"/>
			<point x="323" y="238"/>
			<point x="344" y="227"/>
			<point x="383" y="227" type="curve" smooth="yes"/>
			<point x="449" y="227"/>
			<point x="493" y="269"/>
		</contour>
	</outline>
</glyph>
<glyph name="exclamdown" format="2">
	<advance width="227"/>
	<unicode hex="00A1"/>
	<note>
		exclamdown
	</note>
	<outline>
		<contour>
			<point x="166" y="376" type="line"/>
			<point x="109" y="376" type="line"/>
			<point x="-14" y="-160" type="line"/>
			<point x="61" y="-160" type="line"/>
		</contour>
		<contour>
			<point x="141" y="546" type="line"/>
			<point x="121" y="450" type="line"/>
			<point x="185" y="450" type="line"/>
			<point x="205" y="546" type="line"/>
		</contour>
	</outline>
</glyph>
<glyph name="sterling" format="2">
	<advance width="561"/>
	<unicode hex="00A3"/>
	<note>
		sterling
	</note>
	<outline>
		<contour>
			<point x="446" y="0" type="line"/>
			<point x="457" y="52" type="line"/>
			<point x="116" y="52" type="line"/>
			<point x="187" y="91"/>
			<point x="229" y="139"/>
			<point x="245" y="211" type="curve" smooth="yes"/>
			<point x="253" y="250"/>
			<point x="251" y="288"/>
			<point x="240" y="330" type="curve"/>
			<point x="443" y="330" type="line"/>
			<point x="452" y="373" type="line"/>
			<point x="229" y="373" type="line"/>
			<point x="211" y="431"/>
			<point x="207" y="466"/>
			<point x="218" y="519" type="curve" smooth="yes"/>
			<point x="234" y="592"/>
			<point x="297" y="654"/>
			<point x="379" y="654" type="curve" smooth="yes"/>
			<point x="462" y="654"/>
			<point x="496" y="604"/>
			<point x="486" y="508" type="curve"/>
			<point x="552" y="508" type="line"/>
			<point x="568" y="621"/>
			<point x="522" y="704"/>
			<point x="391" y="704" type="curve" smooth="yes"/>
			<point x="277" y="704"/>
			<point x="172" y="625"/>
			<point x="147" y="508" type="curve" smooth="yes"/>
			<point x="136" y="457"/>
			<point x="142" y="417"/>
			<point x="155" y="373" type="curve"/>
			<point x="95" y="373" type="line"/>
			<point x="86" y="330" type="line"/>
			<point x="168" y="330" type="line"/>
			<point x="182" y="283"/>
			<point x="186" y="248"/>
			<point x="177" y="202" type="curve" smooth="yes"/>
			<point x="161" y="127"/>
			<point x="101" y="67"/>
			<point x="16" y="46" type="curve"/>
			<point x="7" y="0" type="line"/>
		</contour>
	</outline>
</glyph>
<glyph name="currency" format="2">
	<advance width="561"/>
	<unicode hex="00A4"/>
	<note>
		currency
	</note>
	<outline>
		<contour>
			<point x="467" y="301" type="curve" smooth="yes"/>
			<point x="476" y="344"/>
			<point x="470" y="382"/>
			<point x="453" y="412" type="curve"/>
			<point x="525" y="472" type="line"/>
			<point x="501" y="503" type="line"/>
			<point x="428" y="444" type="line"/>
			<point x="403" y="467"/>
			<point x="369" y="481"/>
			<point x="327" y="481" type="curve" smooth="yes"/>
			<point x="285" y="481"/>
			<point x="245" y="468"/>
			<point x="209" y="444" type="curve"/>
			<point x="163" y="503" type="line"/>
			<point x="125" y="472" type="line"/>
			<point x="170" y="413" type="line"/>
			<point x="141" y="382"/>
			<point x="119" y="344"/>
			<point x="110" y="301" type="curve" smooth="yes"/>
			<point x="101" y="259"/>
			<point x="106" y="220"/>
			<point x="123" y="190" type="curve"/>
			<point x="53" y="132" type="line"/>
			<point x="77" y="100" type="line"/>
			<point x="148" y="158" type="line"/>
			<point x="173" y="135"/>
			<point x="208" y="121"/>
			<point x="250" y="121" type="curve" smooth="yes"/>
			<point x="292" y="121"/>
			<point x="333" y="135"/>
			<point x="368" y="158" type="curve"/>
			<point x="415" y="100" type="line"/>
			<point x="453" y="131" type="line"/>
			<point x="406" y="190" type="line"/>
			<point x="436" y="221"/>
			<point x="458" y="259"/>
		</contour>
		<contour>
			<point x="260" y="165" type="curve" smooth="yes"/>
			<point x="184" y="165"/>
			<point x="141" y="223"/>
			<point x="158" y="301" type="curve" smooth="yes"/>
			<point x="174" y="379"/>
			<point x="242" y="437"/>
			<point x="318" y="437" type="curve" smooth="yes"/>
			<point x="393" y="437"/>
			<point x="435" y="379"/>
			<point x="419" y="301" type="curve" smooth="yes"/>
			<point x="402" y="223"/>
			<point x="335" y="165"/>
		</contour>
	</outline>
</glyph>
<glyph name="yen" format="2">
	<advance width="561"/>
	<unicode hex="00A5"/>
	<note>
		yen
	</note>
	<outline>
		<contour>
			<point x="500" y="351" type="line"/>
			<point x="359" y="351" type="line"/>
			<point x="628" y="690" type="line"/>
			<point x="555" y="690" type="line"/>
			<point x="302" y="354" type="line"/>
			<point x="190" y="690" type="line"/>
			<point x="112" y="690" type="line"/>
			<point x="237" y="351" type="line"/>
			<point x="97" y="351" type="line"/>
			<point x="88" y="309" type="line"/>
			<point x="253" y="309" type="line"/>
			<point x="257" y="298" type="line"/>
			<point x="244" y="239" type="line"/>
			<point x="73" y="239" type="line"/>
			<point x="64" y="196" type="line"/>
			<point x="235" y="196" type="line"/>
			<point x="194" y="0" type="line"/>
			<point x="256" y="0" type="line"/>
			<point x="297" y="196" type="line"/>
			<point x="467" y="196" type="line"/>
			<point x="476" y="239" type="line"/>
			<point x="306" y="239" type="line"/>
			<point x="319" y="300" type="line"/>
			<point x="326" y="309" type="line"/>
			<point x="491" y="309" type="line"/>
		</contour>
	</outline>
</glyph>
<glyph name="brokenbar" format="2">
	<advance width="250"/>
	<unicode hex="00A6"/>
	<note>
		brokenbar
	</note>
	<outline>
		<contour>
			<point x="121" y="350" type="line"/>
			<point x="165" y="350" type="line"/>
			<point x="237" y="690" type="line"/>
			<point x="193" y="690" type="line"/>
		</contour>
		<contour>
			<point x="13" y="-160" type="line"/>
			<point x="57" y="-160" type="line"/>
			<point x="129" y="180" type="line"/>
			<point x="85" y="180" type="line"/>
		</contour>
	</outline>
</glyph>
<glyph name="section" format="2">
	<advance width="549"/>
	<unicode hex="00A7"/>
	<note>
		section
	</note>
	<outline>
		<contour>
			<point x="516" y="251" type="curve" smooth="yes"/>
			<point x="536" y="347"/>
			<point x="475" y="400"/>
			<point x="348" y="433" type="curve" smooth="yes"/>
			<point x="262" y="455"/>
			<point x="212" y="491"/>
			<point x="226" y="559" type="curve" smooth="yes"/>
			<point x="240" y="621"/>
			<point x="295" y="655"/>
			<point x="354" y="655" type="curve" smooth="yes"/>
			<point x="421" y="655"/>
			<point x="454" y="615"/>
			<point x="455" y="542" type="curve"/>
			<point x="520" y="542" type="line"/>
			<point x="527" y="638"/>
			<point x="479" y="704"/>
			<point x="364" y="704" type="curve" smooth="yes"/>
			<point x="264" y="704"/>
			<point x="179" y="647"/>
			<point x="159" y="552" type="curve" smooth="yes"/>
			<point x="149" y="503"/>
			<point x="163" y="466"/>
			<point x="190" y="439" type="curve"/>
			<point x="119" y="417"/>
			<point x="61" y="368"/>
			<point x="44" y="288" type="curve" smooth="yes"/>
			<point x="23" y="190"/>
			<point x="101" y="133"/>
			<point x="198" y="108" type="curve" smooth="yes"/>
			<point x="323" y="78"/>
			<point x="349" y="37"/>
			<point x="335" y="-27" type="curve" smooth="yes"/>
			<point x="322" y="-90"/>
			<point x="261" y="-125"/>
			<point x="194" y="-125" type="curve" smooth="yes"/>
			<point x="122" y="-125"/>
			<point x="79" y="-89"/>
			<point x="76" y="-3" type="curve"/>
			<point x="11" y="-3" type="line"/>
			<point x="5" y="-122"/>
			<point x="71" y="-174"/>
			<point x="180" y="-174" type="curve" smooth="yes"/>
			<point x="283" y="-174"/>
			<point x="382" y="-121"/>
			<point x="403" y="-22" type="curve" smooth="yes"/>
			<point x="415" y="33"/>
			<point x="404" y="72"/>
			<point x="372" y="102" type="curve"/>
			<point x="441" y="126"/>
			<point x="501" y="179"/>
		</contour>
		<contour>
			<point x="318" y="137" type="curve"/>
			<point x="294" y="148"/>
			<point x="266" y="157"/>
			<point x="234" y="164" type="curve" smooth="yes"/>
			<point x="154" y="183"/>
			<point x="98" y="228"/>
			<point x="112" y="292" type="curve" smooth="yes"/>
			<point x="128" y="367"/>
			<point x="185" y="398"/>
			<point x="240" y="403" type="curve"/>
			<point x="263" y="392"/>
			<point x="287" y="384"/>
			<point x="311" y="377" type="curve" smooth="yes"/>
			<point x="417" y="348"/>
			<point x="463" y="312"/>
			<point x="449" y="244" type="curve" smooth="yes"/>
			<point x="436" y="185"/>
			<point x="380" y="145"/>
		</contour>
	</outline>
</glyph>
<glyph name="dieresis" format="2">
	<advance width="300"/>
	<unicode hex="00A8"/>
	<note>
		dieresis
	</note>
	<outline>
		<contour>
			<point x="143" y="669" type="line"/>
			<point x="128" y="597" type="line"/>
			<point x="200" y="597" type="line"/>
			<point x="215" y="669" type="line"/>
		</contour>
		<contour>
			<point x="257" y="669" type="line"/>
			<point x="242" y="597" type="line"/>
			<point x="314" y="597" type="line"/>
			<point x="329" y="669" type="line"/>
		</contour>
	</outline>
</glyph>
<glyph name="copyright" format="2">
	<advance width="838"/>
	<unicode hex="00A9"/>
	<note>
		copyright
	</note>
	<outline>
		<contour>
			<point x="519" y="737" type="curve" smooth="yes"/>
			<point x="309" y="737"/>
			<point x="109" y="570"/>
			<point x="63" y="355" type="curve" smooth="yes"/>
			<point x="17" y="140"/>
			<point x="147" y="-27"/>
			<point x="357" y="-27" type="curve" smooth="yes"/>
			<point x="568" y="-27"/>
			<point x="768" y="140"/>
			<point x="814" y="355" type="curve" smooth="yes"/>
			<point x="860" y="570"/>
			<point x="730" y="737"/>
		</contour>
		<contour>
			<point x="510" y="693" type="curve" smooth="yes"/>
			<point x="694" y="693"/>
			<point x="808" y="545"/>
			<point x="767" y="355" type="curve" smooth="yes"/>
			<point x="727" y="165"/>
			<point x="550" y="18"/>
			<point x="366" y="18" type="curve" smooth="yes"/>
			<point x="182" y="18"/>
			<point x="70" y="165"/>
			<point x="110" y="355" type="curve" smooth="yes"/>
			<point x="151" y="545"/>
			<point x="326" y="693"/>
		</contour>
		<contour>
			<point x="491" y="578" type="curve" smooth="yes"/>
			<point x="374" y="578"/>
			<point x="270" y="493"/>
			<point x="241" y="354" type="curve" smooth="yes"/>
			<point x="212" y="220"/>
			<point x="277" y="133"/>
			<point x="388" y="133" type="curve" smooth="yes"/>
			<point x="496" y="133"/>
			<point x="571" y="192"/>
			<point x="612" y="285" type="curve"/>
			<point x="546" y="285" type="line"/>
			<point x="522" y="224"/>
			<point x="470" y="184"/>
			<point x="405" y="184" type="curve" smooth="yes"/>
			<point x="326" y="184"/>
			<point x="288" y="254"/>
			<point x="309" y="356" type="curve" smooth="yes"/>
			<point x="330" y="454"/>
			<point x="394" y="527"/>
			<point x="480" y="527" type="curve" smooth="yes"/>
			<point x="552" y="527"/>
			<point x="579" y="485"/>
			<point x="577" y="425" type="curve"/>
			<point x="643" y="425" type="line"/>
			<point x="646" y="519"/>
			<point x="591" y="578"/>
		</contour>
	</outline>
</glyph>
<glyph name="guillemotleft" format="2">
	<advance width="536"/>
	<unicode hex="00AB"/>
	<note>
		guillemotleft
	</note>
	<outline>
		<contour>
			<point x="180" y="248" type="line"/>
			<point x="353" y="414" type="line"/>
			<point x="296" y="414" type="line"/>
			<point x="123" y="248" type="line"/>
			<point x="225" y="82" type="line"/>
			<point x="282" y="82" type="line"/>
		</contour>
		<contour>
			<point x="331" y="248" type="line"/>
			<point x="504" y="414" type="line"/>
			<point x="447" y="414" type="line"/>
			<point x="274" y="248" type="line"/>
			<point x="376" y="82" type="line"/>
			<point x="433" y="82" type="line"/>
		</contour>
	</outline>
</glyph>
<glyph name="macron" format="2">
	<advance width="300"/>
	<unicode hex="00AF"/>
	<note>
		macron
	</note>
	<outline>
		<contour>
			<point x="122" y="610" type="line"/>
			<point x="324" y="610" type="line"/>
			<point x="333" y="650" type="line"/>
			<point x="131" y="650" type="line"/>
		</contour>
	</outline>
</glyph>
<glyph name="plusminus" format="2">
	<advance width="561"/>
	<unicode hex="00B1"/>
	<note>
		plusminus
	</note>
	<outline>
		<contour>
			<point x="497" y="340" type="line"/>
			<point x="313" y="340" type="line"/>
			<point x="353" y="529" type="line"/>
			<point x="309" y="529" type="line"/>
			<point x="269" y="340" type="line"/>
			<point x="85" y="340" type="line"/>
			<point x="76" y="297" type="line"/>
			<point x="260" y="297" type="line"/>
			<point x="219" y="106" type="line"/>
			<point x="263" y="106" type="line"/>
			<point x="304" y="297" type="line"/>
			<point x="488" y="297" type="line"/>
		</contour>
		<contour>
			<point x="13" y="0" type="line"/>
			<point x="425" y="0" type="line"/>
			<point x="434" y="43" type="line"/>
			<point x="22" y="43" type="line"/>
		</contour>
	</outline>
</glyph>
<glyph name="periodcentered" format="2">
	<advance width="177"/>
	<unicode hex="00B7"/>
	<note>
		periodcentered
	</note>
	<outline>
		<contour>
			<point x="56" y="356" type="line"/>
			<point x="35" y="254" type="line"/>
			<point x="138" y="254" type="line"/>
			<point x="159" y="356" type="line"/>
		</contour>
	</outline>
</glyph>
<glyph name="Acircumflex" format="2">
	<advance width="630"/>
	<unicode hex="00C2"/>
	<note>
		Acircumflex
	</note>
	<outline>
		<contour>
			<point x="340" y="736" type="line"/>
			<point x="389" y="736" type="line"/>
			<point x="442" y="802" type="line"/>
			<point x="467" y="736" type="line"/>
			<point x="518" y="736" type="line"/>
			<point x="471" y="830" type="line"/>
			<point x="426" y="830" type="line"/>
		</contour>
		<contour>
			<point x="184" y="253" type="line"/>
			<point x="459" y="253" type="line"/>
			<point x="496" y="0" type="line"/>
			<point x="563" y="0" type="line"/>
			<point x="460" y="690" type="line"/>
			<point x="377" y="690" type="line"/>
			<point x="-24" y="0" type="line"/>
			<point x="42" y="0" type="line"/>
		</contour>
		<contour>
			<point x="453" y="305" type="line"/>
			<point x="214" y="305" type="line"/>
			<point x="407" y="640" type="line"/>
		</contour>
	</outline>
</glyph>
<glyph name="Aring" format="2">
	<advance width="630"/>
	<unicode hex="00C5"/>
	<note>
		Aring
	</note>
	<outline>
		<contour>
			<point x="424" y="718" type="curve" smooth="yes"/>
			<point x="470" y="718"/>
			<point x="512" y="748"/>
			<point x="521" y="791" type="curve" smooth="yes"/>
			<point x="530" y="834"/>
			<point x="501" y="863"/>
			<point x="455" y="863" type="curve" smooth="yes"/>
			<point x="409" y="863"/>
			<point x="369" y="834"/>
			<point x="360" y="791" type="curve" smooth="yes"/>
			<point x="351" y="748"/>
			<point x="378" y="718"/>
		</contour>
		<contour>
			<point x="449" y="832" type="curve" smooth="yes"/>
			<point x="473" y="832"/>
			<point x="485" y="814"/>
			<point x="480" y="791" type="curve" smooth="yes"/>
			<point x="475" y="767"/>
			<point x="455" y="749"/>
			<point x="431" y="749" type="curve" smooth="yes"/>
			<point x="407" y="749"/>
			<point x="395" y="767"/>
			<point x="400" y="791" type="curve" smooth="yes"/>
			<point x="405" y="814"/>
			<point x="425" y="832"/>
		</contour>
		<contour>
			<point x="184" y="253" type="line"/>
			<point x="459" y="253" type="line"/>
			<point x="496" y="0" type="line"/>
			<point x="563" y="0" type="line"/>
			<point x="460" y="690" type="line"/>
			<point x="377" y="690" type="line"/>
			<point x="-24" y="0" type="line"/>
			<point x="42" y="0" type="line"/>
		</contour>
		<contour>
			<point x="453" y="305" type="line"/>
			<point x="214" y="305" type="line"/>
			<point x="407" y="640" type="line"/>
		</contour>
	</outline>
</glyph>
<glyph name="Ccedilla" format="2">
	<advance width="691"/>
	<unicode hex="00C7"/>
	<note>
		Ccedilla
	</note>
	<outline>
		<contour>
			<point x="633" y="229" type="line"/>
			<point x="571" y="229" type="line"/>
			<point x="567" y="219" type="line" smooth="yes"/>
			<point x="524" y="113"/>
			<point x="439" y="36"/>
			<point x="311" y="36" type="curve" smooth="yes"/>
			<point x="171" y="36"/>
			<point x="94" y="153"/>
			<point x="135" y="345" type="curve" smooth="yes"/>
			<point x="175" y="533"/>
			<point x="308" y="654"/>
			<point x="450" y="654" type="curve" smooth="yes"/>
			<point x="573" y="654"/>
			<point x="626" y="580"/>
			<point x="625" y="475" type="curve" smooth="yes"/>
			<point x="625" y="465" type="line"/>
			<point x="687" y="465" type="line"/>
			<point x="688" y="475" type="line" smooth="yes"/>
			<point x="697" y="606"/>
			<point x="629" y="704"/>
			<point x="463" y="704" type="curve" smooth="yes"/>
			<point x="274" y="704"/>
			<point x="110" y="554"/>
			<point x="65" y="342" type="curve" smooth="yes"/>
			<point x="23" y="144"/>
			<point x="98" y="2"/>
			<point x="266" y="-13" type="curve"/>
			<point x="220" y="-75" type="line"/>
			<point x="290" y="-70"/>
			<point x="314" y="-90"/>
			<point x="306" y="-126" type="curve" smooth="yes"/>
			<point x="299" y="-158"/>
			<point x="269" y="-176"/>
			<point x="227" y="-176" type="curve" smooth="yes"/>
			<point x="205" y="-176"/>
			<point x="190" y="-173"/>
			<point x="177" y="-165" type="curve"/>
			<point x="169" y="-201" type="line"/>
			<point x="182" y="-207"/>
			<point x="198" y="-210"/>
			<point x="218" y="-210" type="curve" smooth="yes"/>
			<point x="282" y="-210"/>
			<point x="339" y="-182"/>
			<point x="351" y="-125" type="curve" smooth="yes"/>
			<point x="361" y="-77"/>
			<point x="336" y="-50"/>
			<point x="284" y="-44" type="curve"/>
			<point x="308" y="-14" type="line"/>
			<point x="478" y="-10"/>
			<point x="586" y="95"/>
			<point x="630" y="219" type="curve" smooth="yes"/>
		</contour>
	</outline>
</glyph>
<glyph name="Icircumflex" format="2">
	<advance width="236"/>
	<unicode hex="00CE"/>
	<note>
		Icircumflex
	</note>
	<outline>
		<contour>
			<point x="268" y="736" type="line"/>
			<point x="319" y="736" type="line"/>
			<point x="272" y="830" type="line"/>
			<point x="227" y="830" type="line"/>
			<point x="141" y="736" type="line"/>
			<point x="190" y="736" type="line"/>
			<point x="243" y="802" type="line"/>
		</contour>
		<contour>
			<point x="251" y="690" type="line"/>
			<point x="189" y="690" type="line"/>
			<point x="43" y="0" type="line"/>
			<point x="105" y="0" type="line"/>
		</contour>
	</outline>
</glyph>
<glyph name="Ugrave" format="2">
	<advance width="651"/>
	<unicode hex="00D9"/>
	<note>
		Ugrave
	</note>
	<outline>
		<contour>
			<point x="419" y="736" type="line"/>
			<point x="461" y="736" type="line"/>
			<point x="428" y="830" type="line"/>
			<point x="367" y="830" type="line"/>
		</contour>
		<contour>
			<point x="579" y="247" type="curve" smooth="yes"/>
			<point x="673" y="690" type="line"/>
			<point x="611" y="690" type="line"/>
			<point x="518" y="250" type="line" smooth="yes"/>
			<point x="513" y="228"/>
			<point x="508" y="208"/>
			<point x="502" y="189" type="curve" smooth="yes"/>
			<point x="475" y="102"/>
			<point x="404" y="36"/>
			<point x="289" y="36" type="curve" smooth="yes"/>
			<point x="173" y="36"/>
			<point x="130" y="102"/>
			<point x="141" y="189" type="curve" smooth="yes"/>
			<point x="143" y="208"/>
			<point x="147" y="228"/>
			<point x="152" y="250" type="curve" smooth="yes"/>
			<point x="245" y="690" type="line"/>
			<point x="183" y="690" type="line"/>
			<point x="89" y="247" type="line" smooth="yes"/>
			<point x="85" y="227"/>
			<point x="81" y="207"/>
			<point x="78" y="183" type="curve" smooth="yes"/>
			<point x="63" y="71"/>
			<point x="121" y="-14"/>
			<point x="279" y="-14" type="curve" smooth="yes"/>
			<point x="436" y="-14"/>
			<point x="531" y="71"/>
			<point x="563" y="183" type="curve" smooth="yes"/>
			<point x="570" y="207"/>
			<point x="575" y="227"/>
		</contour>
	</outline>
</glyph>
<glyph name="Yacute" format="2">
	<advance width="568"/>
	<unicode hex="00DD"/>
	<note>
		Yacute
	</note>
	<outline>
		<contour>
			<point x="371" y="736" type="line"/>
			<point x="413" y="736" type="line"/>
			<point x="505" y="830" type="line"/>
			<point x="445" y="830" type="line"/>
		</contour>
		<contour>
			<point x="271" y="0" type="line"/>
			<point x="329" y="276" type="line"/>
			<point x="662" y="690" type="line"/>
			<point x="591" y="690" type="line"/>
			<point x="314" y="336" type="line"/>
			<point x="182" y="690" type="line"/>
			<point x="111" y="690" type="line"/>
			<point x="267" y="275" type="line"/>
			<point x="209" y="0" type="line"/>
		</contour>
	</outline>
</glyph>
<glyph name="Thorn" format="2">
	<advance width="634"/>
	<unicode hex="00DE"/>
	<note>
		Thorn
	</note>
	<outline>
		<contour>
			<point x="454" y="586" type="curve" smooth="yes"/>
			<point x="424" y="590"/>
			<point x="397" y="591"/>
			<point x="362" y="591" type="curve" smooth="yes"/>
			<point x="230" y="591" type="line"/>
			<point x="251" y="690" type="line"/>
			<point x="189" y="690" type="line"/>
			<point x="43" y="0" type="line"/>
			<point x="105" y="0" type="line"/>
			<point x="150" y="211" type="line"/>
			<point x="282" y="211" type="line" smooth="yes"/>
			<point x="317" y="211"/>
			<point x="344" y="211"/>
			<point x="375" y="215" type="curve" smooth="yes"/>
			<point x="476" y="228"/>
			<point x="563" y="290"/>
			<point x="588" y="404" type="curve" smooth="yes"/>
			<point x="611" y="516"/>
			<point x="550" y="574"/>
		</contour>
		<contour>
			<point x="378" y="269" type="curve" smooth="yes"/>
			<point x="353" y="265"/>
			<point x="326" y="264"/>
			<point x="293" y="264" type="curve" smooth="yes"/>
			<point x="161" y="264" type="line"/>
			<point x="219" y="538" type="line"/>
			<point x="351" y="538" type="line" smooth="yes"/>
			<point x="384" y="538"/>
			<point x="411" y="537"/>
			<point x="434" y="533" type="curve" smooth="yes"/>
			<point x="494" y="522"/>
			<point x="538" y="487"/>
			<point x="520" y="402" type="curve" smooth="yes"/>
			<point x="502" y="316"/>
			<point x="442" y="279"/>
		</contour>
	</outline>
</glyph>
<glyph name="germandbls" format="2">
	<advance width="580"/>
	<unicode hex="00DF"/>
	<note>
		germandbls
	</note>
	<outline>
		<contour>
			<point x="398" y="754" type="curve" smooth="yes"/>
			<point x="281" y="754"/>
			<point x="172" y="685"/>
			<point x="135" y="548" type="curve" smooth="yes"/>
			<point x="130" y="530"/>
			<point x="124" y="504"/>
			<point x="120" y="484" type="curve" smooth="yes"/>
			<point x="17" y="0" type="line"/>
			<point x="79" y="0" type="line"/>
			<point x="183" y="490" type="line" smooth="yes"/>
			<point x="188" y="513"/>
			<point x="193" y="532"/>
			<point x="197" y="546" type="curve" smooth="yes"/>
			<point x="226" y="649"/>
			<point x="301" y="704"/>
			<point x="384" y="704" type="curve" smooth="yes"/>
			<point x="470" y="704"/>
			<point x="514" y="658"/>
			<point x="497" y="582" type="curve" smooth="yes"/>
			<point x="492" y="557"/>
			<point x="482" y="535"/>
			<point x="462" y="511" type="curve"/>
			<point x="391" y="479"/>
			<point x="354" y="445"/>
			<point x="344" y="396" type="curve" smooth="yes"/>
			<point x="333" y="344"/>
			<point x="347" y="316"/>
			<point x="396" y="262" type="curve" smooth="yes"/>
			<point x="444" y="209"/>
			<point x="451" y="179"/>
			<point x="443" y="142" type="curve" smooth="yes"/>
			<point x="430" y="82"/>
			<point x="381" y="45"/>
			<point x="305" y="45" type="curve" smooth="yes"/>
			<point x="279" y="45"/>
			<point x="249" y="48"/>
			<point x="209" y="58" type="curve"/>
			<point x="198" y="6" type="line"/>
			<point x="235" y="-2"/>
			<point x="265" y="-4"/>
			<point x="298" y="-4" type="curve" smooth="yes"/>
			<point x="404" y="-4"/>
			<point x="492" y="49"/>
			<point x="511" y="138" type="curve" smooth="yes"/>
			<point x="525" y="204"/>
			<point x="505" y="246"/>
			<point x="455" y="298" type="curve" smooth="yes"/>
			<point x="417" y="336"/>
			<point x="405" y="360"/>
			<point x="413" y="396" type="curve" smooth="yes"/>
			<point x="420" y="429"/>
			<point x="454" y="453"/>
			<point x="513" y="480" type="curve"/>
			<point x="545" y="517"/>
			<point x="560" y="551"/>
			<point x="567" y="583" type="curve" smooth="yes"/>
			<point x="589" y="688"/>
			<point x="519" y="754"/>
		</contour>
	</outline>
</glyph>
<glyph name="ae" format="2">
	<advance width="901"/>
	<unicode hex="00E6"/>
	<note>
		ae
	</note>
	<outline>
		<contour>
			<point x="865" y="279" type="curve" smooth="yes"/>
			<point x="896" y="425"/>
			<point x="847" y="543"/>
			<point x="697" y="543" type="curve" smooth="yes"/>
			<point x="611" y="543"/>
			<point x="534" y="503"/>
			<point x="478" y="430" type="curve"/>
			<point x="470" y="504"/>
			<point x="422" y="543"/>
			<point x="321" y="543" type="curve" smooth="yes"/>
			<point x="203" y="543"/>
			<point x="110" y="476"/>
			<point x="84" y="372" type="curve"/>
			<point x="148" y="372" type="line"/>
			<point x="172" y="454"/>
			<point x="235" y="493"/>
			<point x="310" y="493" type="curve" smooth="yes"/>
			<point x="407" y="493"/>
			<point x="433" y="430"/>
			<point x="410" y="322" type="curve" smooth="yes"/>
			<point x="405" y="296" type="line"/>
			<point x="371" y="296" type="line" smooth="yes"/>
			<point x="176" y="296"/>
			<point x="38" y="254"/>
			<point x="12" y="133" type="curve" smooth="yes"/>
			<point x="-9" y="35"/>
			<point x="63" y="-14"/>
			<point x="157" y="-14" type="curve" smooth="yes"/>
			<point x="227" y="-14"/>
			<point x="291" y="8"/>
			<point x="356" y="65" type="curve"/>
			<point x="393" y="119" type="line"/>
			<point x="410" y="23"/>
			<point x="483" y="-14"/>
			<point x="569" y="-14" type="curve" smooth="yes"/>
			<point x="674" y="-14"/>
			<point x="783" y="44"/>
			<point x="834" y="167" type="curve"/>
			<point x="769" y="167" type="line"/>
			<point x="732" y="80"/>
			<point x="656" y="35"/>
			<point x="582" y="35" type="curve" smooth="yes"/>
			<point x="493" y="35"/>
			<point x="431" y="95"/>
			<point x="456" y="246" type="curve"/>
			<point x="857" y="246" type="line"/>
			<point x="861" y="262"/>
			<point x="863" y="272"/>
		</contour>
		<contour>
			<point x="805" y="295" type="curve"/>
			<point x="466" y="295" type="line"/>
			<point x="504" y="428"/>
			<point x="590" y="493"/>
			<point x="684" y="493" type="curve" smooth="yes"/>
			<point x="774" y="493"/>
			<point x="827" y="432"/>
		</contour>
		<contour>
			<point x="394" y="246" type="curve"/>
			<point x="388" y="217" type="line" smooth="yes"/>
			<point x="364" y="107"/>
			<point x="277" y="35"/>
			<point x="182" y="35" type="curve" smooth="yes"/>
			<point x="107" y="35"/>
			<point x="67" y="71"/>
			<point x="81" y="138" type="curve" smooth="yes"/>
			<point x="101" y="234"/>
			<point x="236" y="253"/>
		</contour>
	</outline>
</glyph>
<glyph name="igrave" format="2">
	<advance width="210"/>
	<unicode hex="00EC"/>
	<note>
		igrave
	</note>
	<outline>
		<contour>
			<point x="147" y="580" type="line"/>
			<point x="190" y="580" type="line"/>
			<point x="152" y="690" type="line"/>
			<point x="91" y="690" type="line"/>
		</contour>
		<contour>
			<point x="17" y="0" type="line"/>
			<point x="79" y="0" type="line"/>
			<point x="191" y="529" type="line"/>
			<point x="129" y="529" type="line"/>
		</contour>
	</outline>
</glyph>
<glyph name="icircumflex" format="2">
	<advance width="210"/>
	<unicode hex="00EE"/>
	<note>
		icircumflex
	</note>
	<outline>
		<contour>
			<point x="212" y="580" type="line"/>
			<point x="261" y="580" type="line"/>
			<point x="217" y="690" type="line"/>
			<point x="172" y="690" type="line"/>
			<point x="83" y="580" type="line"/>
			<point x="131" y="580" type="line"/>
			<point x="187" y="655" type="line"/>
		</contour>
		<contour>
			<point x="191" y="529" type="line"/>
			<point x="129" y="529" type="line"/>
			<point x="17" y="0" type="line"/>
			<point x="79" y="0" type="line"/>
		</contour>
	</outline>
</glyph>
<glyph name="idieresis" format="2">
	<advance width="210"/>
	<unicode hex="00EF"/>
	<note>
		idieresis
	</note>
	<outline>
		<contour>
			<point x="17" y="0" type="line"/>
			<point x="79" y="0" type="line"/>
			<point x="191" y="529" type="line"/>
			<point x="129" y="529" type="line"/>
		</contour>
		<contour>
			<point x="96" y="670" type="line"/>
			<point x="81" y="598" type="line"/>
			<point x="153" y="598" type="line"/>
			<point x="168" y="670" type="line"/>
		</contour>
		<contour>
			<point x="210" y="670" type="line"/>
			<point x="195" y="598" type="line"/>
			<point x="267" y="598" type="line"/>
			<point x="282" y="670" type="line"/>
		</contour>
	</outline>
</glyph>
<glyph name="ntilde" format="2">
	<advance width="569"/>
	<unicode hex="00F1"/>
	<note>
		ntilde
	</note>
	<outline>
		<contour>
			<point x="315" y="632" type="curve" smooth="yes"/>
			<point x="324" y="632"/>
			<point x="335" y="628"/>
			<point x="357" y="620" type="curve" smooth="yes"/>
			<point x="383" y="611"/>
			<point x="397" y="607"/>
			<point x="415" y="607" type="curve" smooth="yes"/>
			<point x="444" y="607"/>
			<point x="464" y="622"/>
			<point x="473" y="667" type="curve"/>
			<point x="442" y="667" type="line"/>
			<point x="439" y="652"/>
			<point x="432" y="647"/>
			<point x="422" y="647" type="curve" smooth="yes"/>
			<point x="413" y="647"/>
			<point x="402" y="650"/>
			<point x="380" y="658" type="curve" smooth="yes"/>
			<point x="354" y="667"/>
			<point x="340" y="671"/>
			<point x="322" y="671" type="curve" smooth="yes"/>
			<point x="293" y="671"/>
			<point x="273" y="656"/>
			<point x="264" y="611" type="curve"/>
			<point x="295" y="611" type="line"/>
			<point x="298" y="626"/>
			<point x="305" y="632"/>
		</contour>
		<contour>
			<point x="524" y="385" type="curve" smooth="yes"/>
			<point x="534" y="482"/>
			<point x="483" y="543"/>
			<point x="371" y="543" type="curve" smooth="yes"/>
			<point x="312" y="543"/>
			<point x="262" y="527"/>
			<point x="210" y="484" type="curve"/>
			<point x="169" y="427" type="line"/>
			<point x="191" y="529" type="line"/>
			<point x="129" y="529" type="line"/>
			<point x="17" y="0" type="line"/>
			<point x="79" y="0" type="line"/>
			<point x="135" y="263" type="line" smooth="yes"/>
			<point x="170" y="428"/>
			<point x="260" y="492"/>
			<point x="348" y="492" type="curve" smooth="yes"/>
			<point x="437" y="492"/>
			<point x="466" y="441"/>
			<point x="458" y="369" type="curve" smooth="yes"/>
			<point x="454" y="342"/>
			<point x="449" y="319"/>
			<point x="443" y="289" type="curve" smooth="yes"/>
			<point x="382" y="0" type="line"/>
			<point x="444" y="0" type="line"/>
			<point x="507" y="296" type="line" smooth="yes"/>
			<point x="516" y="339"/>
			<point x="520" y="358"/>
		</contour>
	</outline>
</glyph>
<glyph name="oacute" format="2">
	<advance width="574"/>
	<unicode hex="00F3"/>
	<note>
		oacute
	</note>
	<outline>
		<contour>
			<point x="328" y="580" type="line"/>
			<point x="370" y="580" type="line"/>
			<point x="472" y="690" type="line"/>
			<point x="412" y="690" type="line"/>
		</contour>
		<contour>
			<point x="346" y="543" type="curve" smooth="yes"/>
			<point x="178" y="543"/>
			<point x="63" y="420"/>
			<point x="30" y="264" type="curve" smooth="yes"/>
			<point x="-3" y="109"/>
			<point x="60" y="-14"/>
			<point x="228" y="-14" type="curve" smooth="yes"/>
			<point x="396" y="-14"/>
			<point x="511" y="109"/>
			<point x="544" y="264" type="curve" smooth="yes"/>
			<point x="577" y="420"/>
			<point x="514" y="543"/>
		</contour>
		<contour>
			<point x="238" y="35" type="curve" smooth="yes"/>
			<point x="128" y="35"/>
			<point x="67" y="120"/>
			<point x="98" y="264" type="curve" smooth="yes"/>
			<point x="128" y="408"/>
			<point x="225" y="493"/>
			<point x="335" y="493" type="curve" smooth="yes"/>
			<point x="445" y="493"/>
			<point x="506" y="408"/>
			<point x="476" y="264" type="curve" smooth="yes"/>
			<point x="445" y="120"/>
			<point x="348" y="35"/>
		</contour>
	</outline>
</glyph>
<glyph name="otilde" format="2">
	<advance width="574"/>
	<unicode hex="00F5"/>
	<note>
		otilde
	</note>
	<outline>
		<contour>
			<point x="313" y="632" type="curve" smooth="yes"/>
			<point x="322" y="632"/>
			<point x="333" y="628"/>
			<point x="355" y="620" type="curve" smooth="yes"/>
			<point x="381" y="611"/>
			<point x="395" y="607"/>
			<point x="413" y="607" type="curve" smooth="yes"/>
			<point x="442" y="607"/>
			<point x="462" y="622"/>
			<point x="471" y="667" type="curve"/>
			<point x="440" y="667" type="line"/>
			<point x="437" y="652"/>
			<point x="430" y="647"/>
			<point x="420" y="647" type="curve" smooth="yes"/>
			<point x="411" y="647"/>
			<point x="400" y="650"/>
			<point x="378" y="658" type="curve" smooth="yes"/>
			<point x="352" y="667"/>
			<point x="338" y="671"/>
			<point x="320" y="671" type="curve" smooth="yes"/>
			<point x="291" y="671"/>
			<point x="271" y="656"/>
			<point x="262" y="611" type="curve"/>
			<point x="293" y="611" type="line"/>
			<point x="296" y="626"/>
			<point x="303" y="632"/>
		</contour>
		<contour>
			<point x="346" y="543" type="curve" smooth="yes"/>
			<point x="178" y="543"/>
			<point x="63" y="420"/>
			<point x="30" y="264" type="curve" smooth="yes"/>
			<point x="-3" y="109"/>
			<point x="60" y="-14"/>
			<point x="228" y="-14" type="curve" smooth="yes"/>
			<point x="396" y="-14"/>
			<point x="511" y="109"/>
			<point x="544" y="264" type="curve" smooth="yes"/>
			<point x="577" y="420"/>
			<point x="514" y="543"/>
		</contour>
		<contour>
			<point x="238" y="35" type="curve" smooth="yes"/>
			<point x="128" y="35"/>
			<point x="67" y="120"/>
			<point x="98" y="264" type="curve" smooth="yes"/>
			<point x="128" y="408"/>
			<point x="225" y="493"/>
			<point x="335" y="493" type="curve" smooth="yes"/>
			<point x="445" y="493"/>
			<point x="506" y="408"/>
			<point x="476" y="264" type="curve" smooth="yes"/>
			<point x="445" y="120"/>
			<point x="348" y="35"/>
		</contour>
	</outline>
</glyph>
<glyph name="odieresis" format="2">
	<advance width="574"/>
	<unicode hex="00F6"/>
	<note>
		odieresis
	</note>
	<outline>
		<contour>
			<point x="346" y="543" type="curve" smooth="yes"/>
			<point x="178" y="543"/>
			<point x="63" y="420"/>
			<point x="30" y="264" type="curve" smooth="yes"/>
			<point x="-3" y="109"/>
			<point x="60" y="-14"/>
			<point x="228" y="-14" type="curve" smooth="yes"/>
			<point x="396" y="-14"/>
			<point x="511" y="109"/>
			<point x="544" y="264" type="curve" smooth="yes"/>
			<point x="577" y="420"/>
			<point x="514" y="543"/>
		</contour>
		<contour>
			<point x="238" y="35" type="curve" smooth="yes"/>
			<point x="128" y="35"/>
			<point x="67" y="120"/>
			<point x="98" y="264" type="curve" smooth="yes"/>
			<point x="128" y="408"/>
			<point x="225" y="493"/>
			<point x="335" y="493" type="curve" smooth="yes"/>
			<point x="445" y="493"/>
			<point x="506" y="408"/>
			<point x="476" y="264" type="curve" smooth="yes"/>
			<point x="445" y="120"/>
			<point x="348" y="35"/>
		</contour>
		<contour>
			<point x="279" y="663" type="line"/>
			<point x="264" y="591" type="line"/>
			<point x="336" y="591" type="line"/>
			<point x="351" y="663" type="line"/>
		</contour>
		<contour>
			<point x="393" y="663" type="line"/>
			<point x="378" y="591" type="line"/>
			<point x="450" y="591" type="line"/>
			<point x="465" y="663" type="line"/>
		</contour>
	</outline>
</glyph>
<glyph name="ydieresis" format="2">
	<advance width="492"/>
	<unicode hex="00FF"/>
	<note>
		ydieresis
	</note>
	<outline>
		<contour>
			<point x="211" y="-28" type="curve" smooth="yes"/>
			<point x="541" y="529" type="line"/>
			<point x="473" y="529" type="line"/>
			<point x="200" y="46" type="line"/>
			<point x="132" y="529" type="line"/>
			<point x="62" y="529" type="line"/>
			<point x="154" y="-20" type="line"/>
			<point x="137" y="-48" type="line" smooth="yes"/>
			<point x="86" y="-133"/>
			<point x="44" y="-158"/>
			<point x="-4" y="-158" type="curve" smooth="yes"/>
			<point x="-15" y="-158"/>
			<point x="-25" y="-158"/>
			<point x="-37" y="-156" type="curve"/>
			<point x="-48" y="-207" type="line"/>
			<point x="-37" y="-210"/>
			<point x="-26" y="-210"/>
			<point x="-8" y="-210" type="curve" smooth="yes"/>
			<point x="67" y="-210"/>
			<point x="128" y="-168"/>
		</contour>
		<contour>
			<point x="238" y="667" type="line"/>
			<point x="223" y="595" type="line"/>
			<point x="295" y="595" type="line"/>
			<point x="310" y="667" type="line"/>
		</contour>
		<contour>
			<point x="352" y="667" type="line"/>
			<point x="337" y="595" type="line"/>
			<point x="409" y="595" type="line"/>
			<point x="424" y="667" type="line"/>
		</contour>
	</outline>
</glyph>
<glyph name="Amacron" format="2">
	<advance width="630"/>
	<unicode hex="0100"/>
	<note>
		Amacron
	</note>
	<outline>
		<contour>
			<point x="333" y="763" type="line"/>
			<point x="535" y="763" type="line"/>
			<point x="543" y="803" type="line"/>
			<point x="341" y="803" type="line"/>
		</contour>
		<contour>
			<point x="184" y="253" type="line"/>
			<point x="459" y="253" type="line"/>
			<point x="496" y="0" type="line"/>
			<point x="563" y="0" type="line"/>
			<point x="460" y="690" type="line"/>
			<point x="377" y="690" type="line"/>
			<point x="-24" y="0" type="line"/>
			<point x="42" y="0" type="line"/>
		</contour>
		<contour>
			<point x="453" y="305" type="line"/>
			<point x="214" y="305" type="line"/>
			<point x="407" y="640" type="line"/>
		</contour>
	</outline>
</glyph>
<glyph name="Abreve" format="2">
	<advance width="630"/>
	<unicode hex="0102"/>
	<note>
		Abreve
	</note>
	<outline>
		<contour>
			<point x="425" y="722" type="curve" smooth="yes"/>
			<point x="491" y="722"/>
			<point x="534" y="762"/>
			<point x="548" y="830" type="curve"/>
			<point x="508" y="830" type="line"/>
			<point x="498" y="787"/>
			<point x="469" y="764"/>
			<point x="434" y="764" type="curve" smooth="yes"/>
			<point x="399" y="764"/>
			<point x="380" y="787"/>
			<point x="388" y="830" type="curve"/>
			<point x="348" y="830" type="line"/>
			<point x="334" y="762"/>
			<point x="358" y="722"/>
		</contour>
		<contour>
			<point x="184" y="253" type="line"/>
			<point x="459" y="253" type="line"/>
			<point x="496" y="0" type="line"/>
			<point x="563" y="0" type="line"/>
			<point x="460" y="690" type="line"/>
			<point x="377" y="690" type="line"/>
			<point x="-24" y="0" type="line"/>
			<point x="42" y="0" type="line"/>
		</contour>
		<contour>
			<point x="453" y="305" type="line"/>
			<point x="214" y="305" type="line"/>
			<point x="407" y="640" type="line"/>
		</contour>
	</outline>
</glyph>
<glyph name="cdotaccent" format="2">
	<advance width="525"/>
	<unicode hex="010B"/>
	<note>
		cdotaccent
	</note>
	<outline>
		<contour>
			<point x="357" y="685" type="curve" smooth="yes"/>
			<point x="334" y="685"/>
			<point x="311" y="667"/>
			<point x="306" y="643" type="curve" smooth="yes"/>
			<point x="301" y="620"/>
			<point x="316" y="601"/>
			<point x="339" y="601" type="curve" smooth="yes"/>
			<point x="363" y="601"/>
			<point x="385" y="620"/>
			<point x="390" y="643" type="curve" smooth="yes"/>
			<point x="395" y="667"/>
			<point x="381" y="685"/>
		</contour>
		<contour>
			<point x="335" y="543" type="curve" smooth="yes"/>
			<point x="202" y="543"/>
			<point x="67" y="439"/>
			<point x="30" y="264" type="curve" smooth="yes"/>
			<point x="-10" y="77"/>
			<point x="74" y="-14"/>
			<point x="206" y="-14" type="curve" smooth="yes"/>
			<point x="320" y="-14"/>
			<point x="420" y="48"/>
			<point x="469" y="165" type="curve"/>
			<point x="405" y="165" type="line"/>
			<point x="368" y="80"/>
			<point x="298" y="35"/>
			<point x="220" y="35" type="curve" smooth="yes"/>
			<point x="131" y="35"/>
			<point x="64" y="106"/>
			<point x="99" y="269" type="curve" smooth="yes"/>
			<point x="131" y="422"/>
			<point x="234" y="494"/>
			<point x="323" y="494" type="curve" smooth="yes"/>
			<point x="408" y="494"/>
			<point x="450" y="445"/>
			<point x="449" y="356" type="curve"/>
			<point x="514" y="356" type="line"/>
			<point x="522" y="468"/>
			<point x="457" y="543"/>
		</contour>
	</outline>
</glyph>
<glyph name="dcaron" format="2">
	<advance width="588"/>
	<unicode hex="010F"/>
	<note>
		dcaron
	</note>
	<outline>
		<contour>
			<point x="613" y="735" type="line"/>
			<point x="551" y="735" type="line"/>
			<point x="488" y="438" type="line"/>
			<point x="467" y="495" type="line"/>
			<point x="441" y="527"/>
			<point x="393" y="543"/>
			<point x="341" y="543" type="curve" smooth="yes"/>
			<point x="207" y="543"/>
			<point x="69" y="450"/>
			<point x="29" y="258" type="curve" smooth="yes"/>
			<point x="-5" y="101"/>
			<point x="59" y="-14"/>
			<point x="207" y="-14" type="curve" smooth="yes"/>
			<point x="268" y="-14"/>
			<point x="323" y="3"/>
			<point x="368" y="40" type="curve"/>
			<point x="416" y="98" type="line"/>
			<point x="395" y="0" type="line"/>
			<point x="457" y="0" type="line"/>
		</contour>
		<contour>
			<point x="739" y="726" type="line"/>
			<point x="741" y="735" type="line"/>
			<point x="689" y="735" type="line"/>
			<point x="611" y="599" type="line"/>
			<point x="657" y="599" type="line"/>
		</contour>
		<contour>
			<point x="226" y="35" type="curve" smooth="yes"/>
			<point x="110" y="35"/>
			<point x="71" y="139"/>
			<point x="98" y="266" type="curve" smooth="yes"/>
			<point x="129" y="409"/>
			<point x="224" y="493"/>
			<point x="330" y="493" type="curve" smooth="yes"/>
			<point x="408" y="493"/>
			<point x="489" y="442"/>
			<point x="457" y="292" type="curve" smooth="yes"/>
			<point x="448" y="252" type="line" smooth="yes"/>
			<point x="414" y="92"/>
			<point x="320" y="35"/>
		</contour>
	</outline>
</glyph>
<glyph name="Edotaccent" format="2">
	<advance width="576"/>
	<unicode hex="0116"/>
	<note>
		Edotaccent
	</note>
	<outline>
		<contour>
			<point x="421" y="747" type="curve" smooth="yes"/>
			<point x="441" y="747"/>
			<point x="461" y="763"/>
			<point x="465" y="783" type="curve" smooth="yes"/>
			<point x="469" y="803"/>
			<point x="457" y="819"/>
			<point x="437" y="819" type="curve" smooth="yes"/>
			<point x="417" y="819"/>
			<point x="397" y="803"/>
			<point x="393" y="783" type="curve" smooth="yes"/>
			<point x="389" y="763"/>
			<point x="401" y="747"/>
		</contour>
		<contour>
			<point x="490" y="0" type="line"/>
			<point x="501" y="51" type="line"/>
			<point x="116" y="51" type="line"/>
			<point x="172" y="319" type="line"/>
			<point x="521" y="319" type="line"/>
			<point x="533" y="371" type="line"/>
			<point x="184" y="371" type="line"/>
			<point x="240" y="639" type="line"/>
			<point x="615" y="639" type="line"/>
			<point x="626" y="690" type="line"/>
			<point x="189" y="690" type="line"/>
			<point x="43" y="0" type="line"/>
		</contour>
	</outline>
</glyph>
<glyph name="Eogonek" format="2">
	<advance width="576"/>
	<unicode hex="0118"/>
	<note>
		Eogonek
	</note>
	<outline>
		<contour>
			<point x="359" y="-131" type="curve" smooth="yes"/>
			<point x="372" y="-67"/>
			<point x="429" y="-17"/>
			<point x="491" y="0" type="curve"/>
			<point x="490" y="0" type="line"/>
			<point x="501" y="51" type="line"/>
			<point x="116" y="51" type="line"/>
			<point x="172" y="319" type="line"/>
			<point x="521" y="319" type="line"/>
			<point x="533" y="371" type="line"/>
			<point x="184" y="371" type="line"/>
			<point x="240" y="639" type="line"/>
			<point x="615" y="639" type="line"/>
			<point x="626" y="690" type="line"/>
			<point x="189" y="690" type="line"/>
			<point x="43" y="0" type="line"/>
			<point x="421" y="0" type="line"/>
			<point x="361" y="-29"/>
			<point x="310" y="-79"/>
			<point x="296" y="-144" type="curve" smooth="yes"/>
			<point x="283" y="-204"/>
			<point x="315" y="-223"/>
			<point x="361" y="-223" type="curve" smooth="yes"/>
			<point x="393" y="-223"/>
			<point x="422" y="-215"/>
			<point x="449" y="-197" type="curve"/>
			<point x="457" y="-158" type="line"/>
			<point x="433" y="-175"/>
			<point x="414" y="-182"/>
			<point x="393" y="-182" type="curve" smooth="yes"/>
			<point x="364" y="-182"/>
			<point x="351" y="-168"/>
		</contour>
	</outline>
</glyph>
<glyph name="eogonek" format="2">
	<advance width="539"/>
	<unicode hex="0119"/>
	<note>
		eogonek
	</note>
	<outline>
		<contour>
			<point x="503" y="279" type="curve" smooth="yes"/>
			<point x="534" y="425"/>
			<point x="482" y="543"/>
			<point x="334" y="543" type="curve" smooth="yes"/>
			<point x="195" y="543"/>
			<point x="66" y="434"/>
			<point x="30" y="264" type="curve" smooth="yes"/>
			<point x="-9" y="82"/>
			<point x="71" y="-10"/>
			<point x="198" y="-14" type="curve"/>
			<point x="150" y="-44"/>
			<point x="112" y="-89"/>
			<point x="100" y="-144" type="curve" smooth="yes"/>
			<point x="87" y="-204"/>
			<point x="119" y="-223"/>
			<point x="165" y="-223" type="curve" smooth="yes"/>
			<point x="197" y="-223"/>
			<point x="226" y="-215"/>
			<point x="253" y="-197" type="curve"/>
			<point x="261" y="-158" type="line"/>
			<point x="237" y="-175"/>
			<point x="218" y="-182"/>
			<point x="197" y="-182" type="curve" smooth="yes"/>
			<point x="168" y="-182"/>
			<point x="155" y="-168"/>
			<point x="163" y="-131" type="curve" smooth="yes"/>
			<point x="175" y="-74"/>
			<point x="221" y="-25"/>
			<point x="274" y="-6" type="curve"/>
			<point x="357" y="14"/>
			<point x="432" y="71"/>
			<point x="472" y="167" type="curve"/>
			<point x="407" y="167" type="line"/>
			<point x="370" y="80"/>
			<point x="294" y="35"/>
			<point x="220" y="35" type="curve" smooth="yes"/>
			<point x="134" y="35"/>
			<point x="67" y="90"/>
			<point x="93" y="246" type="curve"/>
			<point x="494" y="246" type="line"/>
			<point x="499" y="262"/>
			<point x="501" y="272"/>
		</contour>
		<contour>
			<point x="321" y="493" type="curve" smooth="yes"/>
			<point x="410" y="493"/>
			<point x="465" y="431"/>
			<point x="443" y="295" type="curve"/>
			<point x="103" y="295" type="line"/>
			<point x="140" y="427"/>
			<point x="234" y="493"/>
		</contour>
	</outline>
</glyph>
<glyph name="Gbreve" format="2">
	<advance width="704"/>
	<unicode hex="011E"/>
	<note>
		Gbreve
	</note>
	<outline>
		<contour>
			<point x="459" y="722" type="curve" smooth="yes"/>
			<point x="525" y="722"/>
			<point x="568" y="762"/>
			<point x="582" y="830" type="curve"/>
			<point x="542" y="830" type="line"/>
			<point x="532" y="787"/>
			<point x="503" y="764"/>
			<point x="468" y="764" type="curve" smooth="yes"/>
			<point x="433" y="764"/>
			<point x="414" y="787"/>
			<point x="422" y="830" type="curve"/>
			<point x="382" y="830" type="line"/>
			<point x="368" y="762"/>
			<point x="392" y="722"/>
		</contour>
		<contour>
			<point x="654" y="323" type="line"/>
			<point x="404" y="323" type="line"/>
			<point x="393" y="272" type="line"/>
			<point x="581" y="272" type="line"/>
			<point x="548" y="116"/>
			<point x="422" y="36"/>
			<point x="312" y="36" type="curve" smooth="yes"/>
			<point x="171" y="36"/>
			<point x="94" y="153"/>
			<point x="135" y="345" type="curve" smooth="yes"/>
			<point x="175" y="533"/>
			<point x="309" y="654"/>
			<point x="454" y="654" type="curve" smooth="yes"/>
			<point x="577" y="654"/>
			<point x="630" y="580"/>
			<point x="629" y="475" type="curve" smooth="yes"/>
			<point x="629" y="465" type="line"/>
			<point x="691" y="465" type="line"/>
			<point x="692" y="475" type="line" smooth="yes"/>
			<point x="700" y="606"/>
			<point x="632" y="704"/>
			<point x="466" y="704" type="curve" smooth="yes"/>
			<point x="275" y="704"/>
			<point x="110" y="554"/>
			<point x="65" y="342" type="curve" smooth="yes"/>
			<point x="21" y="132"/>
			<point x="108" y="-14"/>
			<point x="298" y="-14" type="curve" smooth="yes"/>
			<point x="381" y="-14"/>
			<point x="460" y="16"/>
			<point x="520" y="80" type="curve"/>
			<point x="560" y="142" type="line"/>
			<point x="530" y="0" type="line"/>
			<point x="586" y="0" type="line"/>
		</contour>
	</outline>
</glyph>
<glyph name="Gdotaccent" format="2">
	<advance width="704"/>
	<unicode hex="0120"/>
	<note>
		Gdotaccent
	</note>
	<outline>
		<contour>
			<point x="464" y="747" type="curve" smooth="yes"/>
			<point x="484" y="747"/>
			<point x="504" y="763"/>
			<point x="508" y="783" type="curve" smooth="yes"/>
			<point x="512" y="803"/>
			<point x="500" y="819"/>
			<point x="480" y="819" type="curve" smooth="yes"/>
			<point x="460" y="819"/>
			<point x="440" y="803"/>
			<point x="436" y="783" type="curve" smooth="yes"/>
			<point x="432" y="763"/>
			<point x="444" y="747"/>
		</contour>
		<contour>
			<point x="654" y="323" type="line"/>
			<point x="404" y="323" type="line"/>
			<point x="393" y="272" type="line"/>
			<point x="581" y="272" type="line"/>
			<point x="548" y="116"/>
			<point x="422" y="36"/>
			<point x="312" y="36" type="curve" smooth="yes"/>
			<point x="171" y="36"/>
			<point x="94" y="153"/>
			<point x="135" y="345" type="curve" smooth="yes"/>
			<point x="175" y="533"/>
			<point x="309" y="654"/>
			<point x="454" y="654" type="curve" smooth="yes"/>
			<point x="577" y="654"/>
			<point x="630" y="580"/>
			<point x="629" y="475" type="curve" smooth="yes"/>
			<point x="629" y="465" type="line"/>
			<point x="691" y="465" type="line"/>
			<point x="692" y="475" type="line" smooth="yes"/>
			<point x="700" y="606"/>
			<point x="632" y="704"/>
			<point x="466" y="704" type="curve" smooth="yes"/>
			<point x="275" y="704"/>
			<point x="110" y="554"/>
			<point x="65" y="342" type="curve" smooth="yes"/>
			<point x="21" y="132"/>
			<point x="108" y="-14"/>
			<point x="298" y="-14" type="curve" smooth="yes"/>
			<point x="381" y="-14"/>
			<point x="460" y="16"/>
			<point x="520" y="80" type="curve"/>
			<point x="560" y="142" type="line"/>
			<point x="530" y="0" type="line"/>
			<point x="586" y="0" type="line"/>
		</contour>
	</outline>
</glyph>
<glyph name="hbar" format="2">
	<advance width="583"/>
	<unicode hex="0127"/>
	<note>
		hbar
	</note>
	<outline>
		<contour>
			<point x="537" y="385" type="curve" smooth="yes"/>
			<point x="548" y="482"/>
			<point x="497" y="543"/>
			<point x="384" y="543" type="curve" smooth="yes"/>
			<point x="326" y="543"/>
			<point x="276" y="527"/>
			<point x="224" y="484" type="curve"/>
			<point x="183" y="427" type="line"/>
			<point x="221" y="602" type="line"/>
			<point x="327" y="602" type="line"/>
			<point x="336" y="645" type="line"/>
			<point x="230" y="645" type="line"/>
			<point x="250" y="740" type="line"/>
			<point x="188" y="740" type="line"/>
			<point x="168" y="645" type="line"/>
			<point x="114" y="645" type="line"/>
			<point x="105" y="602" type="line"/>
			<point x="159" y="602" type="line"/>
			<point x="31" y="0" type="line"/>
			<point x="93" y="0" type="line"/>
			<point x="149" y="263" type="line" smooth="yes"/>
			<point x="184" y="428"/>
			<point x="274" y="491"/>
			<point x="362" y="492" type="curve" smooth="yes"/>
			<point x="451" y="493"/>
			<point x="479" y="441"/>
			<point x="471" y="369" type="curve" smooth="yes"/>
			<point x="468" y="342"/>
			<point x="463" y="319"/>
			<point x="457" y="289" type="curve" smooth="yes"/>
			<point x="396" y="0" type="line"/>
			<point x="458" y="0" type="line"/>
			<point x="521" y="296" type="line" smooth="yes"/>
			<point x="530" y="339"/>
			<point x="534" y="358"/>
		</contour>
	</outline>
</glyph>
<glyph name="imacron" format="2">
	<advance width="210"/>
	<unicode hex="012B"/>
	<note>
		imacron
	</note>
	<outline>
		<contour>
			<point x="76" y="610" type="line"/>
			<point x="278" y="610" type="line"/>
			<point x="287" y="650" type="line"/>
			<point x="85" y="650" type="line"/>
		</contour>
		<contour>
			<point x="17" y="0" type="line"/>
			<point x="79" y="0" type="line"/>
			<point x="191" y="529" type="line"/>
			<point x="129" y="529" type="line"/>
		</contour>
	</outline>
</glyph>
<glyph name="Iogonek" format="2">
	<advance width="236"/>
	<unicode hex="012E"/>
	<note>
		Iogonek
	</note>
	<outline>
		<contour>
			<point x="105" y="0" type="line"/>
			<point x="251" y="690" type="line"/>
			<point x="189" y="690" type="line"/>
			<point x="45" y="11" type="line"/>
			<point x="-26" y="-15"/>
			<point x="-89" y="-70"/>
			<point x="-105" y="-144" type="curve" smooth="yes"/>
			<point x="-118" y="-204"/>
			<point x="-86" y="-223"/>
			<point x="-40" y="-223" type="curve" smooth="yes"/>
			<point x="-8" y="-223"/>
			<point x="21" y="-215"/>
			<point x="48" y="-197" type="curve"/>
			<point x="56" y="-158" type="line"/>
			<point x="32" y="-175"/>
			<point x="13" y="-182"/>
			<point x="-8" y="-182" type="curve" smooth="yes"/>
			<point x="-37" y="-182"/>
			<point x="-50" y="-168"/>
			<point x="-42" y="-131" type="curve" smooth="yes"/>
			<point x="-29" y="-67"/>
			<point x="28" y="-17"/>
			<point x="90" y="0" type="curve"/>
		</contour>
	</outline>
</glyph>
<glyph name="Idotaccent" format="2">
	<advance width="236"/>
	<unicode hex="0130"/>
	<note>
		Idotaccent
	</note>
	<outline>
		<contour>
			<point x="247" y="819" type="curve" smooth="yes"/>
			<point x="227" y="819"/>
			<point x="207" y="803"/>
			<point x="203" y="783" type="curve" smooth="yes"/>
			<point x="199" y="763"/>
			<point x="211" y="747"/>
			<point x="231" y="747" type="curve" smooth="yes"/>
			<point x="251" y="747"/>
			<point x="271" y="763"/>
			<point x="275" y="783" type="curve" smooth="yes"/>
			<point x="279" y="803"/>
			<point x="267" y="819"/>
		</contour>
		<contour>
			<point x="43" y="0" type="line"/>
			<point x="105" y="0" type="line"/>
			<point x="251" y="690" type="line"/>
			<point x="189" y="690" type="line"/>
		</contour>
	</outline>
</glyph>
<glyph name="IJ" format="2">
	<advance width="762"/>
	<unicode hex="0132"/>
	<note>
		IJ
	</note>
	<outline>
		<contour>
			<point x="43" y="0" type="line"/>
			<point x="105" y="0" type="line"/>
			<point x="251" y="690" type="line"/>
			<point x="189" y="690" type="line"/>
		</contour>
		<contour>
			<point x="702" y="263" type="curve" smooth="yes"/>
			<point x="792" y="690" type="line"/>
			<point x="730" y="690" type="line"/>
			<point x="639" y="261" type="line" smooth="yes"/>
			<point x="632" y="227"/>
			<point x="627" y="202"/>
			<point x="621" y="181" type="curve" smooth="yes"/>
			<point x="594" y="91"/>
			<point x="536" y="36"/>
			<point x="449" y="36" type="curve" smooth="yes"/>
			<point x="363" y="36"/>
			<point x="318" y="83"/>
			<point x="337" y="194" type="curve" smooth="yes"/>
			<point x="343" y="231" type="line"/>
			<point x="281" y="231" type="line"/>
			<point x="274" y="194" type="line" smooth="yes"/>
			<point x="250" y="61"/>
			<point x="308" y="-14"/>
			<point x="431" y="-14" type="curve" smooth="yes"/>
			<point x="570" y="-14"/>
			<point x="652" y="70"/>
			<point x="681" y="177" type="curve" smooth="yes"/>
			<point x="690" y="210"/>
			<point x="696" y="235"/>
		</contour>
	</outline>
</glyph>
<glyph name="ij" format="2">
	<advance width="414"/>
	<unicode hex="0133"/>
	<note>
		ij
	</note>
	<outline>
		<contour>
			<point x="17" y="0" type="line"/>
			<point x="79" y="0" type="line"/>
			<point x="191" y="529" type="line"/>
			<point x="129" y="529" type="line"/>
		</contour>
		<contour>
			<point x="271" y="-56" type="curve" smooth="yes"/>
			<point x="395" y="529" type="line"/>
			<point x="333" y="529" type="line"/>
			<point x="207" y="-63" type="line" smooth="yes"/>
			<point x="204" y="-78"/>
			<point x="201" y="-91"/>
			<point x="197" y="-105" type="curve" smooth="yes"/>
			<point x="184" y="-149"/>
			<point x="154" y="-163"/>
			<point x="101" y="-156" type="curve"/>
			<point x="90" y="-207" type="line"/>
			<point x="102" y="-210"/>
			<point x="114" y="-210"/>
			<point x="128" y="-210" type="curve" smooth="yes"/>
			<point x="195" y="-210"/>
			<point x="237" y="-178"/>
			<point x="256" y="-116" type="curve" smooth="yes"/>
			<point x="262" y="-98"/>
			<point x="267" y="-76"/>
		</contour>
		<contour>
			<point x="157" y="679" type="line"/>
			<point x="141" y="607" type="line"/>
			<point x="213" y="607" type="line"/>
			<point x="229" y="679" type="line"/>
		</contour>
		<contour>
			<point x="360" y="679" type="line"/>
			<point x="345" y="607" type="line"/>
			<point x="417" y="607" type="line"/>
			<point x="432" y="679" type="line"/>
		</contour>
	</outline>
</glyph>
<glyph name="uni0136" format="2">
	<advance width="588"/>
	<unicode hex="0136"/>
	<note>
		Kcommaaccent
	</note>
	<outline>
		<contour>
			<point x="526" y="0" type="line"/>
			<point x="285" y="354" type="line"/>
			<point x="685" y="690" type="line"/>
			<point x="611" y="690" type="line"/>
			<point x="174" y="324" type="line"/>
			<point x="251" y="690" type="line"/>
			<point x="189" y="690" type="line"/>
			<point x="43" y="0" type="line"/>
			<point x="105" y="0" type="line"/>
			<point x="158" y="252" type="line"/>
			<point x="229" y="313" type="line"/>
			<point x="438" y="0" type="line"/>
		</contour>
		<contour>
			<point x="285" y="-51" type="line"/>
			<point x="233" y="-51" type="line"/>
			<point x="155" y="-187" type="line"/>
			<point x="201" y="-187" type="line"/>
			<point x="283" y="-60" type="line"/>
		</contour>
	</outline>
</glyph>
<glyph name="uni0137" format="2">
	<advance width="498"/>
	<unicode hex="0137"/>
	<note>
		kcommaaccent
	</note>
	<outline>
		<contour>
			<point x="347" y="0" type="line"/>
			<point x="433" y="0" type="line"/>
			<point x="230" y="276" type="line"/>
			<point x="543" y="529" type="line"/>
			<point x="462" y="529" type="line"/>
			<point x="133" y="254" type="line"/>
			<point x="235" y="735" type="line"/>
			<point x="173" y="735" type="line"/>
			<point x="17" y="0" type="line"/>
			<point x="79" y="0" type="line"/>
			<point x="118" y="186" type="line"/>
			<point x="177" y="237" type="line"/>
		</contour>
		<contour>
			<point x="218" y="-51" type="line"/>
			<point x="166" y="-51" type="line"/>
			<point x="88" y="-187" type="line"/>
			<point x="134" y="-187" type="line"/>
			<point x="216" y="-60" type="line"/>
		</contour>
	</outline>
</glyph>
<glyph name="uni013B" format="2">
	<advance width="562"/>
	<unicode hex="013B"/>
	<note>
		Lcommaaccent
	</note>
	<outline>
		<contour>
			<point x="490" y="0" type="line"/>
			<point x="501" y="51" type="line"/>
			<point x="116" y="51" type="line"/>
			<point x="251" y="690" type="line"/>
			<point x="189" y="690" type="line"/>
			<point x="43" y="0" type="line"/>
		</contour>
		<contour>
			<point x="280" y="-51" type="line"/>
			<point x="228" y="-51" type="line"/>
			<point x="150" y="-187" type="line"/>
			<point x="196" y="-187" type="line"/>
			<point x="278" y="-60" type="line"/>
		</contour>
	</outline>
</glyph>
<glyph name="uni013C" format="2">
	<advance width="219"/>
	<unicode hex="013C"/>
	<note>
		lcommaaccent
	</note>
	<outline>
		<contour>
			<point x="104" y="140" type="curve" smooth="yes"/>
			<point x="231" y="735" type="line"/>
			<point x="169" y="735" type="line"/>
			<point x="42" y="138" type="line" smooth="yes"/>
			<point x="35" y="106"/>
			<point x="31" y="85"/>
			<point x="28" y="67" type="curve" smooth="yes"/>
			<point x="19" y="10"/>
			<point x="47" y="-4"/>
			<point x="88" y="-4" type="curve" smooth="yes"/>
			<point x="104" y="-4"/>
			<point x="121" y="-4"/>
			<point x="137" y="-1" type="curve"/>
			<point x="147" y="45" type="line"/>
			<point x="101" y="40"/>
			<point x="88" y="49"/>
			<point x="93" y="83" type="curve" smooth="yes"/>
			<point x="96" y="99"/>
			<point x="100" y="117"/>
		</contour>
		<contour>
			<point x="-4" y="-187" type="line"/>
			<point x="78" y="-60" type="line"/>
			<point x="80" y="-51" type="line"/>
			<point x="28" y="-51" type="line"/>
			<point x="-50" y="-187" type="line"/>
		</contour>
	</outline>
</glyph>
<glyph name="Lcaron" format="2">
	<advance width="562"/>
	<unicode hex="013D"/>
	<note>
		Lcaron
	</note>
	<outline>
		<contour>
			<point x="490" y="0" type="line"/>
			<point x="501" y="51" type="line"/>
			<point x="116" y="51" type="line"/>
			<point x="251" y="690" type="line"/>
			<point x="189" y="690" type="line"/>
			<point x="43" y="0" type="line"/>
		</contour>
	</outline>
</glyph>
<glyph name="Lslash" format="2">
	<advance width="587"/>
	<unicode hex="0141"/>
	<note>
		Lslash
	</note>
	<outline>
		<contour>
			<point x="516" y="0" type="line"/>
			<point x="527" y="51" type="line"/>
			<point x="141" y="51" type="line"/>
			<point x="201" y="334" type="line"/>
			<point x="367" y="422" type="line"/>
			<point x="378" y="473" type="line"/>
			<point x="212" y="385" type="line"/>
			<point x="276" y="690" type="line"/>
			<point x="214" y="690" type="line"/>
			<point x="142" y="348" type="line"/>
			<point x="18" y="283" type="line"/>
			<point x="7" y="232" type="line"/>
			<point x="131" y="297" type="line"/>
			<point x="68" y="0" type="line"/>
		</contour>
	</outline>
</glyph>
<glyph name="uni0145" format="2">
	<advance width="688"/>
	<unicode hex="0145"/>
	<note>
		Ncommaaccent
	</note>
	<outline>
		<contour>
			<point x="461" y="0" type="line"/>
			<point x="556" y="0" type="line"/>
			<point x="701" y="690" type="line"/>
			<point x="640" y="690" type="line"/>
			<point x="565" y="334" type="line" smooth="yes"/>
			<point x="546" y="248"/>
			<point x="526" y="146"/>
			<point x="509" y="60" type="curve"/>
			<point x="283" y="690" type="line"/>
			<point x="189" y="690" type="line"/>
			<point x="43" y="0" type="line"/>
			<point x="105" y="0" type="line"/>
			<point x="180" y="356" type="line" smooth="yes"/>
			<point x="199" y="442"/>
			<point x="220" y="545"/>
			<point x="236" y="630" type="curve"/>
		</contour>
		<contour>
			<point x="236" y="-187" type="line"/>
			<point x="318" y="-60" type="line"/>
			<point x="320" y="-51" type="line"/>
			<point x="268" y="-51" type="line"/>
			<point x="190" y="-187" type="line"/>
		</contour>
	</outline>
</glyph>
<glyph name="uni0146" format="2">
	<advance width="569"/>
	<unicode hex="0146"/>
	<note>
		ncommaaccent
	</note>
	<outline>
		<contour>
			<point x="524" y="385" type="curve" smooth="yes"/>
			<point x="534" y="482"/>
			<point x="483" y="543"/>
			<point x="371" y="543" type="curve" smooth="yes"/>
			<point x="312" y="543"/>
			<point x="262" y="527"/>
			<point x="210" y="484" type="curve"/>
			<point x="169" y="427" type="line"/>
			<point x="191" y="529" type="line"/>
			<point x="129" y="529" type="line"/>
			<point x="17" y="0" type="line"/>
			<point x="79" y="0" type="line"/>
			<point x="135" y="263" type="line" smooth="yes"/>
			<point x="170" y="428"/>
			<point x="260" y="492"/>
			<point x="348" y="492" type="curve" smooth="yes"/>
			<point x="437" y="492"/>
			<point x="466" y="441"/>
			<point x="458" y="369" type="curve" smooth="yes"/>
			<point x="454" y="342"/>
			<point x="449" y="319"/>
			<point x="443" y="289" type="curve" smooth="yes"/>
			<point x="382" y="0" type="line"/>
			<point x="444" y="0" type="line"/>
			<point x="507" y="296" type="line" smooth="yes"/>
			<point x="516" y="339"/>
			<point x="520" y="358"/>
		</contour>
		<contour>
			<point x="245" y="-51" type="line"/>
			<point x="193" y="-51" type="line"/>
			<point x="115" y="-187" type="line"/>
			<point x="161" y="-187" type="line"/>
			<point x="243" y="-60" type="line"/>
		</contour>
	</outline>
</glyph>
<glyph name="Omacron" format="2">
	<advance width="728"/>
	<unicode hex="014C"/>
	<note>
		Omacron
	</note>
	<outline>
		<contour>
			<point x="374" y="763" type="line"/>
			<point x="576" y="763" type="line"/>
			<point x="584" y="803" type="line"/>
			<point x="382" y="803" type="line"/>
		</contour>
		<contour>
			<point x="462" y="704" type="curve" smooth="yes"/>
			<point x="261" y="704"/>
			<point x="111" y="555"/>
			<point x="66" y="345" type="curve" smooth="yes"/>
			<point x="22" y="137"/>
			<point x="109" y="-14"/>
			<point x="310" y="-14" type="curve" smooth="yes"/>
			<point x="512" y="-14"/>
			<point x="663" y="137"/>
			<point x="707" y="345" type="curve" smooth="yes"/>
			<point x="752" y="555"/>
			<point x="664" y="704"/>
		</contour>
		<contour>
			<point x="320" y="36" type="curve" smooth="yes"/>
			<point x="172" y="36"/>
			<point x="94" y="152"/>
			<point x="135" y="345" type="curve" smooth="yes"/>
			<point x="176" y="539"/>
			<point x="304" y="654"/>
			<point x="452" y="654" type="curve" smooth="yes"/>
			<point x="601" y="654"/>
			<point x="679" y="539"/>
			<point x="638" y="345" type="curve" smooth="yes"/>
			<point x="597" y="152"/>
			<point x="469" y="36"/>
		</contour>
	</outline>
</glyph>
<glyph name="Racute" format="2">
	<advance width="601"/>
	<unicode hex="0154"/>
	<note>
		Racute
	</note>
	<outline>
		<contour>
			<point x="390" y="736" type="line"/>
			<point x="432" y="736" type="line"/>
			<point x="524" y="830" type="line"/>
			<point x="464" y="830" type="line"/>
		</contour>
		<contour>
			<point x="514" y="184" type="curve" smooth="yes"/>
			<point x="522" y="256"/>
			<point x="506" y="319"/>
			<point x="453" y="343" type="curve"/>
			<point x="528" y="361"/>
			<point x="598" y="416"/>
			<point x="617" y="507" type="curve" smooth="yes"/>
			<point x="641" y="617"/>
			<point x="585" y="673"/>
			<point x="485" y="686" type="curve" smooth="yes"/>
			<point x="454" y="690"/>
			<point x="427" y="690"/>
			<point x="392" y="690" type="curve" smooth="yes"/>
			<point x="189" y="690" type="line"/>
			<point x="43" y="0" type="line"/>
			<point x="105" y="0" type="line"/>
			<point x="171" y="312" type="line"/>
			<point x="312" y="312" type="line" smooth="yes"/>
			<point x="328" y="312"/>
			<point x="348" y="312"/>
			<point x="366" y="311" type="curve" smooth="yes"/>
			<point x="439" y="307"/>
			<point x="457" y="250"/>
			<point x="450" y="177" type="curve" smooth="yes"/>
			<point x="441" y="87"/>
			<point x="444" y="44"/>
			<point x="452" y="0" type="curve"/>
			<point x="521" y="0" type="line"/>
			<point x="505" y="39"/>
			<point x="504" y="89"/>
		</contour>
		<contour>
			<point x="324" y="364" type="curve" smooth="yes"/>
			<point x="182" y="364" type="line"/>
			<point x="240" y="638" type="line"/>
			<point x="381" y="638" type="line" smooth="yes"/>
			<point x="414" y="638"/>
			<point x="436" y="637"/>
			<point x="459" y="634" type="curve" smooth="yes"/>
			<point x="532" y="623"/>
			<point x="567" y="583"/>
			<point x="549" y="502" type="curve" smooth="yes"/>
			<point x="532" y="421"/>
			<point x="472" y="372"/>
			<point x="394" y="366" type="curve" smooth="yes"/>
			<point x="371" y="364"/>
			<point x="354" y="364"/>
		</contour>
	</outline>
</glyph>
<glyph name="Scedilla" format="2">
	<advance width="576"/>
	<unicode hex="015E"/>
	<note>
		Scedilla
	</note>
	<outline>
		<contour>
			<point x="517" y="178" type="curve" smooth="yes"/>
			<point x="541" y="292"/>
			<point x="479" y="348"/>
			<point x="339" y="386" type="curve" smooth="yes"/>
			<point x="227" y="416"/>
			<point x="185" y="447"/>
			<point x="203" y="531" type="curve" smooth="yes"/>
			<point x="220" y="613"/>
			<point x="302" y="654"/>
			<point x="381" y="654" type="curve" smooth="yes"/>
			<point x="472" y="654"/>
			<point x="520" y="599"/>
			<point x="512" y="505" type="curve"/>
			<point x="577" y="505" type="line"/>
			<point x="588" y="617"/>
			<point x="534" y="704"/>
			<point x="396" y="704" type="curve" smooth="yes"/>
			<point x="274" y="704"/>
			<point x="157" y="630"/>
			<point x="133" y="518" type="curve" smooth="yes"/>
			<point x="109" y="407"/>
			<point x="177" y="361"/>
			<point x="301" y="327" type="curve" smooth="yes"/>
			<point x="423" y="295"/>
			<point x="467" y="257"/>
			<point x="448" y="168" type="curve" smooth="yes"/>
			<point x="431" y="88"/>
			<point x="347" y="36"/>
			<point x="256" y="36" type="curve" smooth="yes"/>
			<point x="157" y="36"/>
			<point x="93" y="91"/>
			<point x="97" y="190" type="curve"/>
			<point x="31" y="190" type="line"/>
			<point x="19" y="68"/>
			<point x="90" y="-2"/>
			<point x="210" y="-13" type="curve"/>
			<point x="164" y="-75" type="line"/>
			<point x="234" y="-70"/>
			<point x="258" y="-90"/>
			<point x="250" y="-126" type="curve" smooth="yes"/>
			<point x="243" y="-158"/>
			<point x="213" y="-176"/>
			<point x="171" y="-176" type="curve" smooth="yes"/>
			<point x="149" y="-176"/>
			<point x="134" y="-173"/>
			<point x="121" y="-165" type="curve"/>
			<point x="113" y="-201" type="line"/>
			<point x="126" y="-207"/>
			<point x="142" y="-210"/>
			<point x="162" y="-210" type="curve" smooth="yes"/>
			<point x="226" y="-210"/>
			<point x="283" y="-182"/>
			<point x="295" y="-125" type="curve" smooth="yes"/>
			<point x="305" y="-77"/>
			<point x="280" y="-50"/>
			<point x="228" y="-44" type="curve"/>
			<point x="252" y="-14" type="line"/>
			<point x="380" y="-11"/>
			<point x="493" y="66"/>
		</contour>
	</outline>
</glyph>
<glyph name="scedilla" format="2">
	<advance width="450"/>
	<unicode hex="015F"/>
	<note>
		scedilla
	</note>
	<outline>
		<contour>
			<point x="389" y="132" type="curve" smooth="yes"/>
			<point x="408" y="221"/>
			<point x="359" y="265"/>
			<point x="243" y="295" type="curve" smooth="yes"/>
			<point x="171" y="314"/>
			<point x="127" y="338"/>
			<point x="139" y="399" type="curve" smooth="yes"/>
			<point x="152" y="457"/>
			<point x="202" y="493"/>
			<point x="266" y="493" type="curve" smooth="yes"/>
			<point x="337" y="493"/>
			<point x="372" y="454"/>
			<point x="372" y="381" type="curve"/>
			<point x="437" y="381" type="line"/>
			<point x="444" y="474"/>
			<point x="397" y="543"/>
			<point x="282" y="543" type="curve" smooth="yes"/>
			<point x="178" y="543"/>
			<point x="93" y="483"/>
			<point x="74" y="392" type="curve" smooth="yes"/>
			<point x="55" y="301"/>
			<point x="122" y="264"/>
			<point x="208" y="240" type="curve" smooth="yes"/>
			<point x="305" y="215"/>
			<point x="337" y="186"/>
			<point x="325" y="127" type="curve" smooth="yes"/>
			<point x="312" y="66"/>
			<point x="250" y="35"/>
			<point x="183" y="35" type="curve" smooth="yes"/>
			<point x="112" y="35"/>
			<point x="62" y="66"/>
			<point x="66" y="156" type="curve"/>
			<point x="2" y="156" type="line"/>
			<point x="-8" y="44"/>
			<point x="54" y="-7"/>
			<point x="149" y="-13" type="curve"/>
			<point x="103" y="-75" type="line"/>
			<point x="173" y="-70"/>
			<point x="197" y="-90"/>
			<point x="189" y="-126" type="curve" smooth="yes"/>
			<point x="182" y="-158"/>
			<point x="152" y="-176"/>
			<point x="110" y="-176" type="curve" smooth="yes"/>
			<point x="88" y="-176"/>
			<point x="73" y="-173"/>
			<point x="60" y="-165" type="curve"/>
			<point x="52" y="-201" type="line"/>
			<point x="65" y="-207"/>
			<point x="81" y="-210"/>
			<point x="101" y="-210" type="curve" smooth="yes"/>
			<point x="165" y="-210"/>
			<point x="222" y="-182"/>
			<point x="234" y="-125" type="curve" smooth="yes"/>
			<point x="244" y="-77"/>
			<point x="219" y="-50"/>
			<point x="167" y="-44" type="curve"/>
			<point x="191" y="-13" type="line"/>
			<point x="290" y="-7"/>
			<point x="370" y="45"/>
		</contour>
	</outline>
</glyph>
<glyph name="uni0163" format="2">
	<advance width="284"/>
	<unicode hex="0163"/>
	<note>
		tcedilla
	</note>
	<outline>
		<contour>
			<point x="127" y="145" type="curve" smooth="yes"/>
			<point x="198" y="477" type="line"/>
			<point x="299" y="477" type="line"/>
			<point x="309" y="525" type="line"/>
			<point x="208" y="525" type="line"/>
			<point x="233" y="642" type="line"/>
			<point x="171" y="642" type="line"/>
			<point x="146" y="525" type="line"/>
			<point x="78" y="525" type="line"/>
			<point x="68" y="477" type="line"/>
			<point x="136" y="477" type="line"/>
			<point x="65" y="144" type="line" smooth="yes"/>
			<point x="59" y="114"/>
			<point x="55" y="94"/>
			<point x="52" y="76" type="curve" smooth="yes"/>
			<point x="47" y="33"/>
			<point x="59" y="7"/>
			<point x="90" y="-3" type="curve"/>
			<point x="37" y="-75" type="line"/>
			<point x="107" y="-70"/>
			<point x="131" y="-90"/>
			<point x="123" y="-126" type="curve" smooth="yes"/>
			<point x="116" y="-158"/>
			<point x="86" y="-176"/>
			<point x="44" y="-176" type="curve" smooth="yes"/>
			<point x="22" y="-176"/>
			<point x="7" y="-173"/>
			<point x="-6" y="-165" type="curve"/>
			<point x="-14" y="-201" type="line"/>
			<point x="-1" y="-207"/>
			<point x="15" y="-210"/>
			<point x="35" y="-210" type="curve" smooth="yes"/>
			<point x="99" y="-210"/>
			<point x="156" y="-182"/>
			<point x="168" y="-125" type="curve" smooth="yes"/>
			<point x="178" y="-77"/>
			<point x="153" y="-50"/>
			<point x="101" y="-44" type="curve"/>
			<point x="129" y="-8" type="line"/>
			<point x="150" y="-8"/>
			<point x="172" y="-7"/>
			<point x="194" y="-3" type="curve"/>
			<point x="204" y="43" type="line"/>
			<point x="131" y="34"/>
			<point x="112" y="47"/>
			<point x="119" y="98" type="curve" smooth="yes"/>
			<point x="120" y="112"/>
			<point x="123" y="123"/>
		</contour>
	</outline>
</glyph>
<glyph name="Tcaron" format="2">
	<advance width="600"/>
	<unicode hex="0164"/>
	<note>
		Tcaron
	</note>
	<outline>
		<contour>
			<point x="349" y="830" type="line"/>
			<point x="395" y="736" type="line"/>
			<point x="440" y="736" type="line"/>
			<point x="527" y="830" type="line"/>
			<point x="477" y="830" type="line"/>
			<point x="424" y="764" type="line"/>
			<point x="399" y="830" type="line"/>
		</contour>
		<contour>
			<point x="427" y="639" type="line"/>
			<point x="680" y="639" type="line"/>
			<point x="691" y="690" type="line"/>
			<point x="123" y="690" type="line"/>
			<point x="112" y="639" type="line"/>
			<point x="365" y="639" type="line"/>
			<point x="230" y="0" type="line"/>
			<point x="292" y="0" type="line"/>
		</contour>
	</outline>
</glyph>
<glyph name="Uring" format="2">
	<advance width="651"/>
	<unicode hex="016E"/>
	<note>
		Uring
	</note>
	<outline>
		<contour>
			<point x="465" y="863" type="curve" smooth="yes"/>
			<point x="419" y="863"/>
			<point x="379" y="834"/>
			<point x="370" y="791" type="curve" smooth="yes"/>
			<point x="361" y="748"/>
			<point x="388" y="718"/>
			<point x="434" y="718" type="curve" smooth="yes"/>
			<point x="480" y="718"/>
			<point x="522" y="748"/>
			<point x="531" y="791" type="curve" smooth="yes"/>
			<point x="540" y="834"/>
			<point x="511" y="863"/>
		</contour>
		<contour>
			<point x="459" y="832" type="curve" smooth="yes"/>
			<point x="483" y="832"/>
			<point x="495" y="814"/>
			<point x="490" y="791" type="curve" smooth="yes"/>
			<point x="485" y="767"/>
			<point x="465" y="749"/>
			<point x="441" y="749" type="curve" smooth="yes"/>
			<point x="417" y="749"/>
			<point x="405" y="767"/>
			<point x="410" y="791" type="curve" smooth="yes"/>
			<point x="415" y="814"/>
			<point x="435" y="832"/>
		</contour>
		<contour>
			<point x="579" y="247" type="curve" smooth="yes"/>
			<point x="673" y="690" type="line"/>
			<point x="611" y="690" type="line"/>
			<point x="518" y="250" type="line" smooth="yes"/>
			<point x="513" y="228"/>
			<point x="508" y="208"/>
			<point x="502" y="189" type="curve" smooth="yes"/>
			<point x="475" y="102"/>
			<point x="404" y="36"/>
			<point x="289" y="36" type="curve" smooth="yes"/>
			<point x="173" y="36"/>
			<point x="130" y="102"/>
			<point x="141" y="189" type="curve" smooth="yes"/>
			<point x="143" y="208"/>
			<point x="147" y="228"/>
			<point x="152" y="250" type="curve" smooth="yes"/>
			<point x="245" y="690" type="line"/>
			<point x="183" y="690" type="line"/>
			<point x="89" y="247" type="line" smooth="yes"/>
			<point x="85" y="227"/>
			<point x="81" y="207"/>
			<point x="78" y="183" type="curve" smooth="yes"/>
			<point x="63" y="71"/>
			<point x="121" y="-14"/>
			<point x="279" y="-14" type="curve" smooth="yes"/>
			<point x="436" y="-14"/>
			<point x="531" y="71"/>
			<point x="563" y="183" type="curve" smooth="yes"/>
			<point x="570" y="207"/>
			<point x="575" y="227"/>
		</contour>
	</outline>
</glyph>
<glyph name="uring" format="2">
	<advance width="567"/>
	<unicode hex="016F"/>
	<note>
		uring
	</note>
	<outline>
		<contour>
			<point x="342" y="568" type="curve" smooth="yes"/>
			<point x="388" y="568"/>
			<point x="429" y="599"/>
			<point x="438" y="643" type="curve" smooth="yes"/>
			<point x="448" y="688"/>
			<point x="421" y="719"/>
			<point x="375" y="719" type="curve" smooth="yes"/>
			<point x="329" y="719"/>
			<point x="288" y="688"/>
			<point x="278" y="643" type="curve" smooth="yes"/>
			<point x="269" y="599"/>
			<point x="296" y="568"/>
		</contour>
		<contour>
			<point x="368" y="689" type="curve" smooth="yes"/>
			<point x="392" y="689"/>
			<point x="404" y="670"/>
			<point x="398" y="643" type="curve" smooth="yes"/>
			<point x="393" y="616"/>
			<point x="373" y="598"/>
			<point x="349" y="598" type="curve" smooth="yes"/>
			<point x="325" y="598"/>
			<point x="313" y="616"/>
			<point x="318" y="643" type="curve" smooth="yes"/>
			<point x="324" y="670"/>
			<point x="344" y="689"/>
		</contour>
		<contour>
			<point x="436" y="0" type="line"/>
			<point x="548" y="529" type="line"/>
			<point x="486" y="529" type="line"/>
			<point x="430" y="266" type="line" smooth="yes"/>
			<point x="395" y="100"/>
			<point x="306" y="36"/>
			<point x="218" y="36" type="curve" smooth="yes"/>
			<point x="136" y="36"/>
			<point x="101" y="85"/>
			<point x="108" y="155" type="curve" smooth="yes"/>
			<point x="110" y="182"/>
			<point x="115" y="209"/>
			<point x="120" y="234" type="curve" smooth="yes"/>
			<point x="183" y="529" type="line"/>
			<point x="121" y="529" type="line"/>
			<point x="55" y="220" type="line" smooth="yes"/>
			<point x="46" y="177"/>
			<point x="43" y="158"/>
			<point x="41" y="131" type="curve" smooth="yes"/>
			<point x="35" y="47"/>
			<point x="86" y="-14"/>
			<point x="194" y="-14" type="curve" smooth="yes"/>
			<point x="252" y="-14"/>
			<point x="303" y="2"/>
			<point x="354" y="43" type="curve"/>
			<point x="395" y="102" type="line"/>
			<point x="374" y="0" type="line"/>
		</contour>
	</outline>
</glyph>
<glyph name="Ycircumflex" format="2">
	<advance width="568"/>
	<unicode hex="0176"/>
	<note>
		Ycircumflex
	</note>
	<outline>
		<contour>
			<point x="308" y="736" type="line"/>
			<point x="357" y="736" type="line"/>
			<point x="410" y="802" type="line"/>
			<point x="435" y="736" type="line"/>
			<point x="486" y="736" type="line"/>
			<point x="439" y="830" type="line"/>
			<point x="394" y="830" type="line"/>
		</contour>
		<contour>
			<point x="271" y="0" type="line"/>
			<point x="329" y="276" type="line"/>
			<point x="662" y="690" type="line"/>
			<point x="591" y="690" type="line"/>
			<point x="314" y="336" type="line"/>
			<point x="182" y="690" type="line"/>
			<point x="111" y="690" type="line"/>
			<point x="267" y="275" type="line"/>
			<point x="209" y="0" type="line"/>
		</contour>
	</outline>
</glyph>
<glyph name="Zacute" format="2">
	<advance width="571"/>
	<unicode hex="0179"/>
	<note>
		Zacute
	</note>
	<outline>
		<contour>
			<point x="369" y="736" type="line"/>
			<point x="411" y="736" type="line"/>
			<point x="503" y="830" type="line"/>
			<point x="443" y="830" type="line"/>
		</contour>
		<contour>
			<point x="492" y="0" type="line"/>
			<point x="503" y="52" type="line"/>
			<point x="71" y="52" type="line"/>
			<point x="621" y="639" type="line"/>
			<point x="632" y="690" type="line"/>
			<point x="160" y="690" type="line"/>
			<point x="149" y="638" type="line"/>
			<point x="549" y="638" type="line"/>
			<point x="-4" y="48" type="line"/>
			<point x="-14" y="0" type="line"/>
		</contour>
	</outline>
</glyph>
<glyph name="zcaron" format="2">
	<advance width="455"/>
	<unicode hex="017E"/>
	<note>
		zcaron
	</note>
	<outline>
		<contour>
			<point x="229" y="690" type="line"/>
			<point x="272" y="580" type="line"/>
			<point x="317" y="580" type="line"/>
			<point x="407" y="690" type="line"/>
			<point x="359" y="690" type="line"/>
			<point x="302" y="615" type="line"/>
			<point x="278" y="690" type="line"/>
		</contour>
		<contour>
			<point x="373" y="0" type="line"/>
			<point x="383" y="50" type="line"/>
			<point x="46" y="50" type="line"/>
			<point x="469" y="472" type="line"/>
			<point x="480" y="523" type="line"/>
			<point x="96" y="523" type="line"/>
			<point x="85" y="473" type="line"/>
			<point x="395" y="473" type="line"/>
			<point x="-29" y="48" type="line"/>
			<point x="-39" y="0" type="line"/>
		</contour>
	</outline>
</glyph>
<glyph name="uni021A" format="2">
	<advance width="600"/>
	<unicode hex="021A"/>
	<note>
		uni021A
	</note>
	<outline>
		<contour>
			<point x="680" y="639" type="line"/>
			<point x="691" y="690" type="line"/>
			<point x="123" y="690" type="line"/>
			<point x="112" y="639" type="line"/>
			<point x="365" y="639" type="line"/>
			<point x="230" y="0" type="line"/>
			<point x="292" y="0" type="line"/>
			<point x="427" y="639" type="line"/>
		</contour>
		<contour>
			<point x="282" y="-51" type="line"/>
			<point x="230" y="-51" type="line"/>
			<point x="152" y="-187" type="line"/>
			<point x="198" y="-187" type="line"/>
			<point x="280" y="-60" type="line"/>
		</contour>
	</outline>
</glyph>
<glyph name="uni021B" format="2">
	<advance width="284"/>
	<unicode hex="021B"/>
	<note>
		uni021B
	</note>
	<outline>
		<contour>
			<point x="127" y="145" type="curve" smooth="yes"/>
			<point x="198" y="477" type="line"/>
			<point x="299" y="477" type="line"/>
			<point x="309" y="525" type="line"/>
			<point x="208" y="525" type="line"/>
			<point x="233" y="642" type="line"/>
			<point x="171" y="642" type="line"/>
			<point x="146" y="525" type="line"/>
			<point x="78" y="525" type="line"/>
			<point x="68" y="477" type="line"/>
			<point x="136" y="477" type="line"/>
			<point x="65" y="144" type="line" smooth="yes"/>
			<point x="59" y="114"/>
			<point x="55" y="94"/>
			<point x="52" y="76" type="curve" smooth="yes"/>
			<point x="44" y="18"/>
			<point x="70" y="-8"/>
			<point x="129" y="-8" type="curve" smooth="yes"/>
			<point x="150" y="-8"/>
			<point x="172" y="-7"/>
			<point x="194" y="-3" type="curve"/>
			<point x="204" y="43" type="line"/>
			<point x="131" y="34"/>
			<point x="112" y="47"/>
			<point x="119" y="98" type="curve" smooth="yes"/>
			<point x="120" y="112"/>
			<point x="123" y="123"/>
		</contour>
		<contour>
			<point x="129" y="-51" type="line"/>
			<point x="77" y="-51" type="line"/>
			<point x="-1" y="-187" type="line"/>
			<point x="45" y="-187" type="line"/>
			<point x="127" y="-60" type="line"/>
		</contour>
	</outline>
</glyph>
<glyph name="circumflex" format="2">
	<advance width="300"/>
	<unicode hex="02C6"/>
	<note>
		circumflex
	</note>
	<outline>
		<contour>
			<point x="233" y="655" type="line"/>
			<point x="258" y="580" type="line"/>
			<point x="307" y="580" type="line"/>
			<point x="263" y="690" type="line"/>
			<point x="218" y="690" type="line"/>
			<point x="129" y="580" type="line"/>
			<point x="177" y="580" type="line"/>
		</contour>
	</outline>
</glyph>
<glyph name="caron" format="2">
	<advance width="300"/>
	<unicode hex="02C7"/>
	<note>
		caron
	</note>
	<outline>
		<contour>
			<point x="240" y="580" type="line"/>
			<point x="330" y="690" type="line"/>
			<point x="282" y="690" type="line"/>
			<point x="225" y="615" type="line"/>
			<point x="201" y="690" type="line"/>
			<point x="152" y="690" type="line"/>
			<point x="195" y="580" type="line"/>
		</contour>
	</outline>
</glyph>
<glyph name="breve" format="2">
	<advance width="300"/>
	<unicode hex="02D8"/>
	<note>
		breve
	</note>
	<outline>
		<contour>
			<point x="338" y="690" type="curve"/>
			<point x="298" y="690" type="line"/>
			<point x="285" y="634"/>
			<point x="258" y="610"/>
			<point x="223" y="610" type="curve" smooth="yes"/>
			<point x="188" y="610"/>
			<point x="171" y="634"/>
			<point x="182" y="690" type="curve"/>
			<point x="142" y="690" type="line"/>
			<point x="126" y="611"/>
			<point x="146" y="568"/>
			<point x="214" y="568" type="curve" smooth="yes"/>
			<point x="281" y="568"/>
			<point x="322" y="611"/>
		</contour>
	</outline>
</glyph>
<glyph name="tilde" format="2">
	<advance width="300"/>
	<unicode hex="02DC"/>
	<note>
		tilde
	</note>
	<outline>
		<contour>
			<point x="183" y="671" type="curve" smooth="yes"/>
			<point x="154" y="671"/>
			<point x="134" y="656"/>
			<point x="125" y="611" type="curve"/>
			<point x="156" y="611" type="line"/>
			<point x="159" y="626"/>
			<point x="166" y="632"/>
			<point x="176" y="632" type="curve" smooth="yes"/>
			<point x="185" y="632"/>
			<point x="196" y="628"/>
			<point x="218" y="620" type="curve" smooth="yes"/>
			<point x="244" y="611"/>
			<point x="258" y="607"/>
			<point x="276" y="607" type="curve" smooth="yes"/>
			<point x="305" y="607"/>
			<point x="325" y="622"/>
			<point x="334" y="667" type="curve"/>
			<point x="303" y="667" type="line"/>
			<point x="300" y="652"/>
			<point x="293" y="647"/>
			<point x="283" y="647" type="curve" smooth="yes"/>
			<point x="274" y="647"/>
			<point x="263" y="650"/>
			<point x="241" y="658" type="curve" smooth="yes"/>
			<point x="215" y="667"/>
			<point x="201" y="671"/>
		</contour>
	</outline>
</glyph>
<glyph name="hungarumlaut" format="2">
	<advance width="300"/>
	<unicode hex="02DD"/>
	<note>
		hungarumlaut
	</note>
	<outline>
		<contour>
			<point x="137" y="580" type="line"/>
			<point x="179" y="580" type="line"/>
			<point x="281" y="690" type="line"/>
			<point x="220" y="690" type="line"/>
		</contour>
		<contour>
			<point x="251" y="580" type="line"/>
			<point x="293" y="580" type="line"/>
			<point x="395" y="690" type="line"/>
			<point x="334" y="690" type="line"/>
		</contour>
	</outline>
</glyph>
<glyph name="uni0326" format="2">
	<advance width="0"/>
	<unicode hex="0326"/>
	<note>
		uni0326
	</note>
	<outline>
		<contour>
			<point x="31" y="-187" type="line"/>
			<point x="113" y="-60" type="line"/>
			<point x="115" y="-51" type="line"/>
			<point x="63" y="-51" type="line"/>
			<point x="-15" y="-187" type="line"/>
		</contour>
	</outline>
</glyph>
<glyph name="uni1B00" format="2">
	<advance width="1344"/>
	<unicode hex="1B00"/>
	<outline>
		<contour>
			<point x="503" y="279" type="curve" smooth="yes"/>
			<point x="534" y="425"/>
			<point x="482" y="543"/>
			<point x="334" y="543" type="curve" smooth="yes"/>
			<point x="195" y="543"/>
			<point x="66" y="434"/>
			<point x="30" y="264" type="curve" smooth="yes"/>
			<point x="-10" y="78"/>
			<point x="74" y="-14"/>
			<point x="206" y="-14" type="curve" smooth="yes"/>
			<point x="312" y="-14"/>
			<point x="421" y="44"/>
			<point x="472" y="167" type="curve"/>
			<point x="407" y="167" type="line"/>
			<point x="370" y="80"/>
			<point x="294" y="35"/>
			<point x="220" y="35" type="curve" smooth="yes"/>
			<point x="134" y="35"/>
			<point x="67" y="90"/>
			<point x="93" y="246" type="curve"/>
			<point x="494" y="246" type="line"/>
			<point x="499" y="262"/>
			<point x="501" y="272"/>
		</contour>
		<contour>
			<point x="103" y="295" type="line"/>
			<point x="140" y="427"/>
			<point x="234" y="493"/>
			<point x="321" y="493" type="curve" smooth="yes"/>
			<point x="410" y="493"/>
			<point x="465" y="431"/>
			<point x="443" y="295" type="curve"/>
		</contour>
		<contour>
			<point x="241" y="610" type="line"/>
			<point x="443" y="610" type="line"/>
			<point x="452" y="650" type="line"/>
			<point x="250" y="650" type="line"/>
		</contour>
		<contour>
			<point x="607" y="477" type="line"/>
			<point x="675" y="477" type="line"/>
			<point x="604" y="144" type="line" smooth="yes"/>
			<point x="598" y="114"/>
			<point x="594" y="94"/>
			<point x="591" y="76" type="curve" smooth="yes"/>
			<point x="583" y="18"/>
			<point x="609" y="-8"/>
			<point x="668" y="-8" type="curve" smooth="yes"/>
			<point x="689" y="-8"/>
			<point x="711" y="-7"/>
			<point x="733" y="-3" type="curve"/>
			<point x="743" y="43" type="line"/>
			<point x="670" y="34"/>
			<point x="651" y="47"/>
			<point x="658" y="98" type="curve" smooth="yes"/>
			<point x="659" y="112"/>
			<point x="662" y="123"/>
			<point x="666" y="145" type="curve" smooth="yes"/>
			<point x="737" y="477" type="line"/>
			<point x="1299" y="477" type="line"/>
			<point x="1304" y="493"/>
			<point x="1307" y="503"/>
			<point x="1308" y="510" type="curve" smooth="yes"/>
			<point x="1339" y="656"/>
			<point x="1287" y="774"/>
			<point x="1139" y="774" type="curve" smooth="yes"/>
			<point x="1009" y="774"/>
			<point x="887" y="678"/>
			<point x="842" y="525" type="curve"/>
			<point x="747" y="525" type="line"/>
			<point x="772" y="642" type="line"/>
			<point x="710" y="642" type="line"/>
			<point x="685" y="525" type="line"/>
			<point x="617" y="525" type="line"/>
		</contour>
		<contour>
			<point x="908" y="525" type="line"/>
			<point x="945" y="657"/>
			<point x="1039" y="723"/>
			<point x="1126" y="723" type="curve" smooth="yes"/>
			<point x="1215" y="723"/>
			<point x="1270" y="661"/>
			<point x="1248" y="525" type="curve"/>
		</contour>
	</outline>
</glyph>
<glyph name="Wdieresis" format="2">
	<advance width="904"/>
	<unicode hex="1E84"/>
	<note>
		Wdieresis
	</note>
	<outline>
		<contour>
			<point x="655" y="0" type="line"/>
			<point x="990" y="690" type="line"/>
			<point x="925" y="690" type="line"/>
			<point x="629" y="56" type="line"/>
			<point x="594" y="680" type="line"/>
			<point x="511" y="680" type="line"/>
			<point x="205" y="56" type="line"/>
			<point x="186" y="690" type="line"/>
			<point x="116" y="690" type="line"/>
			<point x="149" y="0" type="line"/>
			<point x="231" y="0" type="line"/>
			<point x="538" y="618" type="line"/>
			<point x="574" y="0" type="line"/>
		</contour>
		<contour>
			<point x="481" y="819" type="line"/>
			<point x="466" y="747" type="line"/>
			<point x="538" y="747" type="line"/>
			<point x="553" y="819" type="line"/>
		</contour>
		<contour>
			<point x="595" y="819" type="line"/>
			<point x="580" y="747" type="line"/>
			<point x="652" y="747" type="line"/>
			<point x="667" y="819" type="line"/>
		</contour>
	</outline>
</glyph>
<glyph name="wdieresis" format="2">
	<advance width="759"/>
	<unicode hex="1E85"/>
	<note>
		wdieresis
	</note>
	<outline>
		<contour>
			<point x="529" y="0" type="line"/>
			<point x="808" y="529" type="line"/>
			<point x="742" y="529" type="line"/>
			<point x="508" y="62" type="line"/>
			<point x="477" y="528" type="line"/>
			<point x="398" y="528" type="line"/>
			<point x="169" y="57" type="line"/>
			<point x="133" y="529" type="line"/>
			<point x="62" y="529" type="line"/>
			<point x="118" y="0" type="line"/>
			<point x="194" y="0" type="line"/>
			<point x="423" y="466" type="line"/>
			<point x="454" y="0" type="line"/>
		</contour>
		<contour>
			<point x="373" y="664" type="line"/>
			<point x="357" y="592" type="line"/>
			<point x="429" y="592" type="line"/>
			<point x="445" y="664" type="line"/>
		</contour>
		<contour>
			<point x="487" y="664" type="line"/>
			<point x="471" y="592" type="line"/>
			<point x="543" y="592" type="line"/>
			<point x="559" y="664" type="line"/>
		</contour>
	</outline>
</glyph>
<glyph name="quoteleft" format="2">
	<advance width="197"/>
	<unicode hex="2018"/>
	<note>
		quoteleft
	</note>
	<outline>
		<contour>
			<point x="226" y="735" type="line"/>
			<point x="88" y="495" type="line"/>
			<point x="86" y="487" type="line"/>
			<point x="153" y="487" type="line"/>
			<point x="281" y="735" type="line"/>
		</contour>
	</outline>
</glyph>
<glyph name="quoteright" format="2">
	<advance width="197"/>
	<unicode hex="2019"/>
	<note>
		quoteright
	</note>
	<outline>
		<contour>
			<point x="119" y="487" type="line"/>
			<point x="256" y="727" type="line"/>
			<point x="258" y="735" type="line"/>
			<point x="191" y="735" type="line"/>
			<point x="63" y="487" type="line"/>
		</contour>
	</outline>
</glyph>
<glyph name="quotedblleft" format="2">
	<advance width="337"/>
	<unicode hex="201C"/>
	<note>
		quotedblleft
	</note>
	<outline>
		<contour>
			<point x="225" y="735" type="line"/>
			<point x="88" y="495" type="line"/>
			<point x="86" y="487" type="line"/>
			<point x="153" y="487" type="line"/>
			<point x="281" y="735" type="line"/>
		</contour>
		<contour>
			<point x="365" y="735" type="line"/>
			<point x="228" y="495" type="line"/>
			<point x="226" y="487" type="line"/>
			<point x="293" y="487" type="line"/>
			<point x="421" y="735" type="line"/>
		</contour>
	</outline>
</glyph>
<glyph name="dagger" format="2">
	<advance width="550"/>
	<unicode hex="2020"/>
	<note>
		dagger
	</note>
	<outline>
		<contour>
			<point x="331" y="390" type="line"/>
			<point x="513" y="385" type="line"/>
			<point x="525" y="442" type="line"/>
			<point x="341" y="437" type="line"/>
			<point x="402" y="690" type="line"/>
			<point x="328" y="690" type="line"/>
			<point x="283" y="437" type="line"/>
			<point x="102" y="442" type="line"/>
			<point x="90" y="385" type="line"/>
			<point x="273" y="390" type="line"/>
			<point x="149" y="-160" type="line"/>
			<point x="222" y="-160" type="line"/>
		</contour>
	</outline>
</glyph>
<glyph name="guilsinglleft" format="2">
	<advance width="385"/>
	<unicode hex="2039"/>
	<note>
		guilsinglleft
	</note>
	<outline>
		<contour>
			<point x="180" y="248" type="line"/>
			<point x="353" y="414" type="line"/>
			<point x="296" y="414" type="line"/>
			<point x="123" y="248" type="line"/>
			<point x="225" y="82" type="line"/>
			<point x="282" y="82" type="line"/>
		</contour>
	</outline>
</glyph>
<glyph name="guilsinglright" format="2">
	<advance width="385"/>
	<unicode hex="203A"/>
	<note>
		guilsinglright
	</note>
	<outline>
		<contour>
			<point x="82" y="82" type="line"/>
			<point x="254" y="248" type="line"/>
			<point x="153" y="414" type="line"/>
			<point x="97" y="414" type="line"/>
			<point x="198" y="248" type="line"/>
			<point x="26" y="82" type="line"/>
		</contour>
	</outline>
</glyph>
<glyph name="Euro" format="2">
	<advance width="561"/>
	<unicode hex="20AC"/>
	<note>
		Euro
	</note>
	<outline>
		<contour>
			<point x="159" y="268" type="curve"/>
			<point x="447" y="268" type="line"/>
			<point x="465" y="310" type="line"/>
			<point x="165" y="310" type="line"/>
			<point x="166" y="322"/>
			<point x="169" y="334"/>
			<point x="171" y="346" type="curve" smooth="yes"/>
			<point x="179" y="378" type="line"/>
			<point x="495" y="378" type="line"/>
			<point x="515" y="420" type="line"/>
			<point x="191" y="420" type="line"/>
			<point x="248" y="592"/>
			<point x="351" y="654"/>
			<point x="455" y="654" type="curve" smooth="yes"/>
			<point x="509" y="654"/>
			<point x="549" y="638"/>
			<point x="576" y="601" type="curve"/>
			<point x="617" y="643" type="line"/>
			<point x="587" y="685"/>
			<point x="539" y="704"/>
			<point x="467" y="704" type="curve" smooth="yes"/>
			<point x="317" y="704"/>
			<point x="186" y="614"/>
			<point x="122" y="420" type="curve"/>
			<point x="81" y="420" type="line"/>
			<point x="62" y="378" type="line"/>
			<point x="110" y="378" type="line"/>
			<point x="106" y="366"/>
			<point x="104" y="354"/>
			<point x="101" y="342" type="curve" smooth="yes"/>
			<point x="96" y="310" type="line"/>
			<point x="37" y="310" type="line"/>
			<point x="18" y="268" type="line"/>
			<point x="89" y="268" type="line"/>
			<point x="64" y="63"/>
			<point x="148" y="-14"/>
			<point x="307" y="-14" type="curve" smooth="yes"/>
			<point x="358" y="-14"/>
			<point x="409" y="-5"/>
			<point x="464" y="23" type="curve"/>
			<point x="475" y="76" type="line"/>
			<point x="425" y="48"/>
			<point x="376" y="36"/>
			<point x="322" y="36" type="curve" smooth="yes"/>
			<point x="200" y="36"/>
			<point x="141" y="105"/>
		</contour>
	</outline>
</glyph>
<glyph name="trademark" format="2">
	<advance width="531"/>
	<unicode hex="2122"/>
	<note>
		trademark
	</note>
	<outline>
		<contour>
			<point x="294" y="627" type="line"/>
			<point x="301" y="660" type="line"/>
			<point x="106" y="660" type="line"/>
			<point x="99" y="627" type="line"/>
			<point x="176" y="627" type="line"/>
			<point x="140" y="456" type="line"/>
			<point x="180" y="456" type="line"/>
			<point x="216" y="627" type="line"/>
		</contour>
		<contour>
			<point x="505" y="456" type="line"/>
			<point x="548" y="659" type="line"/>
			<point x="491" y="659" type="line"/>
			<point x="402" y="493" type="line"/>
			<point x="384" y="659" type="line"/>
			<point x="326" y="659" type="line"/>
			<point x="283" y="456" type="line"/>
			<point x="321" y="456" type="line"/>
			<point x="353" y="613" type="line"/>
			<point x="373" y="459" type="line"/>
			<point x="414" y="459" type="line"/>
			<point x="501" y="614" type="line"/>
			<point x="466" y="456" type="line"/>
		</contour>
	</outline>
</glyph>
<glyph name="emptyset" format="2">
	<advance width="838"/>
	<unicode hex="2205"/>
	<note>
		emptyset
	</note>
	<outline>
		<contour>
			<point x="776" y="608" type="curve"/>
			<point x="874" y="689" type="line"/>
			<point x="850" y="720" type="line"/>
			<point x="751" y="639" type="line"/>
			<point x="697" y="700"/>
			<point x="617" y="737"/>
			<point x="519" y="737" type="curve" smooth="yes"/>
			<point x="310" y="737"/>
			<point x="108" y="569"/>
			<point x="62" y="355" type="curve" smooth="yes"/>
			<point x="42" y="258"/>
			<point x="58" y="170"/>
			<point x="102" y="103" type="curve"/>
			<point x="2" y="21" type="line"/>
			<point x="27" y="-10" type="line"/>
			<point x="125" y="71" type="line"/>
			<point x="179" y="10"/>
			<point x="259" y="-27"/>
			<point x="357" y="-27" type="curve" smooth="yes"/>
			<point x="566" y="-27"/>
			<point x="769" y="142"/>
			<point x="814" y="355" type="curve" smooth="yes"/>
			<point x="835" y="453"/>
			<point x="819" y="541"/>
		</contour>
		<contour>
			<point x="110" y="355" type="curve" smooth="yes"/>
			<point x="150" y="543"/>
			<point x="328" y="693"/>
			<point x="510" y="693" type="curve" smooth="yes"/>
			<point x="595" y="693"/>
			<point x="665" y="660"/>
			<point x="711" y="606" type="curve"/>
			<point x="140" y="135" type="line"/>
			<point x="105" y="194"/>
			<point x="92" y="271"/>
		</contour>
		<contour>
			<point x="366" y="17" type="curve" smooth="yes"/>
			<point x="281" y="17"/>
			<point x="211" y="50"/>
			<point x="165" y="104" type="curve"/>
			<point x="736" y="574" type="line"/>
			<point x="771" y="516"/>
			<point x="784" y="439"/>
			<point x="766" y="355" type="curve" smooth="yes"/>
			<point x="726" y="166"/>
			<point x="549" y="17"/>
		</contour>
	</outline>
</glyph>
<glyph name="summation" format="2">
	<advance width="561"/>
	<unicode hex="2211"/>
	<note>
		summation
	</note>
	<outline>
		<contour>
			<point x="441" y="-110" type="line"/>
			<point x="452" y="-58" type="line"/>
			<point x="42" y="-58" type="line"/>
			<point x="399" y="300" type="line"/>
			<point x="221" y="638" type="line"/>
			<point x="594" y="638" type="line"/>
			<point x="605" y="690" type="line"/>
			<point x="160" y="690" type="line"/>
			<point x="150" y="640" type="line"/>
			<point x="328" y="301" type="line"/>
			<point x="-29" y="-60" type="line"/>
			<point x="-40" y="-110" type="line"/>
		</contour>
	</outline>
</glyph>
<glyph name="radical" format="2">
	<advance width="561"/>
	<unicode hex="221A"/>
	<note>
		radical
	</note>
	<outline>
		<contour>
			<point x="222" y="-160" type="line"/>
			<point x="637" y="780" type="line"/>
			<point x="589" y="780" type="line"/>
			<point x="203" y="-106" type="line"/>
			<point x="170" y="310" type="line"/>
			<point x="69" y="310" type="line"/>
			<point x="59" y="267" type="line"/>
			<point x="126" y="267" type="line"/>
			<point x="164" y="-160" type="line"/>
		</contour>
	</outline>
</glyph>
<glyph name="approxequal" format="2">
	<advance width="561"/>
	<unicode hex="2248"/>
	<note>
		approxequal
	</note>
	<outline>
		<contour>
			<point x="214" y="439" type="curve" smooth="yes"/>
			<point x="163" y="439"/>
			<point x="122" y="417"/>
			<point x="81" y="367" type="curve"/>
			<point x="108" y="339" type="line"/>
			<point x="140" y="377"/>
			<point x="165" y="393"/>
			<point x="201" y="393" type="curve" smooth="yes"/>
			<point x="231" y="393"/>
			<point x="253" y="381"/>
			<point x="290" y="359" type="curve" smooth="yes"/>
			<point x="335" y="332"/>
			<point x="357" y="319"/>
			<point x="394" y="319" type="curve" smooth="yes"/>
			<point x="447" y="319"/>
			<point x="488" y="344"/>
			<point x="529" y="394" type="curve"/>
			<point x="502" y="419" type="line"/>
			<point x="470" y="381"/>
			<point x="445" y="365"/>
			<point x="408" y="365" type="curve" smooth="yes"/>
			<point x="378" y="365"/>
			<point x="357" y="377"/>
			<point x="320" y="400" type="curve" smooth="yes"/>
			<point x="274" y="427"/>
			<point x="252" y="439"/>
		</contour>
		<contour>
			<point x="178" y="272" type="curve" smooth="yes"/>
			<point x="127" y="272"/>
			<point x="87" y="250"/>
			<point x="45" y="199" type="curve"/>
			<point x="72" y="172" type="line"/>
			<point x="104" y="210"/>
			<point x="130" y="226"/>
			<point x="166" y="226" type="curve" smooth="yes"/>
			<point x="196" y="226"/>
			<point x="217" y="214"/>
			<point x="254" y="191" type="curve" smooth="yes"/>
			<point x="300" y="164"/>
			<point x="322" y="152"/>
			<point x="359" y="152" type="curve" smooth="yes"/>
			<point x="412" y="152"/>
			<point x="452" y="176"/>
			<point x="494" y="227" type="curve"/>
			<point x="466" y="252" type="line"/>
			<point x="434" y="214"/>
			<point x="410" y="198"/>
			<point x="373" y="198" type="curve" smooth="yes"/>
			<point x="343" y="198"/>
			<point x="321" y="210"/>
			<point x="284" y="232" type="curve" smooth="yes"/>
			<point x="239" y="259"/>
			<point x="216" y="272"/>
		</contour>
	</outline>
</glyph>
<glyph name="lessequal" format="2">
	<advance width="561"/>
	<unicode hex="2264"/>
	<note>
		lessequal
	</note>
	<outline>
		<contour>
			<point x="138" y="295" type="line"/>
			<point x="534" y="442" type="line"/>
			<point x="544" y="493" type="line"/>
			<point x="95" y="321" type="line"/>
			<point x="84" y="271" type="line"/>
			<point x="461" y="98" type="line"/>
			<point x="472" y="151" type="line"/>
		</contour>
		<contour>
			<point x="449" y="43" type="line"/>
			<point x="36" y="43" type="line"/>
			<point x="27" y="0" type="line"/>
			<point x="440" y="0" type="line"/>
		</contour>
	</outline>
</glyph>
<glyph name="greaterequal" format="2">
	<advance width="561"/>
	<unicode hex="2265"/>
	<note>
		greaterequal
	</note>
	<outline>
		<contour>
			<point x="479" y="271" type="line"/>
			<point x="490" y="321" type="line"/>
			<point x="114" y="493" type="line"/>
			<point x="103" y="440" type="line"/>
			<point x="436" y="296" type="line"/>
			<point x="42" y="150" type="line"/>
			<point x="31" y="98" type="line"/>
		</contour>
		<contour>
			<point x="431" y="43" type="line"/>
			<point x="19" y="43" type="line"/>
			<point x="10" y="0" type="line"/>
			<point x="422" y="0" type="line"/>
		</contour>
	</outline>
</glyph>
<glyph name="fl" format="2">
	<advance width="460"/>
	<unicode hex="FB02"/>
	<note>
		fl
	</note>
	<outline>
		<contour>
			<point x="334" y="83" type="curve" smooth="yes"/>
			<point x="337" y="99"/>
			<point x="341" y="117"/>
			<point x="345" y="140" type="curve" smooth="yes"/>
			<point x="472" y="735" type="line"/>
			<point x="443" y="748"/>
			<point x="403" y="754"/>
			<point x="352" y="754" type="curve" smooth="yes"/>
			<point x="244" y="754"/>
			<point x="174" y="699"/>
			<point x="145" y="610" type="curve" smooth="yes"/>
			<point x="139" y="591"/>
			<point x="134" y="568"/>
			<point x="131" y="550" type="curve" smooth="yes"/>
			<point x="125" y="525" type="line"/>
			<point x="78" y="525" type="line"/>
			<point x="68" y="475" type="line"/>
			<point x="115" y="475" type="line"/>
			<point x="14" y="0" type="line"/>
			<point x="76" y="0" type="line"/>
			<point x="177" y="475" type="line"/>
			<point x="285" y="475" type="line"/>
			<point x="295" y="525" type="line"/>
			<point x="187" y="525" type="line"/>
			<point x="194" y="555" type="line" smooth="yes"/>
			<point x="197" y="570"/>
			<point x="201" y="590"/>
			<point x="207" y="607" type="curve" smooth="yes"/>
			<point x="224" y="660"/>
			<point x="266" y="705"/>
			<point x="340" y="705" type="curve" smooth="yes"/>
			<point x="365" y="705"/>
			<point x="385" y="703"/>
			<point x="402" y="697" type="curve"/>
			<point x="283" y="138" type="line" smooth="yes"/>
			<point x="276" y="106"/>
			<point x="272" y="85"/>
			<point x="269" y="67" type="curve" smooth="yes"/>
			<point x="260" y="10"/>
			<point x="287" y="-4"/>
			<point x="329" y="-4" type="curve" smooth="yes"/>
			<point x="345" y="-4"/>
			<point x="362" y="-4"/>
			<point x="378" y="-1" type="curve"/>
			<point x="388" y="45" type="line"/>
			<point x="342" y="40"/>
			<point x="329" y="49"/>
		</contour>
	</outline>
</glyph>
<glyph name="A_O" format="2">
	<advance width="1138"/>
	<unicode hex="F1030"/>
	<outline>
		<contour>
			<point x="184" y="253" type="line"/>
			<point x="465" y="253" type="line"/>
			<point x="461" y="94"/>
			<point x="550" y="-14"/>
			<point x="720" y="-14" type="curve" smooth="yes"/>
			<point x="922" y="-14"/>
			<point x="1073" y="137"/>
			<point x="1117" y="345" type="curve" smooth="yes"/>
			<point x="1162" y="555"/>
			<point x="1074" y="704"/>
			<point x="872" y="704" type="curve" smooth="yes"/>
			<point x="696" y="704"/>
			<point x="558" y="589"/>
			<point x="497" y="419" type="curve"/>
			<point x="460" y="690" type="line"/>
			<point x="377" y="690" type="line"/>
			<point x="-24" y="0" type="line"/>
			<point x="42" y="0" type="line"/>
		</contour>
		<contour>
			<point x="214" y="305" type="line"/>
			<point x="407" y="640" type="line"/>
			<point x="453" y="305" type="line"/>
		</contour>
		<contour>
			<point x="545" y="345" type="curve" smooth="yes"/>
			<point x="586" y="539"/>
			<point x="714" y="654"/>
			<point x="862" y="654" type="curve" smooth="yes"/>
			<point x="1011" y="654"/>
			<point x="1089" y="539"/>
			<point x="1048" y="345" type="curve" smooth="yes"/>
			<point x="1007" y="152"/>
			<point x="879" y="36"/>
			<point x="730" y="36" type="curve" smooth="yes"/>
			<point x="582" y="36"/>
			<point x="504" y="152"/>
		</contour>
	</outline>
</glyph>
<glyph name="C_Q" format="2">
	<advance width="1243"/>
	<unicode hex="F1440"/>
	<outline>
		<contour>
			<point x="463" y="704" type="curve" smooth="yes"/>
			<point x="274" y="704"/>
			<point x="110" y="554"/>
			<point x="65" y="342" type="curve" smooth="yes"/>
			<point x="21" y="132"/>
			<point x="108" y="-14"/>
			<point x="297" y="-14" type="curve" smooth="yes"/>
			<point x="431" y="-14"/>
			<point x="531" y="47"/>
			<point x="589" y="132" type="curve"/>
			<point x="622" y="41"/>
			<point x="703" y="-14"/>
			<point x="827" y="-14" type="curve" smooth="yes"/>
			<point x="854" y="-14"/>
			<point x="876" y="-12"/>
			<point x="899" y="-7" type="curve" smooth="yes"/>
			<point x="928" y="-1"/>
			<point x="946" y="2"/>
			<point x="972" y="2" type="curve" smooth="yes"/>
			<point x="1013" y="2"/>
			<point x="1045" y="-8"/>
			<point x="1098" y="-52" type="curve"/>
			<point x="1143" y="-9" type="line"/>
			<point x="1107" y="28"/>
			<point x="1071" y="50"/>
			<point x="1022" y="55" type="curve"/>
			<point x="1135" y="121"/>
			<point x="1199" y="229"/>
			<point x="1224" y="345" type="curve" smooth="yes"/>
			<point x="1269" y="555"/>
			<point x="1181" y="704"/>
			<point x="979" y="704" type="curve" smooth="yes"/>
			<point x="859" y="704"/>
			<point x="756" y="649"/>
			<point x="684" y="560" type="curve"/>
			<point x="664" y="646"/>
			<point x="591" y="704"/>
		</contour>
		<contour>
			<point x="135" y="345" type="curve" smooth="yes"/>
			<point x="175" y="533"/>
			<point x="308" y="654"/>
			<point x="450" y="654" type="curve" smooth="yes"/>
			<point x="573" y="654"/>
			<point x="626" y="580"/>
			<point x="625" y="475" type="curve" smooth="yes"/>
			<point x="625" y="465" type="line"/>
			<point x="687" y="465" type="line"/>
			<point x="746" y="584"/>
			<point x="855" y="654"/>
			<point x="969" y="654" type="curve" smooth="yes"/>
			<point x="1118" y="654"/>
			<point x="1196" y="539"/>
			<point x="1155" y="345" type="curve" smooth="yes"/>
			<point x="1114" y="152"/>
			<point x="986" y="36"/>
			<point x="837" y="36" type="curve" smooth="yes"/>
			<point x="720" y="36"/>
			<point x="639" y="103"/>
			<point x="633" y="229" type="curve"/>
			<point x="571" y="229" type="line"/>
			<point x="567" y="219" type="line" smooth="yes"/>
			<point x="524" y="113"/>
			<point x="439" y="36"/>
			<point x="311" y="36" type="curve" smooth="yes"/>
			<point x="171" y="36"/>
			<point x="94" y="153"/>
		</contour>
	</outline>
</glyph>
<glyph name="c_h" format="2">
	<advance width="928"/>
	<unicode hex="F1510"/>
	<outline>
		<contour>
			<point x="335" y="543" type="curve" smooth="yes"/>
			<point x="202" y="543"/>
			<point x="67" y="439"/>
			<point x="30" y="264" type="curve" smooth="yes"/>
			<point x="-10" y="77"/>
			<point x="74" y="-14"/>
			<point x="206" y="-14" type="curve" smooth="yes"/>
			<point x="320" y="-14"/>
			<point x="420" y="48"/>
			<point x="469" y="165" type="curve"/>
			<point x="405" y="165" type="line"/>
			<point x="368" y="80"/>
			<point x="298" y="35"/>
			<point x="220" y="35" type="curve" smooth="yes"/>
			<point x="131" y="35"/>
			<point x="64" y="106"/>
			<point x="99" y="269" type="curve" smooth="yes"/>
			<point x="131" y="422"/>
			<point x="234" y="494"/>
			<point x="323" y="494" type="curve" smooth="yes"/>
			<point x="408" y="494"/>
			<point x="450" y="445"/>
			<point x="449" y="356" type="curve"/>
			<point x="514" y="356" type="line"/>
			<point x="522" y="367"/>
			<point x="619" y="491"/>
			<point x="707" y="492" type="curve" smooth="yes"/>
			<point x="796" y="493"/>
			<point x="825" y="441"/>
			<point x="817" y="369" type="curve" smooth="yes"/>
			<point x="813" y="342"/>
			<point x="808" y="319"/>
			<point x="802" y="289" type="curve" smooth="yes"/>
			<point x="741" y="0" type="line"/>
			<point x="803" y="0" type="line"/>
			<point x="866" y="296" type="line" smooth="yes"/>
			<point x="875" y="339"/>
			<point x="879" y="358"/>
			<point x="883" y="385" type="curve" smooth="yes"/>
			<point x="893" y="482"/>
			<point x="842" y="543"/>
			<point x="730" y="543" type="curve" smooth="yes"/>
			<point x="671" y="543"/>
			<point x="621" y="527"/>
			<point x="569" y="484" type="curve"/>
			<point x="528" y="427" type="line"/>
			<point x="595" y="740" type="line"/>
			<point x="533" y="740" type="line"/>
			<point x="478" y="487" type="line"/>
			<point x="447" y="522"/>
			<point x="399" y="543"/>
		</contour>
	</outline>
</glyph>
<glyph name="c_q" format="2">
	<advance width="975"/>
	<unicode hex="F1540"/>
	<outline>
		<contour>
			<point x="335" y="543" type="curve" smooth="yes"/>
			<point x="202" y="543"/>
			<point x="67" y="439"/>
			<point x="30" y="264" type="curve" smooth="yes"/>
			<point x="-10" y="77"/>
			<point x="74" y="-14"/>
			<point x="206" y="-14" type="curve" smooth="yes"/>
			<point x="290" y="-14"/>
			<point x="367" y="20"/>
			<point x="421" y="86" type="curve"/>
			<point x="448" y="23"/>
			<point x="506" y="-14"/>
			<point x="593" y="-14" type="curve" smooth="yes"/>
			<point x="654" y="-14"/>
			<point x="709" y="3"/>
			<point x="754" y="40" type="curve"/>
			<point x="802" y="98" type="line"/>
			<point x="739" y="-196" type="line"/>
			<point x="801" y="-196" type="line"/>
			<point x="956" y="532" type="line"/>
			<point x="894" y="532" type="line"/>
			<point x="874" y="438" type="line"/>
			<point x="853" y="495" type="line"/>
			<point x="827" y="527"/>
			<point x="779" y="543"/>
			<point x="727" y="543" type="curve" smooth="yes"/>
			<point x="647" y="543"/>
			<point x="566" y="508"/>
			<point x="505" y="439" type="curve"/>
			<point x="482" y="504"/>
			<point x="424" y="543"/>
		</contour>
		<contour>
			<point x="99" y="269" type="curve" smooth="yes"/>
			<point x="131" y="422"/>
			<point x="234" y="494"/>
			<point x="323" y="494" type="curve" smooth="yes"/>
			<point x="408" y="494"/>
			<point x="450" y="445"/>
			<point x="449" y="356" type="curve"/>
			<point x="514" y="356" type="line"/>
			<point x="559" y="441"/>
			<point x="636" y="493"/>
			<point x="716" y="493" type="curve" smooth="yes"/>
			<point x="794" y="493"/>
			<point x="875" y="442"/>
			<point x="843" y="292" type="curve" smooth="yes"/>
			<point x="834" y="252" type="line" smooth="yes"/>
			<point x="800" y="92"/>
			<point x="706" y="35"/>
			<point x="612" y="35" type="curve" smooth="yes"/>
			<point x="528" y="35"/>
			<point x="476" y="86"/>
			<point x="469" y="165" type="curve"/>
			<point x="405" y="165" type="line"/>
			<point x="368" y="80"/>
			<point x="298" y="35"/>
			<point x="220" y="35" type="curve" smooth="yes"/>
			<point x="131" y="35"/>
			<point x="64" y="106"/>
		</contour>
	</outline>
</glyph>
<glyph name="d_e" format="2">
	<advance width="960"/>
	<unicode hex="F1710"/>
	<outline>
		<contour>
			<point x="457" y="0" type="line"/>
			<point x="509" y="246" type="line"/>
			<point x="510" y="246" type="line"/>
			<point x="915" y="246" type="line"/>
			<point x="920" y="262"/>
			<point x="922" y="272"/>
			<point x="924" y="279" type="curve" smooth="yes"/>
			<point x="955" y="425"/>
			<point x="903" y="543"/>
			<point x="755" y="543" type="curve" smooth="yes"/>
			<point x="681" y="543"/>
			<point x="610" y="512"/>
			<point x="554" y="457" type="curve"/>
			<point x="613" y="735" type="line"/>
			<point x="551" y="735" type="line"/>
			<point x="488" y="438" type="line"/>
			<point x="467" y="495" type="line"/>
			<point x="441" y="527"/>
			<point x="393" y="543"/>
			<point x="341" y="543" type="curve" smooth="yes"/>
			<point x="207" y="543"/>
			<point x="69" y="450"/>
			<point x="29" y="258" type="curve" smooth="yes"/>
			<point x="-5" y="101"/>
			<point x="59" y="-14"/>
			<point x="207" y="-14" type="curve" smooth="yes"/>
			<point x="268" y="-14"/>
			<point x="323" y="3"/>
			<point x="368" y="40" type="curve"/>
			<point x="416" y="98" type="line"/>
			<point x="395" y="0" type="line"/>
		</contour>
		<contour>
			<point x="98" y="266" type="curve" smooth="yes"/>
			<point x="129" y="409"/>
			<point x="224" y="493"/>
			<point x="330" y="493" type="curve" smooth="yes"/>
			<point x="408" y="493"/>
			<point x="489" y="442"/>
			<point x="457" y="292" type="curve" smooth="yes"/>
			<point x="448" y="252" type="line" smooth="yes"/>
			<point x="414" y="92"/>
			<point x="320" y="35"/>
			<point x="226" y="35" type="curve" smooth="yes"/>
			<point x="110" y="35"/>
			<point x="71" y="139"/>
		</contour>
		<contour>
			<point x="524" y="295" type="line"/>
			<point x="561" y="427"/>
			<point x="655" y="493"/>
			<point x="742" y="493" type="curve" smooth="yes"/>
			<point x="831" y="493"/>
			<point x="886" y="431"/>
			<point x="864" y="295" type="curve"/>
		</contour>
	</outline>
</glyph>
<glyph name="E_A" format="2">
	<advance width="884"/>
	<unicode hex="F1810"/>
	<outline>
		<contour>
			<point x="490" y="0" type="line"/>
			<point x="501" y="51" type="line"/>
			<point x="116" y="51" type="line"/>
			<point x="172" y="319" type="line"/>
			<point x="713" y="319" type="line"/>
			<point x="750" y="66" type="line"/>
			<point x="817" y="66" type="line"/>
			<point x="714" y="756" type="line"/>
			<point x="631" y="756" type="line"/>
			<point x="593" y="690" type="line"/>
			<point x="189" y="690" type="line"/>
			<point x="43" y="0" type="line"/>
		</contour>
		<contour>
			<point x="184" y="371" type="line"/>
			<point x="240" y="639" type="line"/>
			<point x="563" y="639" type="line"/>
			<point x="408" y="371" type="line"/>
		</contour>
		<contour>
			<point x="468" y="371" type="line"/>
			<point x="661" y="706" type="line"/>
			<point x="707" y="371" type="line"/>
		</contour>
	</outline>
</glyph>
<glyph name="Eacute_E" format="2">
	<advance width="889"/>
	<unicode hex="F1820"/>
	<outline>
		<contour>
			<point x="394" y="736" type="line"/>
			<point x="436" y="736" type="line"/>
			<point x="528" y="830" type="line"/>
			<point x="468" y="830" type="line"/>
		</contour>
		<contour>
			<point x="43" y="0" type="line"/>
			<point x="803" y="0" type="line"/>
			<point x="814" y="51" type="line"/>
			<point x="429" y="51" type="line"/>
			<point x="485" y="319" type="line"/>
			<point x="834" y="319" type="line"/>
			<point x="846" y="371" type="line"/>
			<point x="497" y="371" type="line"/>
			<point x="553" y="639" type="line"/>
			<point x="928" y="639" type="line"/>
			<point x="939" y="690" type="line"/>
			<point x="189" y="690" type="line"/>
		</contour>
		<contour>
			<point x="116" y="51" type="line"/>
			<point x="172" y="319" type="line"/>
			<point x="423" y="319" type="line"/>
			<point x="367" y="51" type="line"/>
		</contour>
		<contour>
			<point x="184" y="371" type="line"/>
			<point x="240" y="639" type="line"/>
			<point x="491" y="639" type="line"/>
			<point x="435" y="371" type="line"/>
		</contour>
	</outline>
</glyph>
<glyph name="E_U" format="2">
	<advance width="958"/>
	<unicode hex="F18A0"/>
	<outline>
		<contour>
			<point x="886" y="247" type="curve" smooth="yes"/>
			<point x="980" y="690" type="line"/>
			<point x="918" y="690" type="line"/>
			<point x="825" y="250" type="line" smooth="yes"/>
			<point x="820" y="228"/>
			<point x="815" y="208"/>
			<point x="809" y="189" type="curve" smooth="yes"/>
			<point x="782" y="102"/>
			<point x="711" y="36"/>
			<point x="596" y="36" type="curve" smooth="yes"/>
			<point x="480" y="36"/>
			<point x="437" y="102"/>
			<point x="448" y="189" type="curve" smooth="yes"/>
			<point x="450" y="208"/>
			<point x="454" y="228"/>
			<point x="459" y="250" type="curve" smooth="yes"/>
			<point x="485" y="371" type="line"/>
			<point x="184" y="371" type="line"/>
			<point x="240" y="639" type="line"/>
			<point x="615" y="639" type="line"/>
			<point x="626" y="690" type="line"/>
			<point x="189" y="690" type="line"/>
			<point x="43" y="0" type="line"/>
			<point x="489" y="0" type="line"/>
			<point x="515" y="-9"/>
			<point x="548" y="-14"/>
			<point x="586" y="-14" type="curve" smooth="yes"/>
			<point x="743" y="-14"/>
			<point x="838" y="71"/>
			<point x="870" y="183" type="curve" smooth="yes"/>
			<point x="877" y="207"/>
			<point x="882" y="227"/>
		</contour>
		<contour>
			<point x="116" y="51" type="line"/>
			<point x="172" y="319" type="line"/>
			<point x="411" y="319" type="line"/>
			<point x="396" y="247" type="line" smooth="yes"/>
			<point x="392" y="227"/>
			<point x="388" y="207"/>
			<point x="385" y="183" type="curve" smooth="yes"/>
			<point x="378" y="131"/>
			<point x="386" y="85"/>
			<point x="413" y="51" type="curve"/>
		</contour>
	</outline>
</glyph>
<glyph name="eacute_e" format="2">
	<advance width="946"/>
	<unicode hex="F1920"/>
	<outline>
		<contour>
			<point x="310" y="580" type="line"/>
			<point x="352" y="580" type="line"/>
			<point x="454" y="690" type="line"/>
			<point x="394" y="690" type="line"/>
		</contour>
		<contour>
			<point x="30" y="264" type="curve" smooth="yes"/>
			<point x="-10" y="78"/>
			<point x="74" y="-14"/>
			<point x="206" y="-14" type="curve" smooth="yes"/>
			<point x="312" y="-14"/>
			<point x="421" y="44"/>
			<point x="472" y="167" type="curve"/>
			<point x="407" y="167" type="line"/>
			<point x="370" y="80"/>
			<point x="294" y="35"/>
			<point x="220" y="35" type="curve" smooth="yes"/>
			<point x="134" y="35"/>
			<point x="67" y="90"/>
			<point x="93" y="246" type="curve"/>
			<point x="901" y="246" type="line"/>
			<point x="906" y="262"/>
			<point x="908" y="272"/>
			<point x="910" y="279" type="curve" smooth="yes"/>
			<point x="941" y="425"/>
			<point x="889" y="543"/>
			<point x="741" y="543" type="curve" smooth="yes"/>
			<point x="650" y="543"/>
			<point x="564" y="497"/>
			<point x="505" y="417" type="curve"/>
			<point x="486" y="493"/>
			<point x="431" y="543"/>
			<point x="334" y="543" type="curve" smooth="yes"/>
			<point x="195" y="543"/>
			<point x="66" y="434"/>
		</contour>
		<contour>
			<point x="103" y="295" type="line"/>
			<point x="140" y="427"/>
			<point x="234" y="493"/>
			<point x="321" y="493" type="curve" smooth="yes"/>
			<point x="410" y="493"/>
			<point x="465" y="431"/>
			<point x="443" y="295" type="curve"/>
		</contour>
		<contour>
			<point x="510" y="295" type="line"/>
			<point x="547" y="427"/>
			<point x="641" y="493"/>
			<point x="728" y="493" type="curve" smooth="yes"/>
			<point x="817" y="493"/>
			<point x="872" y="431"/>
			<point x="850" y="295" type="curve"/>
		</contour>
	</outline>
</glyph>
<glyph name="E_T_E" format="2">
	<advance width="1272"/>
	<unicode hex="F1A00"/>
	<outline>
		<contour>
			<point x="490" y="0" type="line"/>
			<point x="501" y="51" type="line"/>
			<point x="116" y="51" type="line"/>
			<point x="172" y="319" type="line"/>
			<point x="521" y="319" type="line"/>
			<point x="533" y="371" type="line"/>
			<point x="184" y="371" type="line"/>
			<point x="240" y="639" type="line"/>
			<point x="615" y="639" type="line"/>
			<point x="626" y="690" type="line"/>
			<point x="189" y="690" type="line"/>
			<point x="43" y="0" type="line"/>
		</contour>
		<contour>
			<point x="688" y="639" type="line"/>
			<point x="941" y="639" type="line"/>
			<point x="738" y="-318" type="line"/>
			<point x="1185" y="-318" type="line"/>
			<point x="1196" y="-267" type="line"/>
			<point x="811" y="-267" type="line"/>
			<point x="868" y="1" type="line"/>
			<point x="1217" y="1" type="line"/>
			<point x="1228" y="53" type="line"/>
			<point x="879" y="53" type="line"/>
			<point x="936" y="321" type="line"/>
			<point x="1311" y="321" type="line"/>
			<point x="1322" y="372" type="line"/>
			<point x="947" y="372" type="line"/>
			<point x="1003" y="639" type="line"/>
			<point x="1256" y="639" type="line"/>
			<point x="1267" y="690" type="line"/>
			<point x="699" y="690" type="line"/>
		</contour>
		<contour>
			<point x="324" y="763" type="line"/>
			<point x="526" y="763" type="line"/>
			<point x="534" y="803" type="line"/>
			<point x="332" y="803" type="line"/>
		</contour>
	</outline>
</glyph>
<glyph name="F_F_E" format="2">
	<advance width="1316"/>
	<unicode hex="F2030"/>
	<outline>
		<contour>
			<point x="184" y="371" type="line"/>
			<point x="240" y="639" type="line"/>
			<point x="615" y="639" type="line"/>
			<point x="480" y="0" type="line"/>
			<point x="542" y="0" type="line"/>
			<point x="609" y="319" type="line"/>
			<point x="850" y="319" type="line"/>
			<point x="783" y="0" type="line"/>
			<point x="1230" y="0" type="line"/>
			<point x="1241" y="51" type="line"/>
			<point x="856" y="51" type="line"/>
			<point x="912" y="319" type="line"/>
			<point x="1261" y="319" type="line"/>
			<point x="1273" y="371" type="line"/>
			<point x="924" y="371" type="line"/>
			<point x="980" y="639" type="line"/>
			<point x="1355" y="639" type="line"/>
			<point x="1366" y="690" type="line"/>
			<point x="189" y="690" type="line"/>
			<point x="43" y="0" type="line"/>
			<point x="105" y="0" type="line"/>
			<point x="172" y="319" type="line"/>
			<point x="511" y="319" type="line"/>
			<point x="523" y="371" type="line"/>
		</contour>
		<contour>
			<point x="621" y="371" type="line"/>
			<point x="677" y="639" type="line"/>
			<point x="918" y="639" type="line"/>
			<point x="862" y="371" type="line"/>
		</contour>
	</outline>
</glyph>
<glyph name="F_V" format="2">
	<advance width="1046"/>
	<unicode hex="F2050"/>
	<outline>
		<contour>
			<point x="184" y="371" type="line"/>
			<point x="240" y="639" type="line"/>
			<point x="567" y="639" type="line"/>
			<point x="662" y="0" type="line"/>
			<point x="745" y="0" type="line"/>
			<point x="1147" y="690" type="line"/>
			<point x="1080" y="690" type="line"/>
			<point x="715" y="48" type="line"/>
			<point x="626" y="690" type="line"/>
			<point x="189" y="690" type="line"/>
			<point x="43" y="0" type="line"/>
			<point x="105" y="0" type="line"/>
			<point x="172" y="319" type="line"/>
			<point x="511" y="319" type="line"/>
			<point x="523" y="371" type="line"/>
		</contour>
	</outline>
</glyph>
<glyph name="i_e" format="2">
	<advance width="582"/>
	<unicode hex="F2710"/>
	<outline>
		<contour>
			<point x="17" y="0" type="line"/>
			<point x="79" y="0" type="line"/>
			<point x="131" y="246" type="line"/>
			<point x="537" y="246" type="line"/>
			<point x="542" y="262"/>
			<point x="544" y="272"/>
			<point x="546" y="279" type="curve" smooth="yes"/>
			<point x="577" y="425"/>
			<point x="525" y="543"/>
			<point x="377" y="543" type="curve" smooth="yes"/>
			<point x="303" y="543"/>
			<point x="232" y="512"/>
			<point x="176" y="457" type="curve"/>
			<point x="191" y="529" type="line"/>
			<point x="129" y="529" type="line"/>
		</contour>
		<contour>
			<point x="140" y="605" type="line"/>
			<point x="212" y="605" type="line"/>
			<point x="228" y="677" type="line"/>
			<point x="156" y="677" type="line"/>
		</contour>
		<contour>
			<point x="146" y="295" type="line"/>
			<point x="183" y="427"/>
			<point x="277" y="493"/>
			<point x="364" y="493" type="curve" smooth="yes"/>
			<point x="453" y="493"/>
			<point x="508" y="431"/>
			<point x="486" y="295" type="curve"/>
		</contour>
	</outline>
</glyph>
<glyph name="L_L_E" format="2">
	<advance width="1104"/>
	<unicode hex="F3230"/>
	<outline>
		<contour>
			<point x="433" y="51" type="line"/>
			<point x="568" y="690" type="line"/>
			<point x="506" y="690" type="line"/>
			<point x="439" y="372" type="line"/>
			<point x="116" y="372" type="line"/>
			<point x="223" y="905" type="line"/>
			<point x="161" y="905" type="line"/>
			<point x="43" y="321" type="line"/>
			<point x="428" y="321" type="line"/>
			<point x="360" y="0" type="line"/>
			<point x="1018" y="0" type="line"/>
			<point x="1029" y="51" type="line"/>
			<point x="644" y="51" type="line"/>
			<point x="700" y="319" type="line"/>
			<point x="1049" y="319" type="line"/>
			<point x="1061" y="371" type="line"/>
			<point x="712" y="371" type="line"/>
			<point x="768" y="639" type="line"/>
			<point x="1143" y="639" type="line"/>
			<point x="1154" y="690" type="line"/>
			<point x="717" y="690" type="line"/>
			<point x="582" y="51" type="line"/>
		</contour>
	</outline>
</glyph>
<glyph name="L_U" format="2">
	<advance width="1005"/>
	<unicode hex="F3250"/>
	<outline>
		<contour>
			<point x="933" y="31" type="curve" smooth="yes"/>
			<point x="1027" y="474" type="line"/>
			<point x="965" y="474" type="line"/>
			<point x="872" y="34" type="line" smooth="yes"/>
			<point x="867" y="12"/>
			<point x="862" y="-8"/>
			<point x="856" y="-27" type="curve" smooth="yes"/>
			<point x="829" y="-114"/>
			<point x="758" y="-180"/>
			<point x="643" y="-180" type="curve" smooth="yes"/>
			<point x="527" y="-180"/>
			<point x="484" y="-114"/>
			<point x="495" y="-27" type="curve" smooth="yes"/>
			<point x="497" y="-8"/>
			<point x="501" y="12"/>
			<point x="506" y="34" type="curve" smooth="yes"/>
			<point x="555" y="263" type="line"/>
			<point x="493" y="263" type="line"/>
			<point x="448" y="51" type="line"/>
			<point x="116" y="51" type="line"/>
			<point x="251" y="690" type="line"/>
			<point x="189" y="690" type="line"/>
			<point x="43" y="0" type="line"/>
			<point x="437" y="0" type="line"/>
			<point x="435" y="-10"/>
			<point x="433" y="-21"/>
			<point x="432" y="-33" type="curve" smooth="yes"/>
			<point x="417" y="-145"/>
			<point x="475" y="-230"/>
			<point x="633" y="-230" type="curve" smooth="yes"/>
			<point x="790" y="-230"/>
			<point x="885" y="-145"/>
			<point x="917" y="-33" type="curve" smooth="yes"/>
			<point x="924" y="-9"/>
			<point x="929" y="11"/>
		</contour>
	</outline>
</glyph>
<glyph name="l_e" format="2">
	<advance width="579"/>
	<unicode hex="F3310"/>
	<outline>
		<contour>
			<point x="104" y="140" type="curve" smooth="yes"/>
			<point x="127" y="246" type="line"/>
			<point x="534" y="246" type="line"/>
			<point x="539" y="262"/>
			<point x="541" y="272"/>
			<point x="543" y="279" type="curve" smooth="yes"/>
			<point x="574" y="425"/>
			<point x="522" y="543"/>
			<point x="374" y="543" type="curve" smooth="yes"/>
			<point x="299" y="543"/>
			<point x="228" y="512"/>
			<point x="172" y="456" type="curve"/>
			<point x="231" y="735" type="line"/>
			<point x="169" y="735" type="line"/>
			<point x="42" y="138" type="line" smooth="yes"/>
			<point x="35" y="106"/>
			<point x="31" y="85"/>
			<point x="28" y="67" type="curve" smooth="yes"/>
			<point x="19" y="10"/>
			<point x="47" y="-4"/>
			<point x="88" y="-4" type="curve" smooth="yes"/>
			<point x="104" y="-4"/>
			<point x="121" y="-4"/>
			<point x="137" y="-1" type="curve"/>
			<point x="147" y="45" type="line"/>
			<point x="101" y="40"/>
			<point x="88" y="49"/>
			<point x="93" y="83" type="curve" smooth="yes"/>
			<point x="96" y="99"/>
			<point x="100" y="117"/>
		</contour>
		<contour>
			<point x="143" y="295" type="line"/>
			<point x="180" y="427"/>
			<point x="274" y="493"/>
			<point x="361" y="493" type="curve" smooth="yes"/>
			<point x="450" y="493"/>
			<point x="505" y="431"/>
			<point x="483" y="295" type="curve"/>
		</contour>
	</outline>
</glyph>
<glyph name="l_l_e" format="2">
	<advance width="798"/>
	<unicode hex="F3330"/>
	<outline>
		<contour>
			<point x="104" y="140" type="curve" smooth="yes"/>
			<point x="231" y="735" type="line"/>
			<point x="169" y="735" type="line"/>
			<point x="42" y="138" type="line" smooth="yes"/>
			<point x="35" y="106"/>
			<point x="31" y="85"/>
			<point x="28" y="67" type="curve" smooth="yes"/>
			<point x="19" y="10"/>
			<point x="47" y="-4"/>
			<point x="88" y="-4" type="curve" smooth="yes"/>
			<point x="104" y="-4"/>
			<point x="121" y="-4"/>
			<point x="137" y="-1" type="curve"/>
			<point x="147" y="45" type="line"/>
			<point x="101" y="40"/>
			<point x="88" y="49"/>
			<point x="93" y="83" type="curve" smooth="yes"/>
			<point x="96" y="99"/>
			<point x="100" y="117"/>
		</contour>
		<contour>
			<point x="323" y="140" type="curve" smooth="yes"/>
			<point x="346" y="246" type="line"/>
			<point x="753" y="246" type="line"/>
			<point x="758" y="262"/>
			<point x="760" y="272"/>
			<point x="762" y="279" type="curve" smooth="yes"/>
			<point x="793" y="425"/>
			<point x="741" y="543"/>
			<point x="593" y="543" type="curve" smooth="yes"/>
			<point x="518" y="543"/>
			<point x="447" y="512"/>
			<point x="391" y="456" type="curve"/>
			<point x="450" y="735" type="line"/>
			<point x="388" y="735" type="line"/>
			<point x="261" y="138" type="line" smooth="yes"/>
			<point x="254" y="106"/>
			<point x="250" y="85"/>
			<point x="247" y="67" type="curve" smooth="yes"/>
			<point x="238" y="10"/>
			<point x="266" y="-4"/>
			<point x="307" y="-4" type="curve" smooth="yes"/>
			<point x="323" y="-4"/>
			<point x="340" y="-4"/>
			<point x="356" y="-1" type="curve"/>
			<point x="366" y="45" type="line"/>
			<point x="320" y="40"/>
			<point x="307" y="49"/>
			<point x="312" y="83" type="curve" smooth="yes"/>
			<point x="315" y="99"/>
			<point x="319" y="117"/>
		</contour>
		<contour>
			<point x="362" y="295" type="line"/>
			<point x="399" y="427"/>
			<point x="493" y="493"/>
			<point x="580" y="493" type="curve" smooth="yes"/>
			<point x="669" y="493"/>
			<point x="724" y="431"/>
			<point x="702" y="295" type="curve"/>
		</contour>
	</outline>
</glyph>
<glyph name="l_u" format="2">
	<advance width="552"/>
	<unicode hex="F3350"/>
	<outline>
		<contour>
			<point x="421" y="0" type="line"/>
			<point x="533" y="529" type="line"/>
			<point x="471" y="529" type="line"/>
			<point x="415" y="266" type="line" smooth="yes"/>
			<point x="380" y="100"/>
			<point x="291" y="36"/>
			<point x="203" y="36" type="curve" smooth="yes"/>
			<point x="121" y="36"/>
			<point x="86" y="85"/>
			<point x="93" y="155" type="curve" smooth="yes"/>
			<point x="95" y="182"/>
			<point x="100" y="209"/>
			<point x="105" y="234" type="curve" smooth="yes"/>
			<point x="212" y="735" type="line"/>
			<point x="150" y="735" type="line"/>
			<point x="40" y="220" type="line" smooth="yes"/>
			<point x="31" y="177"/>
			<point x="28" y="158"/>
			<point x="26" y="131" type="curve" smooth="yes"/>
			<point x="20" y="47"/>
			<point x="71" y="-14"/>
			<point x="179" y="-14" type="curve" smooth="yes"/>
			<point x="237" y="-14"/>
			<point x="288" y="2"/>
			<point x="339" y="43" type="curve"/>
			<point x="380" y="102" type="line"/>
			<point x="359" y="0" type="line"/>
		</contour>
	</outline>
</glyph>
<glyph name="m_p" format="2">
	<advance width="1220"/>
	<unicode hex="F3510"/>
	<outline>
		<contour>
			<point x="1013" y="543" type="curve" smooth="yes"/>
			<point x="952" y="543"/>
			<point x="896" y="525"/>
			<point x="852" y="489" type="curve"/>
			<point x="804" y="431" type="line"/>
			<point x="793" y="417" type="line"/>
			<point x="793" y="492"/>
			<point x="752" y="543"/>
			<point x="663" y="543" type="curve" smooth="yes"/>
			<point x="613" y="543"/>
			<point x="568" y="529"/>
			<point x="531" y="497" type="curve"/>
			<point x="476" y="430" type="line"/>
			<point x="473" y="498"/>
			<point x="430" y="543"/>
			<point x="346" y="543" type="curve" smooth="yes"/>
			<point x="296" y="543"/>
			<point x="252" y="529"/>
			<point x="214" y="497" type="curve"/>
			<point x="172" y="438" type="line"/>
			<point x="191" y="529" type="line"/>
			<point x="129" y="529" type="line"/>
			<point x="17" y="0" type="line"/>
			<point x="79" y="0" type="line"/>
			<point x="138" y="277" type="line" smooth="yes"/>
			<point x="171" y="434"/>
			<point x="241" y="493"/>
			<point x="316" y="493" type="curve" smooth="yes"/>
			<point x="386" y="493"/>
			<point x="417" y="452"/>
			<point x="411" y="381" type="curve" smooth="yes"/>
			<point x="408" y="354"/>
			<point x="403" y="327"/>
			<point x="394" y="284" type="curve" smooth="yes"/>
			<point x="334" y="0" type="line"/>
			<point x="396" y="0" type="line"/>
			<point x="455" y="277" type="line" smooth="yes"/>
			<point x="488" y="434"/>
			<point x="558" y="493"/>
			<point x="633" y="493" type="curve" smooth="yes"/>
			<point x="703" y="493"/>
			<point x="734" y="452"/>
			<point x="728" y="381" type="curve" smooth="yes"/>
			<point x="726" y="367"/>
			<point x="724" y="353"/>
			<point x="722" y="337" type="curve" smooth="yes"/>
			<point x="609" y="-196" type="line"/>
			<point x="671" y="-196" type="line"/>
			<point x="732" y="90" type="line"/>
			<point x="753" y="33" type="line"/>
			<point x="779" y="2"/>
			<point x="827" y="-14"/>
			<point x="879" y="-14" type="curve" smooth="yes"/>
			<point x="1013" y="-14"/>
			<point x="1150" y="79"/>
			<point x="1191" y="271" type="curve" smooth="yes"/>
			<point x="1225" y="428"/>
			<point x="1161" y="543"/>
		</contour>
		<contour>
			<point x="763" y="237" type="curve" smooth="yes"/>
			<point x="772" y="277" type="line" smooth="yes"/>
			<point x="806" y="437"/>
			<point x="899" y="493"/>
			<point x="993" y="493" type="curve" smooth="yes"/>
			<point x="1109" y="493"/>
			<point x="1149" y="390"/>
			<point x="1122" y="263" type="curve" smooth="yes"/>
			<point x="1091" y="120"/>
			<point x="995" y="35"/>
			<point x="889" y="35" type="curve" smooth="yes"/>
			<point x="811" y="35"/>
			<point x="731" y="86"/>
		</contour>
	</outline>
</glyph>
<glyph name="N_A" format="2">
	<advance width="914"/>
	<unicode hex="F3610"/>
	<outline>
		<contour>
			<point x="461" y="0" type="line"/>
			<point x="556" y="0" type="line"/>
			<point x="609" y="253" type="line"/>
			<point x="743" y="253" type="line"/>
			<point x="780" y="0" type="line"/>
			<point x="847" y="0" type="line"/>
			<point x="744" y="690" type="line"/>
			<point x="640" y="690" type="line"/>
			<point x="565" y="334" type="line" smooth="yes"/>
			<point x="546" y="248"/>
			<point x="526" y="146"/>
			<point x="509" y="60" type="curve"/>
			<point x="283" y="690" type="line"/>
			<point x="189" y="690" type="line"/>
			<point x="43" y="0" type="line"/>
			<point x="105" y="0" type="line"/>
			<point x="180" y="356" type="line" smooth="yes"/>
			<point x="199" y="442"/>
			<point x="220" y="545"/>
			<point x="236" y="630" type="curve"/>
		</contour>
		<contour>
			<point x="691" y="640" type="line"/>
			<point x="737" y="305" type="line"/>
			<point x="620" y="305" type="line"/>
		</contour>
	</outline>
</glyph>
<glyph name="N_N_E" format="2">
	<advance width="1512"/>
	<unicode hex="F3650"/>
	<outline>
		<contour>
			<point x="461" y="0" type="line"/>
			<point x="556" y="0" type="line"/>
			<point x="665" y="514" type="line" smooth="yes"/>
			<point x="675" y="563"/>
			<point x="687" y="618"/>
			<point x="698" y="672" type="curve" smooth="yes"/>
			<point x="701" y="690" type="line"/>
			<point x="701" y="691" type="line" smooth="yes"/>
			<point x="708" y="724"/>
			<point x="714" y="757"/>
			<point x="720" y="788" type="curve"/>
			<point x="945" y="158" type="line"/>
			<point x="1040" y="159" type="line"/>
			<point x="1425" y="159" type="line"/>
			<point x="1436" y="210" type="line"/>
			<point x="1051" y="210" type="line"/>
			<point x="1108" y="478" type="line"/>
			<point x="1457" y="478" type="line"/>
			<point x="1468" y="530" type="line"/>
			<point x="1119" y="530" type="line"/>
			<point x="1176" y="798" type="line"/>
			<point x="1551" y="798" type="line"/>
			<point x="1562" y="849" type="line"/>
			<point x="1125" y="849" type="line"/>
			<point x="992" y="223" type="line"/>
			<point x="768" y="848" type="line"/>
			<point x="674" y="848" type="line"/>
			<point x="565" y="334" type="line" smooth="yes"/>
			<point x="546" y="248"/>
			<point x="526" y="146"/>
			<point x="509" y="60" type="curve"/>
			<point x="283" y="690" type="line"/>
			<point x="189" y="690" type="line"/>
			<point x="43" y="0" type="line"/>
			<point x="105" y="0" type="line"/>
			<point x="180" y="356" type="line" smooth="yes"/>
			<point x="199" y="442"/>
			<point x="220" y="545"/>
			<point x="236" y="630" type="curve"/>
		</contour>
	</outline>
</glyph>
<glyph name="n_e" format="2">
	<advance width="948"/>
	<unicode hex="F3720"/>
	<outline>
		<contour>
			<point x="912" y="279" type="curve" smooth="yes"/>
			<point x="943" y="425"/>
			<point x="891" y="543"/>
			<point x="743" y="543" type="curve" smooth="yes"/>
			<point x="660" y="543"/>
			<point x="581" y="504"/>
			<point x="523" y="437" type="curve"/>
			<point x="512" y="503"/>
			<point x="461" y="543"/>
			<point x="371" y="543" type="curve" smooth="yes"/>
			<point x="312" y="543"/>
			<point x="262" y="527"/>
			<point x="210" y="484" type="curve"/>
			<point x="169" y="427" type="line"/>
			<point x="191" y="529" type="line"/>
			<point x="129" y="529" type="line"/>
			<point x="17" y="0" type="line"/>
			<point x="79" y="0" type="line"/>
			<point x="135" y="263" type="line" smooth="yes"/>
			<point x="170" y="428"/>
			<point x="260" y="492"/>
			<point x="348" y="492" type="curve" smooth="yes"/>
			<point x="437" y="492"/>
			<point x="466" y="441"/>
			<point x="458" y="369" type="curve" smooth="yes"/>
			<point x="454" y="342"/>
			<point x="449" y="319"/>
			<point x="443" y="289" type="curve" smooth="yes"/>
			<point x="382" y="0" type="line"/>
			<point x="444" y="0" type="line"/>
			<point x="496" y="246" type="line"/>
			<point x="903" y="246" type="line"/>
			<point x="908" y="262"/>
			<point x="910" y="272"/>
		</contour>
		<contour>
			<point x="512" y="295" type="line"/>
			<point x="549" y="427"/>
			<point x="643" y="493"/>
			<point x="730" y="493" type="curve" smooth="yes"/>
			<point x="819" y="493"/>
			<point x="874" y="431"/>
			<point x="852" y="295" type="curve"/>
		</contour>
	</outline>
</glyph>
<glyph name="O_F" format="2">
	<advance width="1083"/>
	<unicode hex="F3810"/>
	<outline>
		<contour>
			<point x="462" y="704" type="curve" smooth="yes"/>
			<point x="261" y="704"/>
			<point x="111" y="555"/>
			<point x="66" y="345" type="curve" smooth="yes"/>
			<point x="22" y="137"/>
			<point x="109" y="-14"/>
			<point x="310" y="-14" type="curve" smooth="yes"/>
			<point x="503" y="-14"/>
			<point x="650" y="125"/>
			<point x="701" y="319" type="curve"/>
			<point x="1040" y="319" type="line"/>
			<point x="1052" y="371" type="line"/>
			<point x="713" y="371" type="line"/>
			<point x="769" y="639" type="line"/>
			<point x="1144" y="639" type="line"/>
			<point x="1155" y="690" type="line"/>
			<point x="718" y="690" type="line"/>
			<point x="694" y="573" type="line"/>
			<point x="656" y="655"/>
			<point x="578" y="704"/>
		</contour>
		<contour>
			<point x="135" y="345" type="curve" smooth="yes"/>
			<point x="176" y="539"/>
			<point x="304" y="654"/>
			<point x="452" y="654" type="curve" smooth="yes"/>
			<point x="601" y="654"/>
			<point x="679" y="539"/>
			<point x="638" y="345" type="curve" smooth="yes"/>
			<point x="597" y="152"/>
			<point x="469" y="36"/>
			<point x="320" y="36" type="curve" smooth="yes"/>
			<point x="172" y="36"/>
			<point x="94" y="152"/>
		</contour>
	</outline>
</glyph>
<glyph name="o_idieresis" format="2">
	<advance width="619"/>
	<unicode hex="F3970"/>
	<outline>
		<contour>
			<point x="346" y="543" type="curve" smooth="yes"/>
			<point x="178" y="543"/>
			<point x="63" y="420"/>
			<point x="30" y="264" type="curve" smooth="yes"/>
			<point x="-3" y="109"/>
			<point x="60" y="-14"/>
			<point x="228" y="-14" type="curve" smooth="yes"/>
			<point x="396" y="-14"/>
			<point x="511" y="109"/>
			<point x="544" y="264" type="curve" smooth="yes"/>
			<point x="600" y="529" type="line"/>
			<point x="538" y="529" type="line"/>
			<point x="523" y="458" type="line"/>
			<point x="491" y="511"/>
			<point x="432" y="543"/>
		</contour>
		<contour>
			<point x="98" y="264" type="curve" smooth="yes"/>
			<point x="128" y="408"/>
			<point x="225" y="493"/>
			<point x="335" y="493" type="curve" smooth="yes"/>
			<point x="445" y="493"/>
			<point x="506" y="408"/>
			<point x="476" y="264" type="curve" smooth="yes"/>
			<point x="445" y="120"/>
			<point x="348" y="35"/>
			<point x="238" y="35" type="curve" smooth="yes"/>
			<point x="128" y="35"/>
			<point x="67" y="120"/>
		</contour>
		<contour>
			<point x="490" y="598" type="line"/>
			<point x="562" y="598" type="line"/>
			<point x="577" y="670" type="line"/>
			<point x="505" y="670" type="line"/>
		</contour>
		<contour>
			<point x="604" y="598" type="line"/>
			<point x="676" y="598" type="line"/>
			<point x="691" y="670" type="line"/>
			<point x="619" y="670" type="line"/>
		</contour>
	</outline>
</glyph>
<glyph name="P_M" format="2">
	<advance width="1124"/>
	<unicode hex="F4010"/>
	<outline>
		<contour>
			<point x="472" y="686" type="curve" smooth="yes"/>
			<point x="442" y="690"/>
			<point x="415" y="690"/>
			<point x="380" y="690" type="curve" smooth="yes"/>
			<point x="189" y="690" type="line"/>
			<point x="43" y="0" type="line"/>
			<point x="105" y="0" type="line"/>
			<point x="167" y="292" type="line"/>
			<point x="296" y="292" type="line" smooth="yes"/>
			<point x="331" y="292"/>
			<point x="358" y="292"/>
			<point x="390" y="296" type="curve" smooth="yes"/>
			<point x="454" y="304"/>
			<point x="515" y="335"/>
			<point x="557" y="387" type="curve"/>
			<point x="558" y="383"/>
			<point x="558" y="379"/>
			<point x="559" y="374" type="curve" smooth="yes"/>
			<point x="621" y="0" type="line"/>
			<point x="699" y="0" type="line"/>
			<point x="918" y="373" type="line" smooth="yes"/>
			<point x="968" y="458"/>
			<point x="1024" y="555"/>
			<point x="1068" y="635" type="curve"/>
			<point x="1049" y="555"/>
			<point x="1028" y="459"/>
			<point x="1010" y="372" type="curve" smooth="yes"/>
			<point x="931" y="0" type="line"/>
			<point x="993" y="0" type="line"/>
			<point x="1139" y="690" type="line"/>
			<point x="1040" y="690" type="line"/>
			<point x="673" y="52" type="line"/>
			<point x="606" y="493" type="line"/>
			<point x="631" y="610"/>
			<point x="574" y="672"/>
		</contour>
		<contour>
			<point x="178" y="345" type="line"/>
			<point x="240" y="637" type="line"/>
			<point x="374" y="637" type="line" smooth="yes"/>
			<point x="407" y="637"/>
			<point x="434" y="636"/>
			<point x="456" y="632" type="curve" smooth="yes"/>
			<point x="517" y="622"/>
			<point x="558" y="581"/>
			<point x="539" y="493" type="curve" smooth="yes"/>
			<point x="520" y="402"/>
			<point x="461" y="360"/>
			<point x="396" y="350" type="curve" smooth="yes"/>
			<point x="372" y="346"/>
			<point x="345" y="345"/>
			<point x="312" y="345" type="curve" smooth="yes"/>
		</contour>
	</outline>
</glyph>
<glyph name="R_E" format="2">
	<advance width="827"/>
	<unicode hex="F4410"/>
	<outline>
		<contour>
			<point x="514" y="184" type="curve" smooth="yes"/>
			<point x="520" y="239"/>
			<point x="513" y="289"/>
			<point x="485" y="320" type="curve"/>
			<point x="772" y="319" type="line"/>
			<point x="784" y="371" type="line"/>
			<point x="522" y="372" type="line"/>
			<point x="568" y="400"/>
			<point x="604" y="445"/>
			<point x="617" y="507" type="curve" smooth="yes"/>
			<point x="630" y="566"/>
			<point x="620" y="609"/>
			<point x="592" y="639" type="curve"/>
			<point x="866" y="639" type="line"/>
			<point x="877" y="690" type="line"/>
			<point x="189" y="690" type="line"/>
			<point x="43" y="0" type="line"/>
			<point x="105" y="0" type="line"/>
			<point x="171" y="312" type="line"/>
			<point x="312" y="312" type="line" smooth="yes"/>
			<point x="328" y="312"/>
			<point x="348" y="312"/>
			<point x="366" y="311" type="curve" smooth="yes"/>
			<point x="439" y="307"/>
			<point x="457" y="250"/>
			<point x="450" y="177" type="curve" smooth="yes"/>
			<point x="441" y="87"/>
			<point x="444" y="44"/>
			<point x="452" y="0" type="curve"/>
			<point x="521" y="0" type="line"/>
			<point x="521" y="0"/>
			<point x="520" y="1"/>
			<point x="520" y="1" type="curve" smooth="yes"/>
			<point x="741" y="0" type="line"/>
			<point x="752" y="51" type="line"/>
			<point x="509" y="52" type="line"/>
			<point x="506" y="84"/>
			<point x="508" y="126"/>
		</contour>
		<contour>
			<point x="182" y="364" type="line"/>
			<point x="240" y="638" type="line"/>
			<point x="381" y="638" type="line" smooth="yes"/>
			<point x="414" y="638"/>
			<point x="436" y="637"/>
			<point x="459" y="634" type="curve" smooth="yes"/>
			<point x="532" y="623"/>
			<point x="567" y="583"/>
			<point x="549" y="502" type="curve" smooth="yes"/>
			<point x="532" y="421"/>
			<point x="472" y="372"/>
			<point x="394" y="366" type="curve" smooth="yes"/>
			<point x="371" y="364"/>
			<point x="354" y="364"/>
			<point x="324" y="364" type="curve" smooth="yes"/>
		</contour>
	</outline>
</glyph>
<glyph name="R_I_C_E" format="2">
	<advance width="1680"/>
	<unicode hex="F4490"/>
	<outline>
		<contour>
			<point x="514" y="184" type="curve" smooth="yes"/>
			<point x="522" y="256"/>
			<point x="506" y="319"/>
			<point x="453" y="343" type="curve"/>
			<point x="528" y="361"/>
			<point x="598" y="416"/>
			<point x="617" y="507" type="curve" smooth="yes"/>
			<point x="641" y="617"/>
			<point x="585" y="673"/>
			<point x="485" y="686" type="curve" smooth="yes"/>
			<point x="454" y="690"/>
			<point x="427" y="690"/>
			<point x="392" y="690" type="curve" smooth="yes"/>
			<point x="189" y="690" type="line"/>
			<point x="43" y="0" type="line"/>
			<point x="105" y="0" type="line"/>
			<point x="171" y="312" type="line"/>
			<point x="312" y="312" type="line" smooth="yes"/>
			<point x="328" y="312"/>
			<point x="348" y="312"/>
			<point x="366" y="311" type="curve" smooth="yes"/>
			<point x="439" y="307"/>
			<point x="457" y="250"/>
			<point x="450" y="177" type="curve" smooth="yes"/>
			<point x="441" y="87"/>
			<point x="444" y="44"/>
			<point x="452" y="0" type="curve"/>
			<point x="521" y="0" type="line"/>
			<point x="505" y="39"/>
			<point x="504" y="89"/>
		</contour>
		<contour>
			<point x="182" y="364" type="line"/>
			<point x="240" y="638" type="line"/>
			<point x="381" y="638" type="line" smooth="yes"/>
			<point x="414" y="638"/>
			<point x="436" y="637"/>
			<point x="459" y="634" type="curve" smooth="yes"/>
			<point x="532" y="623"/>
			<point x="567" y="583"/>
			<point x="549" y="502" type="curve" smooth="yes"/>
			<point x="532" y="421"/>
			<point x="472" y="372"/>
			<point x="394" y="366" type="curve" smooth="yes"/>
			<point x="371" y="364"/>
			<point x="354" y="364"/>
			<point x="324" y="364" type="curve" smooth="yes"/>
		</contour>
		<contour>
			<point x="689" y="690" type="line"/>
			<point x="761" y="690" type="line"/>
			<point x="777" y="762" type="line"/>
			<point x="705" y="762" type="line"/>
		</contour>
		<contour>
			<point x="654" y="342" type="curve" smooth="yes"/>
			<point x="610" y="132"/>
			<point x="697" y="-14"/>
			<point x="886" y="-14" type="curve" smooth="yes"/>
			<point x="1043" y="-14"/>
			<point x="1154" y="70"/>
			<point x="1204" y="180" type="curve"/>
			<point x="1586" y="180" type="line"/>
			<point x="1597" y="230" type="line"/>
			<point x="1161" y="230" type="line"/>
			<point x="1160" y="229" type="line"/>
			<point x="1156" y="219" type="line" smooth="yes"/>
			<point x="1113" y="113"/>
			<point x="1028" y="36"/>
			<point x="900" y="36" type="curve" smooth="yes"/>
			<point x="760" y="36"/>
			<point x="683" y="153"/>
			<point x="724" y="345" type="curve" smooth="yes"/>
			<point x="764" y="533"/>
			<point x="897" y="654"/>
			<point x="1039" y="654" type="curve" smooth="yes"/>
			<point x="1162" y="654"/>
			<point x="1215" y="580"/>
			<point x="1214" y="475" type="curve" smooth="yes"/>
			<point x="1214" y="465" type="line"/>
			<point x="1276" y="465" type="line"/>
			<point x="1276" y="466" type="line"/>
			<point x="1276" y="465" type="line"/>
			<point x="1625" y="466" type="line"/>
			<point x="1636" y="518" type="line"/>
			<point x="1287" y="518" type="line"/>
			<point x="1344" y="786" type="line"/>
			<point x="1719" y="786" type="line"/>
			<point x="1730" y="837" type="line"/>
			<point x="1293" y="837" type="line"/>
			<point x="1247" y="621" type="line"/>
			<point x="1211" y="672"/>
			<point x="1147" y="704"/>
			<point x="1052" y="704" type="curve" smooth="yes"/>
			<point x="863" y="704"/>
			<point x="699" y="554"/>
		</contour>
	</outline>
</glyph>
<glyph name="R_S" format="2">
	<advance width="987"/>
	<unicode hex="F44C0"/>
	<outline>
		<contour>
			<point x="514" y="184" type="line" smooth="yes"/>
			<point x="522" y="256"/>
			<point x="506" y="319"/>
			<point x="453" y="343" type="curve"/>
			<point x="484" y="351"/>
			<point x="515" y="364"/>
			<point x="541" y="385" type="curve"/>
			<point x="552" y="318"/>
			<point x="615" y="284"/>
			<point x="712" y="257" type="curve" smooth="yes"/>
			<point x="834" y="225"/>
			<point x="878" y="187"/>
			<point x="860" y="98" type="curve" smooth="yes"/>
			<point x="842" y="18"/>
			<point x="758" y="-34"/>
			<point x="667" y="-34" type="curve" smooth="yes"/>
			<point x="568" y="-34"/>
			<point x="504" y="21"/>
			<point x="508" y="120" type="curve" smooth="yes"/>
		</contour>
		<contour>
			<point x="43" y="0" type="line"/>
			<point x="105" y="0" type="line"/>
			<point x="171" y="312" type="line"/>
			<point x="312" y="312" type="line" smooth="yes"/>
			<point x="328" y="312"/>
			<point x="348" y="312"/>
			<point x="366" y="311" type="curve" smooth="yes"/>
			<point x="439" y="307"/>
			<point x="458" y="250"/>
			<point x="450" y="177" type="curve" smooth="yes"/>
			<point x="445" y="120" type="line" smooth="yes"/>
			<point x="432" y="-13"/>
			<point x="515" y="-84"/>
			<point x="655" y="-84" type="curve" smooth="yes"/>
			<point x="787" y="-84"/>
			<point x="903" y="-6"/>
			<point x="928" y="108" type="curve" smooth="yes"/>
			<point x="952" y="222"/>
			<point x="890" y="278"/>
			<point x="750" y="316" type="curve" smooth="yes"/>
			<point x="638" y="346"/>
			<point x="596" y="377"/>
			<point x="614" y="461" type="curve" smooth="yes"/>
			<point x="631" y="543"/>
			<point x="713" y="584"/>
			<point x="792" y="584" type="curve" smooth="yes"/>
			<point x="883" y="584"/>
			<point x="931" y="529"/>
			<point x="923" y="435" type="curve"/>
			<point x="988" y="435" type="line"/>
			<point x="999" y="547"/>
			<point x="945" y="634"/>
			<point x="807" y="634" type="curve" smooth="yes"/>
			<point x="739" y="634"/>
			<point x="672" y="611"/>
			<point x="622" y="570" type="curve"/>
			<point x="615" y="639"/>
			<point x="563" y="676"/>
			<point x="485" y="686" type="curve" smooth="yes"/>
			<point x="454" y="690"/>
			<point x="427" y="690"/>
			<point x="392" y="690" type="curve" smooth="yes"/>
			<point x="189" y="690" type="line"/>
		</contour>
		<contour>
			<point x="182" y="364" type="line"/>
			<point x="240" y="638" type="line"/>
			<point x="381" y="638" type="line" smooth="yes"/>
			<point x="414" y="638"/>
			<point x="436" y="637"/>
			<point x="459" y="634" type="curve" smooth="yes"/>
			<point x="532" y="623"/>
			<point x="567" y="583"/>
			<point x="549" y="502" type="curve" smooth="yes"/>
			<point x="532" y="421"/>
			<point x="472" y="372"/>
			<point x="394" y="366" type="curve" smooth="yes"/>
			<point x="371" y="364"/>
			<point x="354" y="364"/>
			<point x="324" y="364" type="curve" smooth="yes"/>
		</contour>
	</outline>
</glyph>
<glyph name="r_i_c_e" format="2">
	<advance width="1303"/>
	<unicode hex="F4590"/>
	<outline>
		<contour>
			<point x="323" y="541" type="curve" smooth="yes"/>
			<point x="289" y="541"/>
			<point x="252" y="526"/>
			<point x="223" y="501" type="curve"/>
			<point x="171" y="433" type="line"/>
			<point x="191" y="529" type="line"/>
			<point x="129" y="529" type="line"/>
			<point x="17" y="0" type="line"/>
			<point x="79" y="0" type="line"/>
			<point x="142" y="297" type="line" smooth="yes"/>
			<point x="172" y="438"/>
			<point x="252" y="495"/>
			<point x="342" y="488" type="curve"/>
			<point x="353" y="537" type="line"/>
			<point x="344" y="540"/>
			<point x="334" y="541"/>
		</contour>
		<contour>
			<point x="397" y="605" type="line"/>
			<point x="469" y="605" type="line"/>
			<point x="485" y="677" type="line"/>
			<point x="413" y="677" type="line"/>
		</contour>
		<contour>
			<point x="373" y="264" type="curve" smooth="yes"/>
			<point x="333" y="77"/>
			<point x="417" y="-14"/>
			<point x="549" y="-14" type="curve" smooth="yes"/>
			<point x="663" y="-14"/>
			<point x="763" y="48"/>
			<point x="812" y="165" type="curve"/>
			<point x="748" y="165" type="line"/>
			<point x="711" y="80"/>
			<point x="641" y="35"/>
			<point x="563" y="35" type="curve" smooth="yes"/>
			<point x="474" y="35"/>
			<point x="407" y="106"/>
			<point x="442" y="269" type="curve" smooth="yes"/>
			<point x="474" y="422"/>
			<point x="577" y="494"/>
			<point x="666" y="494" type="curve" smooth="yes"/>
			<point x="751" y="494"/>
			<point x="793" y="445"/>
			<point x="792" y="356" type="curve"/>
			<point x="1258" y="356" type="line"/>
			<point x="1264" y="372"/>
			<point x="1266" y="382"/>
			<point x="1267" y="389" type="curve" smooth="yes"/>
			<point x="1298" y="535"/>
			<point x="1246" y="653"/>
			<point x="1098" y="653" type="curve" smooth="yes"/>
			<point x="989" y="653"/>
			<point x="886" y="586"/>
			<point x="830" y="475" type="curve"/>
			<point x="800" y="518"/>
			<point x="749" y="543"/>
			<point x="678" y="543" type="curve" smooth="yes"/>
			<point x="545" y="543"/>
			<point x="410" y="439"/>
		</contour>
		<contour>
			<point x="868" y="405" type="line"/>
			<point x="905" y="537"/>
			<point x="999" y="603"/>
			<point x="1086" y="603" type="curve" smooth="yes"/>
			<point x="1175" y="603"/>
			<point x="1230" y="541"/>
			<point x="1208" y="405" type="curve"/>
		</contour>
	</outline>
</glyph>
<glyph name="S_E" format="2">
	<advance width="899"/>
	<unicode hex="F4640"/>
	<outline>
		<contour>
			<point x="396" y="704" type="curve" smooth="yes"/>
			<point x="274" y="704"/>
			<point x="157" y="630"/>
			<point x="133" y="518" type="curve" smooth="yes"/>
			<point x="109" y="407"/>
			<point x="177" y="361"/>
			<point x="301" y="327" type="curve" smooth="yes"/>
			<point x="423" y="295"/>
			<point x="454" y="257"/>
			<point x="435" y="168" type="curve" smooth="yes"/>
			<point x="418" y="88"/>
			<point x="347" y="36"/>
			<point x="256" y="36" type="curve" smooth="yes"/>
			<point x="157" y="36"/>
			<point x="93" y="91"/>
			<point x="97" y="190" type="curve"/>
			<point x="31" y="190" type="line"/>
			<point x="18" y="57"/>
			<point x="104" y="-14"/>
			<point x="244" y="-14" type="curve" smooth="yes"/>
			<point x="309" y="-14"/>
			<point x="368" y="5"/>
			<point x="413" y="38" type="curve"/>
			<point x="365" y="-185" type="line"/>
			<point x="812" y="-185" type="line"/>
			<point x="823" y="-134" type="line"/>
			<point x="438" y="-134" type="line"/>
			<point x="495" y="134" type="line"/>
			<point x="844" y="134" type="line"/>
			<point x="855" y="186" type="line"/>
			<point x="506" y="186" type="line"/>
			<point x="563" y="454" type="line"/>
			<point x="938" y="454" type="line"/>
			<point x="949" y="505" type="line"/>
			<point x="577" y="505" type="line"/>
			<point x="597" y="617"/>
			<point x="534" y="704"/>
		</contour>
		<contour>
			<point x="203" y="531" type="curve" smooth="yes"/>
			<point x="220" y="613"/>
			<point x="302" y="654"/>
			<point x="381" y="654" type="curve" smooth="yes"/>
			<point x="472" y="654"/>
			<point x="529" y="599"/>
			<point x="512" y="505" type="curve" smooth="yes"/>
			<point x="473" y="321" type="line"/>
			<point x="445" y="349"/>
			<point x="401" y="369"/>
			<point x="339" y="386" type="curve" smooth="yes"/>
			<point x="227" y="416"/>
			<point x="185" y="447"/>
		</contour>
	</outline>
</glyph>
<glyph name="S_L" format="2">
	<advance width="885"/>
	<unicode hex="F4660"/>
	<outline>
		<contour>
			<point x="396" y="704" type="curve" smooth="yes"/>
			<point x="274" y="704"/>
			<point x="157" y="630"/>
			<point x="133" y="518" type="curve" smooth="yes"/>
			<point x="109" y="407"/>
			<point x="177" y="361"/>
			<point x="301" y="327" type="curve" smooth="yes"/>
			<point x="423" y="295"/>
			<point x="455" y="255"/>
			<point x="436" y="166" type="curve" smooth="yes"/>
			<point x="419" y="86"/>
			<point x="347" y="36"/>
			<point x="256" y="36" type="curve" smooth="yes"/>
			<point x="157" y="36"/>
			<point x="93" y="91"/>
			<point x="97" y="190" type="curve"/>
			<point x="31" y="190" type="line"/>
			<point x="18" y="57"/>
			<point x="104" y="-14"/>
			<point x="244" y="-14" type="curve" smooth="yes"/>
			<point x="309" y="-14"/>
			<point x="368" y="5"/>
			<point x="414" y="38" type="curve"/>
			<point x="367" y="-184" type="line"/>
			<point x="814" y="-184" type="line"/>
			<point x="824" y="-133" type="line"/>
			<point x="439" y="-133" type="line"/>
			<point x="575" y="506" type="line"/>
			<point x="594" y="618"/>
			<point x="534" y="704"/>
		</contour>
		<contour>
			<point x="203" y="531" type="curve" smooth="yes"/>
			<point x="220" y="613"/>
			<point x="302" y="654"/>
			<point x="381" y="654" type="curve" smooth="yes"/>
			<point x="472" y="654"/>
			<point x="529" y="600"/>
			<point x="513" y="506" type="curve"/>
			<point x="474" y="320" type="line"/>
			<point x="446" y="348"/>
			<point x="401" y="369"/>
			<point x="339" y="386" type="curve" smooth="yes"/>
			<point x="227" y="416"/>
			<point x="185" y="447"/>
		</contour>
	</outline>
</glyph>
<glyph name="s_l" format="2">
	<advance width="522"/>
	<unicode hex="F4760"/>
	<outline>
		<contour>
			<point x="282" y="543" type="curve" smooth="yes"/>
			<point x="178" y="543"/>
			<point x="93" y="483"/>
			<point x="74" y="392" type="curve" smooth="yes"/>
			<point x="55" y="301"/>
			<point x="122" y="264"/>
			<point x="208" y="240" type="curve" smooth="yes"/>
			<point x="305" y="215"/>
			<point x="337" y="186"/>
			<point x="325" y="127" type="curve" smooth="yes"/>
			<point x="312" y="66"/>
			<point x="250" y="35"/>
			<point x="183" y="35" type="curve" smooth="yes"/>
			<point x="112" y="35"/>
			<point x="62" y="66"/>
			<point x="66" y="156" type="curve"/>
			<point x="2" y="156" type="line"/>
			<point x="-9" y="36"/>
			<point x="64" y="-14"/>
			<point x="169" y="-14" type="curve" smooth="yes"/>
			<point x="278" y="-14"/>
			<point x="369" y="38"/>
			<point x="389" y="132" type="curve" smooth="yes"/>
			<point x="408" y="221"/>
			<point x="359" y="265"/>
			<point x="243" y="295" type="curve" smooth="yes"/>
			<point x="171" y="314"/>
			<point x="127" y="338"/>
			<point x="139" y="399" type="curve" smooth="yes"/>
			<point x="152" y="457"/>
			<point x="202" y="493"/>
			<point x="266" y="493" type="curve" smooth="yes"/>
			<point x="337" y="493"/>
			<point x="384" y="454"/>
			<point x="372" y="381" type="curve" smooth="yes"/>
			<point x="368" y="363"/>
			<point x="365" y="349"/>
			<point x="363" y="337" type="curve" smooth="yes"/>
			<point x="354" y="280"/>
			<point x="382" y="266"/>
			<point x="423" y="266" type="curve" smooth="yes"/>
			<point x="439" y="266"/>
			<point x="456" y="266"/>
			<point x="473" y="269" type="curve"/>
			<point x="483" y="315" type="line"/>
			<point x="437" y="310"/>
			<point x="423" y="319"/>
			<point x="429" y="353" type="curve" smooth="yes"/>
			<point x="431" y="369"/>
			<point x="435" y="387"/>
			<point x="440" y="410" type="curve" smooth="yes"/>
			<point x="534" y="855" type="line"/>
			<point x="472" y="855" type="line"/>
			<point x="398" y="507" type="line"/>
			<point x="372" y="530"/>
			<point x="333" y="543"/>
		</contour>
	</outline>
</glyph>
<glyph name="s_s_e" format="2">
	<advance width="1172"/>
	<unicode hex="F47A0"/>
	<outline>
		<contour>
			<point x="282" y="543" type="curve" smooth="yes"/>
			<point x="178" y="543"/>
			<point x="93" y="483"/>
			<point x="74" y="392" type="curve" smooth="yes"/>
			<point x="55" y="301"/>
			<point x="122" y="264"/>
			<point x="208" y="240" type="curve" smooth="yes"/>
			<point x="305" y="215"/>
			<point x="337" y="186"/>
			<point x="325" y="127" type="curve" smooth="yes"/>
			<point x="312" y="66"/>
			<point x="250" y="35"/>
			<point x="183" y="35" type="curve" smooth="yes"/>
			<point x="112" y="35"/>
			<point x="62" y="66"/>
			<point x="66" y="156" type="curve"/>
			<point x="2" y="156" type="line"/>
			<point x="-9" y="36"/>
			<point x="64" y="-14"/>
			<point x="169" y="-14" type="curve" smooth="yes"/>
			<point x="278" y="-14"/>
			<point x="369" y="38"/>
			<point x="389" y="132" type="curve" smooth="yes"/>
			<point x="408" y="221"/>
			<point x="359" y="265"/>
			<point x="243" y="295" type="curve" smooth="yes"/>
			<point x="171" y="314"/>
			<point x="127" y="338"/>
			<point x="139" y="399" type="curve" smooth="yes"/>
			<point x="152" y="457"/>
			<point x="202" y="493"/>
			<point x="266" y="493" type="curve" smooth="yes"/>
			<point x="337" y="493"/>
			<point x="372" y="454"/>
			<point x="372" y="381" type="curve"/>
			<point x="361" y="261"/>
			<point x="434" y="211"/>
			<point x="539" y="211" type="curve" smooth="yes"/>
			<point x="648" y="211"/>
			<point x="739" y="263"/>
			<point x="759" y="357" type="curve" smooth="yes"/>
			<point x="769" y="408"/>
			<point x="758" y="444"/>
			<point x="725" y="471" type="curve"/>
			<point x="726" y="471" type="line"/>
			<point x="1127" y="471" type="line"/>
			<point x="1132" y="487"/>
			<point x="1134" y="497"/>
			<point x="1136" y="504" type="curve" smooth="yes"/>
			<point x="1167" y="650"/>
			<point x="1115" y="768"/>
			<point x="967" y="768" type="curve" smooth="yes"/>
			<point x="901" y="768"/>
			<point x="838" y="744"/>
			<point x="785" y="700" type="curve"/>
			<point x="770" y="735"/>
			<point x="733" y="768"/>
			<point x="652" y="768" type="curve" smooth="yes"/>
			<point x="548" y="768"/>
			<point x="463" y="708"/>
			<point x="444" y="617" type="curve" smooth="yes"/>
			<point x="424" y="526"/>
			<point x="492" y="489"/>
			<point x="578" y="465" type="curve" smooth="yes"/>
			<point x="675" y="440"/>
			<point x="707" y="411"/>
			<point x="694" y="352" type="curve" smooth="yes"/>
			<point x="682" y="291"/>
			<point x="620" y="260"/>
			<point x="553" y="260" type="curve" smooth="yes"/>
			<point x="482" y="260"/>
			<point x="433" y="291"/>
			<point x="437" y="381" type="curve" smooth="yes"/>
			<point x="444" y="474"/>
			<point x="397" y="543"/>
		</contour>
		<contour>
			<point x="509" y="624" type="curve" smooth="yes"/>
			<point x="522" y="682"/>
			<point x="572" y="718"/>
			<point x="636" y="718" type="curve" smooth="yes"/>
			<point x="693" y="718"/>
			<point x="724" y="693"/>
			<point x="734" y="646" type="curve"/>
			<point x="703" y="607"/>
			<point x="680" y="559"/>
			<point x="666" y="503" type="curve"/>
			<point x="650" y="509"/>
			<point x="633" y="515"/>
			<point x="613" y="520" type="curve" smooth="yes"/>
			<point x="541" y="539"/>
			<point x="496" y="563"/>
		</contour>
		<contour>
			<point x="736" y="520" type="line"/>
			<point x="773" y="652"/>
			<point x="867" y="718"/>
			<point x="954" y="718" type="curve" smooth="yes"/>
			<point x="1043" y="718"/>
			<point x="1098" y="656"/>
			<point x="1076" y="520" type="curve"/>
		</contour>
	</outline>
</glyph>
<glyph name="t_t_e" format="2">
	<advance width="998"/>
	<unicode hex="F4980"/>
	<outline>
		<contour>
			<point x="127" y="145" type="curve" smooth="yes"/>
			<point x="198" y="477" type="line"/>
			<point x="351" y="477" type="line"/>
			<point x="280" y="144" type="line" smooth="yes"/>
			<point x="274" y="114"/>
			<point x="270" y="94"/>
			<point x="267" y="76" type="curve" smooth="yes"/>
			<point x="259" y="18"/>
			<point x="285" y="-8"/>
			<point x="344" y="-8" type="curve" smooth="yes"/>
			<point x="365" y="-8"/>
			<point x="387" y="-7"/>
			<point x="409" y="-3" type="curve"/>
			<point x="419" y="43" type="line"/>
			<point x="346" y="34"/>
			<point x="327" y="47"/>
			<point x="334" y="98" type="curve" smooth="yes"/>
			<point x="335" y="112"/>
			<point x="338" y="123"/>
			<point x="342" y="145" type="curve" smooth="yes"/>
			<point x="413" y="477" type="line"/>
			<point x="953" y="477" type="line"/>
			<point x="958" y="493"/>
			<point x="961" y="503"/>
			<point x="962" y="510" type="curve" smooth="yes"/>
			<point x="993" y="656"/>
			<point x="941" y="774"/>
			<point x="793" y="774" type="curve" smooth="yes"/>
			<point x="662" y="774"/>
			<point x="541" y="678"/>
			<point x="496" y="525" type="curve"/>
			<point x="423" y="525" type="line"/>
			<point x="448" y="642" type="line"/>
			<point x="386" y="642" type="line"/>
			<point x="361" y="525" type="line"/>
			<point x="208" y="525" type="line"/>
			<point x="233" y="642" type="line"/>
			<point x="171" y="642" type="line"/>
			<point x="146" y="525" type="line"/>
			<point x="78" y="525" type="line"/>
			<point x="68" y="477" type="line"/>
			<point x="136" y="477" type="line"/>
			<point x="65" y="144" type="line" smooth="yes"/>
			<point x="59" y="114"/>
			<point x="55" y="94"/>
			<point x="52" y="76" type="curve" smooth="yes"/>
			<point x="44" y="18"/>
			<point x="70" y="-8"/>
			<point x="129" y="-8" type="curve" smooth="yes"/>
			<point x="150" y="-8"/>
			<point x="172" y="-7"/>
			<point x="194" y="-3" type="curve"/>
			<point x="204" y="43" type="line"/>
			<point x="131" y="34"/>
			<point x="112" y="47"/>
			<point x="119" y="98" type="curve" smooth="yes"/>
			<point x="120" y="112"/>
			<point x="123" y="123"/>
		</contour>
		<contour>
			<point x="562" y="526" type="line"/>
			<point x="600" y="658"/>
			<point x="694" y="724"/>
			<point x="781" y="724" type="curve" smooth="yes"/>
			<point x="870" y="724"/>
			<point x="924" y="662"/>
			<point x="902" y="526" type="curve"/>
		</contour>
	</outline>
</glyph>
<glyph name="U_E" format="2">
	<advance width="1037"/>
	<unicode hex="F5010"/>
	<outline>
		<contour>
			<point x="576" y="234" type="line"/>
			<point x="633" y="502" type="line"/>
			<point x="982" y="502" type="line"/>
			<point x="993" y="554" type="line"/>
			<point x="644" y="554" type="line"/>
			<point x="701" y="822" type="line"/>
			<point x="1076" y="822" type="line"/>
			<point x="1087" y="873" type="line"/>
			<point x="650" y="873" type="line"/>
			<point x="518" y="250" type="line" smooth="yes"/>
			<point x="513" y="228"/>
			<point x="508" y="208"/>
			<point x="502" y="189" type="curve" smooth="yes"/>
			<point x="475" y="102"/>
			<point x="404" y="36"/>
			<point x="289" y="36" type="curve" smooth="yes"/>
			<point x="173" y="36"/>
			<point x="130" y="102"/>
			<point x="141" y="189" type="curve" smooth="yes"/>
			<point x="143" y="208"/>
			<point x="147" y="228"/>
			<point x="152" y="250" type="curve" smooth="yes"/>
			<point x="245" y="690" type="line"/>
			<point x="183" y="690" type="line"/>
			<point x="89" y="247" type="line" smooth="yes"/>
			<point x="85" y="227"/>
			<point x="81" y="207"/>
			<point x="78" y="183" type="curve" smooth="yes"/>
			<point x="63" y="71"/>
			<point x="121" y="-14"/>
			<point x="279" y="-14" type="curve" smooth="yes"/>
			<point x="436" y="-14"/>
			<point x="531" y="71"/>
			<point x="563" y="183" type="curve"/>
			<point x="951" y="183" type="line"/>
			<point x="961" y="234" type="line"/>
		</contour>
	</outline>
</glyph>
